<?xml version="1.0" encoding="utf-8"?>
<!-- Generator: Adobe Illustrator 17.1.0, SVG Export Plug-In . SVG Version: 6.00 Build 0)  -->
<!DOCTYPE svg PUBLIC "-//W3C//DTD SVG 1.1//EN" "http://www.w3.org/Graphics/SVG/1.1/DTD/svg11.dtd">
<svg version="1.1" id="Layer_1" xmlns="http://www.w3.org/2000/svg" xmlns:xlink="http://www.w3.org/1999/xlink" x="0px" y="0px"
	 viewBox="0 0 300 300" enable-background="new 0 0 300 300" xml:space="preserve">
<g>
	<polyline stroke="#000000" stroke-width="4" stroke-linecap="round" stroke-linejoin="round" stroke-miterlimit="10" points="
		524.354,-468.201 529.983,-468.201 529.983,-387.833 451.533,-387.833 373.082,-387.833 373.082,-468.201 378.712,-468.201 	"/>
	<rect x="376.959" y="-474.453" fill="#FFFFFF" width="150.449" height="84.667"/>
	<g>
		<path fill="none" stroke="#000000" stroke-width="4" stroke-miterlimit="10" d="M435.11-538.745c-9.06-9.06-23.75-9.06-32.81,0
			c-9.06,9.06-9.06,23.75,0,32.81c9.06,9.06,23.75,9.06,32.81,0h0.036l32.81-32.81c9.06-9.06,23.75-9.06,32.81,0
			c9.06,9.06,9.06,23.75,0,32.81c-9.06,9.06-23.75,9.06-32.81,0"/>
		
			<line fill="none" stroke="#000000" stroke-width="4" stroke-miterlimit="10" x1="435.11" y1="-538.745" x2="442.965" y2="-530.89"/>
		
			<line fill="none" stroke="#000000" stroke-width="4" stroke-miterlimit="10" x1="459.572" y1="-514.282" x2="467.956" y2="-505.935"/>
		<polyline fill="none" stroke="#000000" stroke-width="4" stroke-miterlimit="10" points="442.952,-551.381 442.952,-530.89 
			422.461,-530.89 		"/>
	</g>
	
		<polyline fill="#FFFFFF" stroke="#000000" stroke-width="4" stroke-linecap="round" stroke-linejoin="round" stroke-miterlimit="10" points="
		444.014,-389.786 375.658,-389.786 375.658,-474.453 381.533,-474.453 	"/>
	
		<polyline fill="#FFFFFF" stroke="#000000" stroke-width="4" stroke-linecap="round" stroke-linejoin="round" stroke-miterlimit="10" points="
		459.051,-389.786 527.408,-389.786 527.408,-474.453 521.532,-474.453 	"/>
	
		<line fill="none" stroke="#000000" stroke-width="4" stroke-linecap="round" stroke-linejoin="round" stroke-miterlimit="10" x1="451.533" y1="-474.453" x2="451.533" y2="-389.786"/>
	
		<polygon fill="#FFFFFF" stroke="#000000" stroke-width="4" stroke-linecap="round" stroke-linejoin="round" stroke-miterlimit="10" points="
		421.27,-368.619 411.187,-375.742 401.103,-368.619 401.103,-389.786 421.27,-389.786 	"/>
	
		<path fill="#FFFFFF" stroke="#000000" stroke-width="4" stroke-linecap="round" stroke-linejoin="round" stroke-miterlimit="10" d="
		M451.533-389.786c0-3.324-3.366-6.019-7.519-6.019h-62.481v-84.667h62.481c4.153,0,7.519,2.695,7.519,6.019"/>
	
		<line fill="none" stroke="#000000" stroke-width="4" stroke-linecap="round" stroke-linejoin="round" stroke-miterlimit="10" x1="417.068" y1="-455.489" x2="438.556" y2="-455.489"/>
	
		<line fill="none" stroke="#000000" stroke-width="4" stroke-linecap="round" stroke-linejoin="round" stroke-miterlimit="10" x1="417.068" y1="-467.014" x2="438.556" y2="-467.014"/>
	
		<line fill="none" stroke="#000000" stroke-width="4" stroke-linecap="round" stroke-linejoin="round" stroke-miterlimit="10" x1="394.509" y1="-443.963" x2="438.556" y2="-443.963"/>
	
		<line fill="none" stroke="#000000" stroke-width="4" stroke-linecap="round" stroke-linejoin="round" stroke-miterlimit="10" x1="394.509" y1="-432.438" x2="438.556" y2="-432.438"/>
	
		<line fill="none" stroke="#000000" stroke-width="4" stroke-linecap="round" stroke-linejoin="round" stroke-miterlimit="10" x1="394.509" y1="-420.913" x2="438.556" y2="-420.913"/>
	
		<line fill="none" stroke="#000000" stroke-width="4" stroke-linecap="round" stroke-linejoin="round" stroke-miterlimit="10" x1="394.509" y1="-409.387" x2="438.556" y2="-409.387"/>
	
		<rect x="394.509" y="-467.014" fill="none" stroke="#000000" stroke-width="4" stroke-linecap="round" stroke-linejoin="round" stroke-miterlimit="10" width="13.381" height="11.525"/>
	
		<path fill="#FFFFFF" stroke="#000000" stroke-width="4" stroke-linecap="round" stroke-linejoin="round" stroke-miterlimit="10" d="
		M451.533-389.786c0-3.324,3.366-6.019,7.519-6.019h62.481v-84.667h-62.481c-4.153,0-7.519,2.695-7.519,6.019"/>
	
		<line fill="none" stroke="#000000" stroke-width="4" stroke-linecap="round" stroke-linejoin="round" stroke-miterlimit="10" x1="485.997" y1="-443.963" x2="464.509" y2="-443.963"/>
	
		<line fill="none" stroke="#000000" stroke-width="4" stroke-linecap="round" stroke-linejoin="round" stroke-miterlimit="10" x1="485.997" y1="-432.438" x2="464.509" y2="-432.438"/>
	
		<line fill="none" stroke="#000000" stroke-width="4" stroke-linecap="round" stroke-linejoin="round" stroke-miterlimit="10" x1="508.556" y1="-455.489" x2="464.509" y2="-455.489"/>
	
		<line fill="none" stroke="#000000" stroke-width="4" stroke-linecap="round" stroke-linejoin="round" stroke-miterlimit="10" x1="508.556" y1="-467.014" x2="464.509" y2="-467.014"/>
	
		<line fill="none" stroke="#000000" stroke-width="4" stroke-linecap="round" stroke-linejoin="round" stroke-miterlimit="10" x1="464.509" y1="-420.913" x2="508.556" y2="-420.913"/>
	
		<line fill="none" stroke="#000000" stroke-width="4" stroke-linecap="round" stroke-linejoin="round" stroke-miterlimit="10" x1="464.509" y1="-409.387" x2="508.556" y2="-409.387"/>
	
		<rect x="495.175" y="-443.963" fill="none" stroke="#000000" stroke-width="4" stroke-linecap="round" stroke-linejoin="round" stroke-miterlimit="10" width="13.381" height="11.525"/>
	
		<line fill="none" stroke="#000000" stroke-width="4" stroke-linecap="round" stroke-linejoin="round" stroke-miterlimit="10" x1="451.533" y1="-389.786" x2="451.533" y2="-474.453"/>
	<circle cx="518.424" cy="-493.896" r="3.167"/>
	<circle cx="377.915" cy="-541.135" r="3.167"/>
	<path d="M535.959-523.455c-1.435,0-2.603-1.168-2.603-2.603c0-0.616-0.499-1.115-1.115-1.115s-1.115,0.499-1.115,1.115
		c0,1.435-1.167,2.603-2.603,2.603c-0.616,0-1.115,0.499-1.115,1.115c0,0.616,0.499,1.115,1.115,1.115
		c1.435,0,2.603,1.167,2.603,2.602c0,0.616,0.499,1.115,1.115,1.115s1.115-0.499,1.115-1.115c0-1.435,1.167-2.602,2.603-2.602
		c0.616,0,1.115-0.499,1.115-1.115C537.074-522.956,536.575-523.455,535.959-523.455z"/>
	<path d="M381.633-500.255c-1.435,0-2.603-1.168-2.603-2.603c0-0.616-0.499-1.115-1.115-1.115s-1.115,0.499-1.115,1.115
		c0,1.435-1.167,2.603-2.603,2.603c-0.616,0-1.115,0.499-1.115,1.115c0,0.616,0.499,1.115,1.115,1.115
		c1.435,0,2.603,1.167,2.603,2.602c0,0.616,0.499,1.115,1.115,1.115s1.115-0.499,1.115-1.115c0-1.435,1.167-2.602,2.603-2.602
		c0.616,0,1.115-0.499,1.115-1.115C382.749-499.755,382.249-500.255,381.633-500.255z"/>
</g>
<path fill="#FFFFFF" stroke="#000000" stroke-width="4" stroke-linecap="round" stroke-linejoin="round" stroke-miterlimit="10" d="
	M211.689-466.569c5.046,14.317-1.764,29.765-1.764,29.765s-14.992-7.764-20.038-22.081c-5.046-14.317,1.764-29.765,1.764-29.765
	S206.642-480.886,211.689-466.569z"/>
<path fill="#FFFFFF" stroke="#000000" stroke-width="4" stroke-linecap="round" stroke-linejoin="round" stroke-miterlimit="10" d="
	M223.453-479.695c-3.046,2.917-5.995,6.365-8.448,10.377c-9.844,16.104-7.963,35.187-7.963,35.187s17.842-7.026,27.686-23.13
	c4.637-7.586,10.332-15.832,11.188-22.434H223.453z"/>
<path fill="#FFFFFF" stroke="#000000" stroke-width="4" stroke-linecap="round" stroke-linejoin="round" stroke-miterlimit="10" d="
	M242.692-463.852c0,0-10.059-4.922-19.238-15.843h22.463C246.877-470.486,242.692-463.852,242.692-463.852z"/>
<polygon fill="#FFFFFF" stroke="#000000" stroke-width="4" stroke-linecap="round" stroke-linejoin="round" stroke-miterlimit="10" points="
	233.65,-438.227 182.258,-438.227 191.508,-397.727 224.4,-397.727 "/>
<rect x="178.508" y="-445.227" fill="#FFFFFF" stroke="#000000" stroke-width="4" stroke-linecap="round" stroke-linejoin="round" stroke-miterlimit="10" width="58.892" height="14"/>
<path fill="#FFFFFF" stroke="#000000" stroke-width="4" stroke-miterlimit="10" d="M198.441-425.227c0,2.209-1.791,4-4,4h-104
	c-2.209,0-4-1.791-4-4v-75c0-2.209,1.791-4,4-4h104c2.209,0,4,1.791,4,4V-425.227z"/>
<polygon points="154.158,-420.589 132.724,-420.589 128.576,-414.472 158.306,-414.472 "/>
<polyline fill="none" stroke="#000000" stroke-width="4" stroke-miterlimit="10" points="157.822,-484.313 163.831,-478.304 
	157.919,-472.392 "/>
<polyline fill="none" stroke="#000000" stroke-width="4" stroke-miterlimit="10" points="111.767,-473.302 105.758,-479.311 
	111.67,-485.223 "/>
<line fill="none" stroke="#000000" stroke-width="4" stroke-miterlimit="10" x1="147.927" y1="-470.074" x2="153.519" y2="-486.631"/>
<polyline fill="none" stroke="#000000" stroke-width="4" stroke-miterlimit="10" points="175.116,-461.573 181.125,-455.564 
	175.212,-449.652 "/>
<polyline fill="none" stroke="#000000" stroke-width="4" stroke-miterlimit="10" points="124.51,-449.652 118.501,-455.661 
	124.413,-461.573 "/>
<line fill="none" stroke="#000000" stroke-width="4" stroke-miterlimit="10" x1="165.221" y1="-447.334" x2="170.813" y2="-463.89"/>
<polygon fill="none" stroke="#000000" stroke-width="4" stroke-linecap="round" stroke-linejoin="round" stroke-miterlimit="10" points="
	163.708,-402.227 123.175,-402.227 131.763,-421.227 155.119,-421.227 "/>
<line fill="none" stroke="#000000" stroke-width="4" stroke-linecap="round" stroke-linejoin="round" stroke-miterlimit="10" x1="86.441" y1="-434.131" x2="198.441" y2="-434.131"/>
<line fill="none" stroke="#000000" stroke-width="4" stroke-miterlimit="10" x1="118.866" y1="-478.954" x2="140.711" y2="-478.954"/>
<path fill="none" stroke="#000000" stroke-width="4" stroke-miterlimit="10" d="M69.441-397.381c0,1.74-1.411,3.151-3.151,3.151
	H50.734c-1.74,0-3.151-1.411-3.151-3.151v-22.449c0-1.74,1.411-3.151,3.151-3.151h15.557c1.74,0,3.151,1.411,3.151,3.151V-397.381z"
	/>
<path fill="none" stroke="#000000" stroke-width="4" stroke-linecap="round" stroke-linejoin="round" stroke-miterlimit="10" d="
	M54.574-430.527c-2.913-2.814-2.993-7.456-0.18-10.369s2.733-7.556-0.18-10.369"/>
<path fill="none" stroke="#000000" stroke-width="4" stroke-linecap="round" stroke-linejoin="round" stroke-miterlimit="10" d="
	M62.001-430.527c-2.913-2.814-2.993-7.456-0.18-10.369c2.814-2.913,2.733-7.556-0.18-10.369"/>
<rect x="86.441" y="-404.977" fill="#FFFFFF" stroke="#000000" stroke-width="4" stroke-linecap="round" stroke-linejoin="round" stroke-miterlimit="10" width="89" height="14.5"/>
<path fill="#FFFFFF" stroke="#000000" stroke-width="4" stroke-linecap="round" stroke-linejoin="round" stroke-miterlimit="10" d="
	M207.954-395.128c0,3.921-4.259,4.651-9.513,4.651c-5.254,0-9.513-0.73-9.513-4.651c0-3.921,4.259-7.099,9.513-7.099
	C203.695-402.227,207.954-399.049,207.954-395.128z"/>
<circle cx="47.583" cy="-478.246" r="3.167"/>
<circle cx="150.723" cy="-526.356" r="3.167"/>
<path d="M72.157-513.172c-1.435,0-2.603-1.168-2.603-2.603c0-0.616-0.499-1.115-1.115-1.115c-0.616,0-1.115,0.499-1.115,1.115
	c0,1.435-1.167,2.603-2.603,2.603c-0.616,0-1.115,0.499-1.115,1.115s0.499,1.115,1.115,1.115c1.435,0,2.603,1.167,2.603,2.602
	c0,0.616,0.499,1.115,1.115,1.115c0.616,0,1.115-0.499,1.115-1.115c0-1.435,1.167-2.602,2.603-2.602
	c0.616,0,1.115-0.499,1.115-1.115S72.772-513.172,72.157-513.172z"/>
<path d="M230.126-505.342c-1.435,0-2.603-1.168-2.603-2.603c0-0.616-0.499-1.115-1.115-1.115c-0.616,0-1.115,0.499-1.115,1.115
	c0,1.435-1.167,2.603-2.603,2.603c-0.616,0-1.115,0.499-1.115,1.115s0.499,1.115,1.115,1.115c1.435,0,2.603,1.167,2.603,2.602
	c0,0.616,0.499,1.115,1.115,1.115c0.616,0,1.115-0.499,1.115-1.115c0-1.435,1.167-2.602,2.603-2.602
	c0.616,0,1.115-0.499,1.115-1.115S230.742-505.342,230.126-505.342z"/>
<path d="M254.468-417.111c-1.435,0-2.603-1.168-2.603-2.603c0-0.616-0.499-1.115-1.115-1.115s-1.115,0.499-1.115,1.115
	c0,1.435-1.167,2.603-2.603,2.603c-0.616,0-1.115,0.499-1.115,1.115c0,0.616,0.499,1.115,1.115,1.115
	c1.435,0,2.603,1.167,2.603,2.602c0,0.616,0.499,1.115,1.115,1.115s1.115-0.499,1.115-1.115c0-1.435,1.167-2.602,2.603-2.602
	c0.616,0,1.115-0.499,1.115-1.115C255.583-416.611,255.084-417.111,254.468-417.111z"/>
<line fill="#FFFFFF" stroke="#000000" stroke-width="4" stroke-linecap="round" stroke-linejoin="round" stroke-miterlimit="10" x1="214.082" y1="-445.227" x2="227.082" y2="-466.15"/>
<g>
	<path fill="none" stroke="#000000" stroke-width="4" stroke-linecap="round" stroke-linejoin="round" stroke-miterlimit="10" d="
		M147.089-138.381c-10.671,0-19.351,8.681-19.351,19.351s8.68,19.35,19.351,19.35s19.351-8.68,19.351-19.35
		S157.76-138.381,147.089-138.381z"/>
	
		<circle stroke="#000000" stroke-width="4" stroke-linecap="round" stroke-linejoin="round" stroke-miterlimit="10" cx="147.089" cy="-119.03" r="8.632"/>
	
		<circle fill="#FFFFFF" stroke="#000000" stroke-width="4" stroke-linecap="round" stroke-linejoin="round" stroke-miterlimit="10" cx="160.613" cy="-120.618" r="10.22"/>
	<path fill="none" stroke="#000000" stroke-width="4" stroke-linecap="round" stroke-linejoin="round" stroke-miterlimit="10" d="
		M193.543-113.57c0,0-20.798,24.811-46.454,24.811s-46.454-24.811-46.454-24.811s20.798-24.811,46.454-24.811
		S193.543-113.57,193.543-113.57z"/>
	<path fill="none" stroke="#000000" stroke-width="4" stroke-linecap="round" stroke-linejoin="round" stroke-miterlimit="10" d="
		M105.991-132.835c0,0,18.4-15.667,41.097-15.667s41.097,15.667,41.097,15.667"/>
	
		<line fill="none" stroke="#000000" stroke-width="4" stroke-linecap="round" stroke-linejoin="round" stroke-miterlimit="10" x1="214.58" y1="-187.203" x2="189.61" y2="-156.399"/>
	
		<line fill="none" stroke="#000000" stroke-width="4" stroke-linecap="round" stroke-linejoin="round" stroke-miterlimit="10" x1="101.948" y1="-156.088" x2="76.726" y2="-187.203"/>
	
		<line fill="none" stroke="#000000" stroke-width="4" stroke-linecap="round" stroke-linejoin="round" stroke-miterlimit="10" x1="179.229" y1="-217.822" x2="164.298" y2="-167.37"/>
	
		<line fill="none" stroke="#000000" stroke-width="4" stroke-linecap="round" stroke-linejoin="round" stroke-miterlimit="10" x1="128.02" y1="-163.952" x2="111.064" y2="-221.241"/>
	
		<line fill="none" stroke="#000000" stroke-width="4" stroke-linecap="round" stroke-linejoin="round" stroke-miterlimit="10" x1="145.653" y1="-187.203" x2="145.653" y2="-217.822"/>
	
		<line fill="none" stroke="#000000" stroke-width="4" stroke-linecap="round" stroke-linejoin="round" stroke-miterlimit="10" x1="106.745" y1="-179.059" x2="99.681" y2="-191.549"/>
	
		<line fill="none" stroke="#000000" stroke-width="4" stroke-linecap="round" stroke-linejoin="round" stroke-miterlimit="10" x1="181.052" y1="-172.435" x2="189.26" y2="-187.203"/>
	<circle cx="69.861" cy="-156.088" r="3.167"/>
	<circle cx="194.519" cy="-205.013" r="3.167"/>
	<circle cx="207.206" cy="-128.002" r="3.167"/>
	<path d="M232.19-152.6c-1.435,0-2.603-1.168-2.603-2.603c0-0.616-0.499-1.115-1.115-1.115c-0.616,0-1.115,0.499-1.115,1.115
		c0,1.435-1.167,2.603-2.603,2.603c-0.616,0-1.115,0.499-1.115,1.115s0.499,1.115,1.115,1.115c1.435,0,2.603,1.167,2.603,2.602
		c0,0.616,0.499,1.115,1.115,1.115c0.616,0,1.115-0.499,1.115-1.115c0-1.435,1.167-2.602,2.603-2.602
		c0.616,0,1.115-0.499,1.115-1.115S232.806-152.6,232.19-152.6z"/>
	<path d="M92.746-212.461c-1.435,0-2.603-1.168-2.603-2.603c0-0.616-0.499-1.115-1.115-1.115c-0.616,0-1.115,0.499-1.115,1.115
		c0,1.435-1.167,2.603-2.603,2.603c-0.616,0-1.115,0.499-1.115,1.115s0.499,1.115,1.115,1.115c1.435,0,2.603,1.167,2.603,2.602
		c0,0.616,0.499,1.115,1.115,1.115c0.616,0,1.115-0.499,1.115-1.115c0-1.435,1.167-2.602,2.603-2.602
		c0.616,0,1.115-0.499,1.115-1.115S93.362-212.461,92.746-212.461z"/>
	<path d="M87.913-133.95c-1.435,0-2.603-1.168-2.603-2.603c0-0.616-0.499-1.115-1.115-1.115c-0.616,0-1.115,0.499-1.115,1.115
		c0,1.435-1.167,2.603-2.603,2.603c-0.616,0-1.115,0.499-1.115,1.115s0.499,1.115,1.115,1.115c1.435,0,2.603,1.167,2.603,2.602
		c0,0.616,0.499,1.115,1.115,1.115c0.616,0,1.115-0.499,1.115-1.115c0-1.435,1.167-2.602,2.603-2.602
		c0.616,0,1.115-0.499,1.115-1.115S88.529-133.95,87.913-133.95z"/>
</g>
<ellipse fill="none" stroke="#000000" stroke-width="4" stroke-linecap="round" stroke-linejoin="round" stroke-miterlimit="10" cx="422.666" cy="-169.691" rx="30.187" ry="14.475"/>
<ellipse fill="none" stroke="#000000" stroke-width="4" stroke-linecap="round" stroke-linejoin="round" stroke-miterlimit="10" cx="422.666" cy="-169.691" rx="14.475" ry="30.187"/>
<ellipse transform="matrix(-0.7071 0.7071 -0.7071 -0.7071 601.5471 -588.5515)" fill="none" stroke="#000000" stroke-width="4" stroke-linecap="round" stroke-linejoin="round" stroke-miterlimit="10" cx="422.667" cy="-169.691" rx="14.475" ry="30.187"/>
<ellipse transform="matrix(-0.7071 -0.7071 0.7071 -0.7071 841.5262 9.1896)" fill="none" stroke="#000000" stroke-width="4" stroke-linecap="round" stroke-linejoin="round" stroke-miterlimit="10" cx="422.666" cy="-169.691" rx="14.475" ry="30.187"/>
<path fill="#FFFFFF" d="M475.922-216.374c-19.859-19.859-52.056-19.859-71.915,0c-19.859,19.859-19.859,52.056,0,71.915
	c19.859,19.859,52.056,19.859,71.915,0S495.781-196.515,475.922-216.374z M470.955-149.427c-17.115,17.115-44.865,17.115-61.98,0
	c-17.115-17.115-17.115-44.864,0-61.98c17.115-17.115,44.865-17.115,61.98,0C488.07-194.291,488.07-166.542,470.955-149.427z"/>
<circle fill="none" stroke="#000000" stroke-width="4" stroke-linecap="round" stroke-linejoin="round" stroke-miterlimit="10" cx="422.666" cy="-169.691" r="5.961"/>
<circle fill="none" stroke="#000000" stroke-width="4" stroke-linecap="round" stroke-linejoin="round" stroke-miterlimit="10" cx="439.965" cy="-180.416" r="42.398"/>
<circle fill="none" stroke="#000000" stroke-width="4" stroke-linecap="round" stroke-linejoin="round" stroke-miterlimit="10" cx="439.965" cy="-180.416" r="50.851"/>
<polyline fill="none" stroke="#000000" stroke-width="4" stroke-linecap="round" stroke-linejoin="round" stroke-miterlimit="10" points="
	482.033,-151.707 490.141,-143.599 476.781,-130.24 468.673,-138.348 "/>
<path fill="none" stroke="#000000" stroke-width="4" stroke-linecap="round" stroke-linejoin="round" stroke-miterlimit="10" d="
	M528.834-106.429c0.444,0.323,0.868,0.685,1.268,1.086c4.16,4.16,4.16,10.905,0,15.065s-10.905,4.16-15.065,0
	c-0.4-0.4-0.762-0.824-1.085-1.268l-34.54-41.324l8.098-8.098L528.834-106.429z"/>
<path fill="none" stroke="#000000" stroke-width="4" stroke-linecap="round" stroke-linejoin="round" stroke-miterlimit="10" d="
	M458.051-197.608c-3.143-4.588-4.416-10.434-3.037-16.274c0.419-1.773,1.056-3.438,1.878-4.972"/>
<circle fill="none" stroke="#000000" stroke-width="4" stroke-linecap="round" stroke-linejoin="round" stroke-miterlimit="10" cx="465.405" cy="-189.962" r="4.206"/>
<circle fill="none" stroke="#000000" stroke-width="4" stroke-linecap="round" stroke-linejoin="round" stroke-miterlimit="10" cx="432.973" cy="-209.023" r="4.206"/>
<circle fill="none" stroke="#000000" stroke-width="4" stroke-linecap="round" stroke-linejoin="round" stroke-miterlimit="10" cx="460.329" cy="-157.812" r="4.206"/>
<g>
	
		<rect x="416.171" y="-135.43" transform="matrix(0.1977 -0.9803 0.9803 0.1977 440.2896 338.8673)" fill="none" stroke="#000000" stroke-width="4" stroke-linecap="round" stroke-linejoin="round" stroke-miterlimit="10" width="22" height="71.75"/>
	
		<rect x="422.837" y="-135.43" transform="matrix(0.1977 -0.9803 0.9803 0.1977 440.2896 338.8673)" fill="none" stroke="#000000" stroke-width="4" stroke-linecap="round" stroke-linejoin="round" stroke-miterlimit="10" width="8.667" height="71.75"/>
	<path fill="none" stroke="#000000" stroke-width="4" stroke-linecap="round" stroke-linejoin="round" stroke-miterlimit="10" d="
		M460.162-81.678l13.909,2.806c3.79,0.764,7.481-1.688,8.246-5.478l1.582-7.842c0.764-3.79-1.688-7.481-5.478-8.246l-13.909-2.806"
		/>
	
		<line fill="none" stroke="#000000" stroke-width="4" stroke-linecap="round" stroke-linejoin="round" stroke-miterlimit="10" x1="468.249" y1="-80.046" x2="472.6" y2="-101.612"/>
	
		<polygon fill="none" stroke="#000000" stroke-width="4" stroke-linecap="round" stroke-linejoin="round" stroke-miterlimit="10" points="
		394.179,-117.431 389.829,-95.866 379.572,-104.863 381.237,-113.114 	"/>
	<polygon stroke="#000000" stroke-width="4" stroke-linecap="round" stroke-linejoin="round" stroke-miterlimit="10" points="
		381.237,-113.114 379.572,-104.863 373.216,-110.439 	"/>
</g>
<circle cx="373.216" cy="-185.756" r="3.167"/>
<circle cx="522.811" cy="-163.863" r="3.167"/>
<path d="M505.202-210.138c-1.435,0-2.603-1.168-2.603-2.603c0-0.616-0.499-1.115-1.115-1.115c-0.616,0-1.115,0.499-1.115,1.115
	c0,1.435-1.167,2.603-2.603,2.603c-0.616,0-1.115,0.499-1.115,1.115s0.499,1.115,1.115,1.115c1.435,0,2.603,1.167,2.603,2.602
	c0,0.616,0.499,1.115,1.115,1.115c0.616,0,1.115-0.499,1.115-1.115c0-1.435,1.167-2.602,2.603-2.602
	c0.616,0,1.115-0.499,1.115-1.115S505.818-210.138,505.202-210.138z"/>
<path d="M372.1-142.089c-1.435,0-2.603-1.168-2.603-2.603c0-0.616-0.499-1.115-1.115-1.115c-0.616,0-1.115,0.499-1.115,1.115
	c0,1.435-1.167,2.603-2.603,2.603c-0.616,0-1.115,0.499-1.115,1.115c0,0.616,0.499,1.115,1.115,1.115
	c1.435,0,2.603,1.167,2.603,2.602c0,0.616,0.499,1.115,1.115,1.115c0.616,0,1.115-0.499,1.115-1.115
	c0-1.435,1.167-2.602,2.603-2.602c0.616,0,1.115-0.499,1.115-1.115C373.216-141.589,372.716-142.089,372.1-142.089z"/>
<path d="M545.335-126.386c-1.435,0-2.603-1.168-2.603-2.603c0-0.616-0.499-1.115-1.115-1.115c-0.616,0-1.115,0.499-1.115,1.115
	c0,1.435-1.167,2.603-2.603,2.603c-0.616,0-1.115,0.499-1.115,1.115c0,0.616,0.499,1.115,1.115,1.115
	c1.435,0,2.603,1.167,2.603,2.602c0,0.616,0.499,1.115,1.115,1.115c0.616,0,1.115-0.499,1.115-1.115
	c0-1.435,1.167-2.602,2.603-2.602c0.616,0,1.115-0.499,1.115-1.115C546.451-125.886,545.951-126.386,545.335-126.386z"/>
<g>
	
		<path fill="#FFFFFF" stroke="#000000" stroke-width="4" stroke-linecap="round" stroke-linejoin="round" stroke-miterlimit="10" d="
		M222.851,118.637c-6.854,0-12.851,3.666-16.141,9.143H94.295l-6.146-10.645H64.685l-6.355,11.007h23.464l5.377,9.314l-5.377,9.314
		H58.331l6.355,11.007h23.464l6.146-10.645H206.71c3.29,5.477,9.287,9.143,16.141,9.143c10.393,0,18.818-8.425,18.818-18.818
		S233.244,118.637,222.851,118.637z"/>
	
		<rect x="107.253" y="134.311" fill="#FFFFFF" stroke="#000000" stroke-width="4" stroke-linecap="round" stroke-linejoin="round" stroke-miterlimit="10" width="93" height="6.289"/>
	
		<polygon fill="#FFFFFF" stroke="#000000" stroke-width="4" stroke-linecap="round" stroke-linejoin="round" stroke-miterlimit="10" points="
		217.077,147.455 211.304,137.455 217.077,127.455 228.625,127.455 234.399,137.455 228.625,147.455 	"/>
	<path fill="none" stroke="#000000" stroke-width="4" stroke-linecap="round" stroke-linejoin="round" stroke-miterlimit="10" d="
		M178.361,183.913c3.83-4.668,6.894-26.064,6.894-38.8"/>
	
		<path fill="#FFFFFF" stroke="#000000" stroke-width="4" stroke-linecap="round" stroke-linejoin="round" stroke-miterlimit="10" d="
		M177.019,119.759c-4.549,0-8.236,0.276-8.236,3.947v21.407c0,3.672,3.687,4.355,8.236,4.355c4.549,0,8.236-0.684,8.236-4.355
		v-21.407C185.255,120.035,181.567,119.759,177.019,119.759z"/>
	
		<path fill="#FFFFFF" stroke="#000000" stroke-width="4" stroke-linecap="round" stroke-linejoin="round" stroke-miterlimit="10" d="
		M160.546,113.363c-4.549,0-8.236,0.276-8.236,3.947v27.804c0,3.672,3.687,4.355,8.236,4.355c4.549,0,8.236-0.684,8.236-4.355
		V117.31C168.783,113.638,165.095,113.363,160.546,113.363z"/>
	
		<path fill="#FFFFFF" stroke="#000000" stroke-width="4" stroke-linecap="round" stroke-linejoin="round" stroke-miterlimit="10" d="
		M144.074,108.251c-4.549,0-8.236,0.276-8.236,3.947v22.608c0,3.672,3.687,4.355,8.236,4.355c4.549,0,8.236-0.684,8.236-4.355
		v-22.608C152.31,108.527,148.623,108.251,144.074,108.251z"/>
	
		<path fill="#FFFFFF" stroke="#000000" stroke-width="4" stroke-linecap="round" stroke-linejoin="round" stroke-miterlimit="10" d="
		M127.602,112.141c-4.549,0-8.236,0.276-8.236,3.947v18.718c0,3.672,3.687,4.355,8.236,4.355s8.236-0.684,8.236-4.355v-18.718
		C135.838,112.417,132.15,112.141,127.602,112.141z"/>
	
		<path fill="#FFFFFF" stroke="#000000" stroke-width="4" stroke-linecap="round" stroke-linejoin="round" stroke-miterlimit="10" d="
		M158.086,172.266c-3.983-15.092-13.309-23.5-24.178-23.5l17.487,0c2.603,0,4.714-7.455,4.714-13.959h-36.744v20.775
		c0,12.736,7.743,23.663,18.779,28.331"/>
	
		<line fill="none" stroke="#000000" stroke-width="4" stroke-linecap="round" stroke-linejoin="round" stroke-miterlimit="10" x1="178.361" y1="183.913" x2="178.361" y2="213.016"/>
	
		<line fill="none" stroke="#000000" stroke-width="4" stroke-linecap="round" stroke-linejoin="round" stroke-miterlimit="10" x1="131.123" y1="179.76" x2="127.602" y2="213.016"/>
	<circle cx="107.253" cy="105.084" r="3.167"/>
	<circle cx="97.653" cy="196.388" r="3.167"/>
	<path d="M110.368,165.402c-1.138,0-2.064-0.926-2.064-2.064c0-0.489-0.396-0.885-0.885-0.885s-0.885,0.396-0.885,0.885
		c0,1.138-0.926,2.064-2.064,2.064c-0.489,0-0.885,0.396-0.885,0.885c0,0.489,0.396,0.885,0.885,0.885
		c1.138,0,2.064,0.926,2.064,2.064c0,0.489,0.396,0.885,0.885,0.885s0.885-0.396,0.885-0.885c0-1.138,0.926-2.064,2.064-2.064
		c0.489,0,0.885-0.396,0.885-0.885C111.253,165.798,110.857,165.402,110.368,165.402z"/>
	<path d="M175.903,90.702c-1.435,0-2.603-1.168-2.603-2.603c0-0.616-0.499-1.115-1.115-1.115s-1.115,0.499-1.115,1.115
		c0,1.435-1.167,2.603-2.603,2.603c-0.616,0-1.115,0.499-1.115,1.115c0,0.616,0.499,1.115,1.115,1.115
		c1.435,0,2.603,1.167,2.603,2.602c0,0.616,0.499,1.115,1.115,1.115s1.115-0.499,1.115-1.115c0-1.435,1.167-2.602,2.603-2.602
		c0.616,0,1.115-0.499,1.115-1.115C177.019,91.202,176.519,90.702,175.903,90.702z"/>
	<path d="M207.035,175.042c-1.138,0-2.064-0.926-2.064-2.064c0-0.489-0.396-0.885-0.885-0.885c-0.489,0-0.885,0.396-0.885,0.885
		c0,1.138-0.926,2.064-2.064,2.064c-0.489,0-0.885,0.396-0.885,0.885c0,0.489,0.396,0.885,0.885,0.885
		c1.138,0,2.064,0.926,2.064,2.064c0,0.489,0.396,0.885,0.885,0.885c0.489,0,0.885-0.396,0.885-0.885
		c0-1.138,0.926-2.064,2.064-2.064c0.489,0,0.885-0.396,0.885-0.885C207.919,175.439,207.523,175.042,207.035,175.042z"/>
</g>
<g>
	<g>
		<path fill="none" stroke="#000000" stroke-width="4" stroke-linecap="round" stroke-linejoin="round" stroke-miterlimit="10" d="
			M183.079,452.823c-8.731,3.595-21.211-6.735-29.737-5.708c-8.526,1.027-17.776,6.166-19.317,9.761
			c-0.77,1.798-4.011,7.8-7.395,11.295c-3.04,3.139,2.522,9.244,9.969,6.163c14.894-6.163,9.758-13.026,9.758-13.026l8.78-0.368
			l31.73,32.842l13.158-4.04"/>
		<path fill="none" stroke="#000000" stroke-width="4" stroke-linecap="round" stroke-linejoin="round" stroke-miterlimit="10" d="
			M182.308,450.839c0,0,13.481,35.052,17.718,38.903s16.178-5.007,16.178-5.007l-18.315-42.37L182.308,450.839z"/>
		<path fill="none" stroke="#000000" stroke-width="4" stroke-linecap="round" stroke-linejoin="round" stroke-miterlimit="10" d="
			M112.588,448.299c0,0-12.562,32.662-16.51,36.251c-3.948,3.589-15.075-4.666-15.075-4.666l17.066-39.481L112.588,448.299z"/>
		<path fill="none" stroke="#000000" stroke-width="4" stroke-linecap="round" stroke-linejoin="round" stroke-miterlimit="10" d="
			M185.485,492.218c0.156,0.128,0.322,0.236,0.468,0.382c2.364,2.364,2.364,6.197,0,8.561c-1.975,1.975-4.967,2.276-7.28,0.95
			c1.942,2.377,1.832,5.872-0.385,8.09c-2.364,2.364-6.197,2.364-8.561,0c-0.145-0.145-0.254-0.311-0.381-0.467l-1.176-1.176
			c0.746,2.127,0.289,4.582-1.412,6.283c-2.364,2.364-6.197,2.364-8.561,0c-0.145-0.145-0.254-0.311-0.381-0.467l-2.279-2.279
			c1.11,2.261,0.751,5.06-1.129,6.94c-2.364,2.364-6.197,2.364-8.561,0c-0.145-0.145-0.254-0.311-0.381-0.467l-23.072-21.122
			l-25.598-13.739"/>
		
			<line fill="none" stroke="#000000" stroke-width="4" stroke-linecap="round" stroke-linejoin="round" stroke-miterlimit="10" x1="178.673" y1="502.111" x2="162.017" y2="485.454"/>
		
			<line fill="none" stroke="#000000" stroke-width="4" stroke-linecap="round" stroke-linejoin="round" stroke-miterlimit="10" x1="168.17" y1="508.558" x2="150" y2="490.388"/>
		
			<line fill="none" stroke="#000000" stroke-width="4" stroke-linecap="round" stroke-linejoin="round" stroke-miterlimit="10" x1="155.538" y1="512.095" x2="143.813" y2="500.37"/>
		<g>
			
				<path fill="#FFFFFF" stroke="#000000" stroke-width="4" stroke-linecap="round" stroke-linejoin="round" stroke-miterlimit="10" d="
				M117.951,504.354l7.786-7.786c2.242-2.242,2.422-5.696,0.403-7.715c-2.019-2.019-5.473-1.839-7.715,0.403l-7.786,7.786
				c-2.242,2.242-2.422,5.695-0.403,7.715C112.256,506.776,115.71,506.596,117.951,504.354z"/>
			
				<path fill="#FFFFFF" stroke="#000000" stroke-width="4" stroke-linecap="round" stroke-linejoin="round" stroke-miterlimit="10" d="
				M127.21,509.72l3.893-3.893c2.242-2.242,2.422-5.696,0.403-7.715c-2.019-2.019-5.473-1.839-7.715,0.403l-3.893,3.893
				c-2.242,2.242-2.422,5.695-0.403,7.715S124.969,511.962,127.21,509.72z"/>
			
				<path fill="#FFFFFF" stroke="#000000" stroke-width="4" stroke-linecap="round" stroke-linejoin="round" stroke-miterlimit="10" d="
				M112.586,495.096l3.893-3.893c2.242-2.242,2.422-5.696,0.403-7.715c-2.019-2.019-5.473-1.839-7.715,0.403l-3.893,3.893
				c-2.242,2.242-2.422,5.696-0.403,7.715C106.89,497.517,110.344,497.337,112.586,495.096z"/>
			
				<path fill="#FFFFFF" stroke="#000000" stroke-width="4" stroke-linecap="round" stroke-linejoin="round" stroke-miterlimit="10" d="
				M135.582,515.973l1.774-1.773c2.242-2.242,2.422-5.696,0.403-7.715c-2.019-2.019-5.473-1.839-7.715,0.403l-1.774,1.773
				c-2.242,2.242-2.422,5.695-0.403,7.715C129.887,518.394,133.341,518.214,135.582,515.973z"/>
		</g>
		
			<line fill="none" stroke="#000000" stroke-width="4" stroke-linecap="round" stroke-linejoin="round" stroke-miterlimit="10" x1="142.606" y1="450.277" x2="113.748" y2="449.106"/>
		<path d="M92.015,478.954c-1.749,0-3.167-1.418-3.167-3.167s1.418-3.167,3.167-3.167s3.167,1.418,3.167,3.167
			S93.764,478.954,92.015,478.954"/>
		<path d="M205.265,483.707c-1.749,0-3.167-1.418-3.167-3.167s1.418-3.167,3.167-3.167c1.749,0,3.167,1.418,3.167,3.167
			S207.014,483.707,205.265,483.707"/>
	</g>
	<path d="M87.733,393.406c-1.435,0-2.603-1.168-2.603-2.603c0-0.616-0.499-1.115-1.115-1.115c-0.616,0-1.115,0.499-1.115,1.115
		c0,1.435-1.167,2.603-2.603,2.603c-0.616,0-1.115,0.499-1.115,1.115c0,0.616,0.499,1.115,1.115,1.115
		c1.435,0,2.603,1.167,2.603,2.602c0,0.616,0.499,1.115,1.115,1.115c0.616,0,1.115-0.499,1.115-1.115
		c0-1.435,1.167-2.602,2.603-2.602c0.616,0,1.115-0.499,1.115-1.115C88.848,393.906,88.349,393.406,87.733,393.406z"/>
	<path d="M234.42,427.315c-1.435,0-2.603-1.168-2.603-2.603c0-0.616-0.499-1.115-1.115-1.115s-1.115,0.499-1.115,1.115
		c0,1.435-1.167,2.603-2.603,2.603c-0.616,0-1.115,0.499-1.115,1.115s0.499,1.115,1.115,1.115c1.435,0,2.603,1.167,2.603,2.602
		c0,0.616,0.499,1.115,1.115,1.115s1.115-0.499,1.115-1.115c0-1.435,1.167-2.602,2.603-2.602c0.616,0,1.115-0.499,1.115-1.115
		S235.036,427.315,234.42,427.315z"/>
	<path fill="none" stroke="#000000" stroke-width="4" stroke-linecap="round" stroke-linejoin="round" stroke-miterlimit="10" d="
		M225.868,455.095c0-12.499-9.1-22.867-21.035-24.855c-1.477-14.922-14.063-26.579-29.374-26.579c-2.398,0-4.726,0.293-6.958,0.833
		c-3.863-8.962-12.774-15.238-23.153-15.238c-9.681,0-18.083,5.461-22.305,13.468c-0.227-0.007-0.448-0.034-0.676-0.034
		c-11.479,0-20.786,9.306-20.786,20.785c0,1.112,0.113,2.196,0.281,3.261c-1.301-0.22-2.636-0.341-4-0.341
		c-13.158,0-23.824,10.666-23.824,23.824"/>
	
		<line fill="none" stroke="#000000" stroke-width="4" stroke-linecap="round" stroke-linejoin="round" stroke-miterlimit="10" x1="225.868" y1="455.095" x2="245.703" y2="455.095"/>
	
		<line fill="none" stroke="#000000" stroke-width="4" stroke-linecap="round" stroke-linejoin="round" stroke-miterlimit="10" x1="74.039" y1="450.219" x2="54.297" y2="450.219"/>
	<path d="M67.13,424.149c-1.749,0-3.167-1.418-3.167-3.167s1.418-3.167,3.167-3.167s3.167,1.418,3.167,3.167
		S68.879,424.149,67.13,424.149"/>
	<path d="M211.598,413.522c-1.749,0-3.167-1.418-3.167-3.167s1.418-3.167,3.167-3.167s3.167,1.418,3.167,3.167
		S213.347,413.522,211.598,413.522"/>
</g>
<polyline fill="#FFFFFF" stroke="#000000" stroke-width="4" stroke-linecap="round" stroke-linejoin="round" stroke-miterlimit="10" points="
	367.711,469.116 364.139,463.055 370.316,458.481 373.888,464.542 "/>
<polyline fill="#FFFFFF" stroke="#000000" stroke-width="4" stroke-linecap="round" stroke-linejoin="round" stroke-miterlimit="10" points="
	403.707,469.116 407.201,463.133 401.015,458.549 397.521,464.532 "/>
<circle cx="365.971" cy="432.471" r="3.167"/>
<circle cx="511.461" cy="421.504" r="3.167"/>
<path d="M350.558,460.858c-1.435,0-2.603-1.168-2.603-2.603c0-0.616-0.499-1.115-1.115-1.115c-0.616,0-1.115,0.499-1.115,1.115
	c0,1.435-1.167,2.603-2.603,2.603c-0.616,0-1.115,0.499-1.115,1.115c0,0.616,0.499,1.115,1.115,1.115
	c1.435,0,2.603,1.167,2.603,2.602c0,0.616,0.499,1.115,1.115,1.115c0.616,0,1.115-0.499,1.115-1.115
	c0-1.435,1.167-2.602,2.603-2.602c0.616,0,1.115-0.499,1.115-1.115C351.673,461.357,351.174,460.858,350.558,460.858z"/>
<path d="M540.522,431.356c-1.435,0-2.603-1.168-2.603-2.603c0-0.616-0.499-1.115-1.115-1.115s-1.115,0.499-1.115,1.115
	c0,1.435-1.167,2.603-2.602,2.603c-0.616,0-1.115,0.499-1.115,1.115c0,0.616,0.499,1.115,1.115,1.115
	c1.435,0,2.602,1.167,2.602,2.602c0,0.616,0.499,1.115,1.115,1.115s1.115-0.499,1.115-1.115c0-1.435,1.167-2.602,2.603-2.602
	c0.616,0,1.115-0.499,1.115-1.115C541.638,431.855,541.138,431.356,540.522,431.356z"/>
<path d="M427.156,404.772c-1.435,0-2.603-1.168-2.603-2.603c0-0.616-0.499-1.115-1.115-1.115c-0.616,0-1.115,0.499-1.115,1.115
	c0,1.435-1.167,2.603-2.603,2.603c-0.616,0-1.115,0.499-1.115,1.115s0.499,1.115,1.115,1.115c1.435,0,2.603,1.167,2.603,2.602
	c0,0.616,0.499,1.115,1.115,1.115c0.616,0,1.115-0.499,1.115-1.115c0-1.435,1.167-2.602,2.603-2.602
	c0.616,0,1.115-0.499,1.115-1.115S427.772,404.772,427.156,404.772z"/>
<path fill="none" stroke="#000000" stroke-width="4" stroke-linecap="round" stroke-linejoin="round" stroke-miterlimit="10" d="
	M552.239,454.124c-48.92,0.536-71.326-15.717-98.66-41.717c0,0-48.333,41-60,12c-7.29-18.122-20.805,54.133-9.333,66.333
	c10.105,10.747,43.924,5.824,58.667,6.333c15.774,0.545,46.884,7.551,62.667,7.667C570.579,505.215,582.372,447.605,552.239,454.124
	z"/>
<path fill="none" stroke="#000000" stroke-width="4" stroke-linecap="round" stroke-linejoin="round" stroke-miterlimit="10" d="
	M440.683,430.746c0,0-42.076,28.047-54.974-0.953"/>
<path fill="none" stroke="#000000" stroke-width="4" stroke-linecap="round" stroke-linejoin="round" stroke-miterlimit="10" d="
	M378.249,478.323c10.105,10.747,44.679,5.908,59.422,6.418c15.774,0.545,46.884,7.551,62.667,7.667
	c36.882,0.269,58.729-19.289,59.791-38.403"/>
<path fill="none" stroke="#000000" stroke-width="4" stroke-linecap="round" stroke-linejoin="round" stroke-miterlimit="10" d="
	M428.271,429.124c24.975-3.384,74.308,47.616,93.613,23.067"/>
<path fill="none" stroke="#000000" stroke-width="4" stroke-linecap="round" stroke-linejoin="round" stroke-miterlimit="10" d="
	M526.717,452.618c28.949,10.114-13.617,16.323-13.617,36.539"/>
<path fill="none" stroke="#000000" stroke-width="4" stroke-linecap="round" stroke-linejoin="round" stroke-miterlimit="10" d="
	M382.069,445.072c0,0,4.572,27.698,10.111,35.886"/>
<path fill="none" stroke="#000000" stroke-width="4" stroke-linecap="round" stroke-linejoin="round" stroke-miterlimit="10" d="
	M485.446,444.055c0,0,20.667-9.278,1.969-6.987"/>
<path fill="none" stroke="#000000" stroke-width="4" stroke-linecap="round" stroke-linejoin="round" stroke-miterlimit="10" d="
	M472.394,436.147c0,0,20.667-9.278,1.969-6.987"/>
<path fill="none" stroke="#000000" stroke-width="4" stroke-linecap="round" stroke-linejoin="round" stroke-miterlimit="10" d="
	M498.497,451.281c0,0,20.667-9.278,1.969-6.987"/>
<path fill="none" stroke="#000000" stroke-width="4" stroke-linecap="round" stroke-linejoin="round" stroke-miterlimit="10" d="
	M465.926,423.426l-6.68,5.536c0,0-13.273-3.291-17.94-7.458"/>
<path fill="none" stroke="#000000" stroke-width="4" stroke-linecap="round" stroke-linejoin="round" stroke-miterlimit="10" d="
	M462.645,468.557c0.952,3.732-9.86,3.279-24.15-1.011c-14.289-4.291-26.645-10.794-27.597-14.526s9.86-3.279,24.15,1.011
	C449.337,458.321,461.693,464.825,462.645,468.557z"/>
<polyline fill="#FFFFFF" stroke="#000000" stroke-width="4" stroke-linecap="round" stroke-linejoin="round" stroke-miterlimit="10" points="
	378.34,462.999 378.34,454.124 393.078,454.124 393.078,462.999 "/>
<circle fill="#FFFFFF" stroke="#000000" stroke-width="4" stroke-linecap="round" stroke-linejoin="round" stroke-miterlimit="10" cx="385.709" cy="485.554" r="23.581"/>
<circle fill="#FFFFFF" stroke="#000000" stroke-width="4" stroke-linecap="round" stroke-linejoin="round" stroke-miterlimit="10" cx="385.709" cy="485.554" r="16.975"/>
<line fill="none" stroke="#000000" stroke-width="4" stroke-linecap="round" stroke-linejoin="round" stroke-miterlimit="10" x1="385.709" y1="486.157" x2="385.709" y2="476.338"/>
<line fill="none" stroke="#000000" stroke-width="4" stroke-linecap="round" stroke-linejoin="round" stroke-miterlimit="10" x1="385.709" y1="486.157" x2="391.245" y2="492.596"/>
<polygon fill="none" stroke="#000000" stroke-width="4" stroke-linecap="round" stroke-linejoin="round" stroke-miterlimit="10" points="
	482.878,103.614 455,120.328 427.122,103.614 455,86.901 "/>
<path fill="none" stroke="#000000" stroke-width="4" stroke-linecap="round" stroke-linejoin="round" stroke-miterlimit="10" d="
	M418.265,104.033c-10.709,2.061-18.798,11.481-18.798,22.791"/>
<path fill="none" stroke="#000000" stroke-width="4" stroke-linecap="round" stroke-linejoin="round" stroke-miterlimit="10" d="
	M510.533,126.824c0-10.993-7.643-20.202-17.905-22.601"/>
<path fill="none" stroke="#000000" stroke-width="4" stroke-linecap="round" stroke-linejoin="round" stroke-miterlimit="10" d="
	M422.677,140.26c0-2.498-2.025-4.523-4.523-4.523H380.78c-2.498,0-4.523,2.025-4.523,4.523v23.237c0,2.498,2.025,4.523,4.523,4.523
	h37.374c2.498,0,4.523-2.025,4.523-4.523V140.26z"/>
<path fill="none" stroke="#000000" stroke-width="4" stroke-linecap="round" stroke-linejoin="round" stroke-miterlimit="10" d="
	M533.743,140.26c0-2.498-2.025-4.523-4.523-4.523h-37.374c-2.498,0-4.523,2.025-4.523,4.523v23.237c0,2.498,2.025,4.523,4.523,4.523
	h37.374c2.498,0,4.523-2.025,4.523-4.523V140.26z"/>
<polyline fill="none" stroke="#000000" stroke-width="4" stroke-linecap="round" stroke-linejoin="round" stroke-miterlimit="10" points="
	405.279,123.555 399.467,129.367 393.655,123.555 "/>
<polyline fill="none" stroke="#000000" stroke-width="4" stroke-linecap="round" stroke-linejoin="round" stroke-miterlimit="10" points="
	516.345,123.555 510.533,129.367 504.721,123.555 "/>
<polyline fill="none" stroke="#000000" stroke-width="4" stroke-linecap="round" stroke-linejoin="round" stroke-miterlimit="10" points="
	490.593,200.184 484.781,194.372 490.593,188.56 "/>
<path fill="none" stroke="#000000" stroke-width="4" stroke-linecap="round" stroke-linejoin="round" stroke-miterlimit="10" d="
	M422.677,194.372c-11.331,0-20.766-8.12-22.803-18.859"/>
<path fill="none" stroke="#000000" stroke-width="4" stroke-linecap="round" stroke-linejoin="round" stroke-miterlimit="10" d="
	M484.781,194.372c11.331,0,20.766-8.12,22.803-18.859"/>
<polyline fill="none" stroke="#000000" stroke-width="4" stroke-linecap="round" stroke-linejoin="round" stroke-miterlimit="10" points="
	419.407,200.184 425.219,194.372 419.407,188.56 "/>
<circle fill="none" stroke="#000000" stroke-width="4" stroke-linecap="round" stroke-linejoin="round" stroke-miterlimit="10" cx="455" cy="194.372" r="18.727"/>
<circle fill="none" stroke="#000000" stroke-width="4" stroke-linecap="round" stroke-linejoin="round" stroke-miterlimit="10" cx="455" cy="194.372" r="12.018"/>
<line fill="none" stroke="#000000" stroke-width="4" stroke-linecap="round" stroke-linejoin="round" stroke-miterlimit="10" x1="442.263" y1="103.614" x2="467.737" y2="103.614"/>
<line fill="none" stroke="#000000" stroke-width="4" stroke-linecap="round" stroke-linejoin="round" stroke-miterlimit="10" x1="384.699" y1="146.543" x2="414.235" y2="146.543"/>
<line fill="none" stroke="#000000" stroke-width="4" stroke-linecap="round" stroke-linejoin="round" stroke-miterlimit="10" x1="384.699" y1="154.99" x2="402.675" y2="154.99"/>
<path fill="none" stroke="#000000" stroke-width="4" stroke-linecap="round" stroke-linejoin="round" stroke-miterlimit="10" d="
	M519.47,149.851c-0.43-1.982-2.193-3.466-4.304-3.466c-0.831,0-1.608,0.23-2.271,0.63c-0.896-2.001-2.904-3.396-5.238-3.396
	c-3.169,0-5.738,2.569-5.738,5.738c0,0.162,0.008,0.323,0.022,0.482c-0.007,0-0.014-0.001-0.022-0.001
	c-2.433,0-4.405,1.972-4.405,4.405c0,2.433,1.972,4.405,4.405,4.405h17.228c2.433,0,4.405-1.972,4.405-4.405
	C523.552,151.918,521.752,150.016,519.47,149.851z"/>
<path d="M439.439,161.814c-1.749,0-3.167-1.418-3.167-3.167s1.418-3.167,3.167-3.167s3.167,1.418,3.167,3.167
	S441.188,161.814,439.439,161.814"/>
<path d="M477.445,130.543c-1.435,0-2.603-1.168-2.603-2.603c0-0.616-0.499-1.115-1.115-1.115s-1.115,0.499-1.115,1.115
	c0,1.435-1.167,2.603-2.603,2.603c-0.616,0-1.115,0.499-1.115,1.115c0,0.616,0.499,1.115,1.115,1.115
	c1.435,0,2.603,1.167,2.603,2.602c0,0.616,0.499,1.115,1.115,1.115s1.115-0.499,1.115-1.115c0-1.435,1.167-2.602,2.603-2.602
	c0.616,0,1.115-0.499,1.115-1.115C478.561,131.042,478.061,130.543,477.445,130.543z"/>
<path d="M385.843,104.332c-1.435,0-2.603-1.168-2.603-2.603c0-0.616-0.499-1.115-1.115-1.115s-1.115,0.499-1.115,1.115
	c0,1.435-1.167,2.603-2.603,2.603c-0.616,0-1.115,0.499-1.115,1.115c0,0.616,0.499,1.115,1.115,1.115
	c1.435,0,2.603,1.167,2.603,2.602c0,0.616,0.499,1.115,1.115,1.115s1.115-0.499,1.115-1.115c0-1.435,1.167-2.602,2.603-2.602
	c0.616,0,1.115-0.499,1.115-1.115C386.958,104.832,386.459,104.332,385.843,104.332z"/>
<path d="M515.46,201.324c-1.138,0-2.064-0.926-2.064-2.064c0-0.489-0.396-0.885-0.885-0.885s-0.885,0.396-0.885,0.885
	c0,1.138-0.926,2.064-2.064,2.064c-0.489,0-0.885,0.396-0.885,0.885c0,0.489,0.396,0.885,0.885,0.885
	c1.138,0,2.064,0.926,2.064,2.064c0,0.489,0.396,0.885,0.885,0.885s0.885-0.396,0.885-0.885c0-1.138,0.926-2.064,2.064-2.064
	c0.489,0,0.885-0.396,0.885-0.885C516.345,201.72,515.949,201.324,515.46,201.324z"/>
</svg>
