<?xml version="1.0" encoding="utf-8"?>
<!-- Generator: Adobe Illustrator 17.1.0, SVG Export Plug-In . SVG Version: 6.00 Build 0)  -->
<!DOCTYPE svg PUBLIC "-//W3C//DTD SVG 1.1//EN" "http://www.w3.org/Graphics/SVG/1.1/DTD/svg11.dtd">
<svg version="1.1" id="Layer_1" xmlns="http://www.w3.org/2000/svg" xmlns:xlink="http://www.w3.org/1999/xlink" x="0px" y="0px"
	 viewBox="0 0 300 300" enable-background="new 0 0 300 300" xml:space="preserve">
<g>
	<polyline stroke="#000000" stroke-width="4" stroke-linecap="round" stroke-linejoin="round" stroke-miterlimit="10" points="
		219.354,141.799 224.983,141.799 224.983,222.167 146.533,222.167 68.082,222.167 68.082,141.799 73.712,141.799 	"/>
	<rect x="71.959" y="135.547" fill="#FFFFFF" width="150.449" height="84.667"/>
	<g>
		<path fill="none" stroke="#000000" stroke-width="4" stroke-miterlimit="10" d="M130.11,71.255c-9.06-9.06-23.75-9.06-32.81,0
			s-9.06,23.75,0,32.81s23.75,9.06,32.81,0h0.036l32.81-32.81c9.06-9.06,23.75-9.06,32.81,0s9.06,23.75,0,32.81s-23.75,9.06-32.81,0
			"/>
		<line fill="none" stroke="#000000" stroke-width="4" stroke-miterlimit="10" x1="130.11" y1="71.255" x2="137.965" y2="79.11"/>
		
			<line fill="none" stroke="#000000" stroke-width="4" stroke-miterlimit="10" x1="154.572" y1="95.718" x2="162.956" y2="104.065"/>
		<polyline fill="none" stroke="#000000" stroke-width="4" stroke-miterlimit="10" points="137.952,58.619 137.952,79.11 
			117.461,79.11 		"/>
	</g>
	
		<polyline fill="#FFFFFF" stroke="#000000" stroke-width="4" stroke-linecap="round" stroke-linejoin="round" stroke-miterlimit="10" points="
		139.014,220.214 70.658,220.214 70.658,135.547 76.533,135.547 	"/>
	
		<polyline fill="#FFFFFF" stroke="#000000" stroke-width="4" stroke-linecap="round" stroke-linejoin="round" stroke-miterlimit="10" points="
		154.051,220.214 222.408,220.214 222.408,135.547 216.532,135.547 	"/>
	
		<line fill="none" stroke="#000000" stroke-width="4" stroke-linecap="round" stroke-linejoin="round" stroke-miterlimit="10" x1="146.533" y1="135.547" x2="146.533" y2="220.214"/>
	
		<polygon fill="#FFFFFF" stroke="#000000" stroke-width="4" stroke-linecap="round" stroke-linejoin="round" stroke-miterlimit="10" points="
		116.27,241.381 106.187,234.258 96.103,241.381 96.103,220.214 116.27,220.214 	"/>
	
		<path fill="#FFFFFF" stroke="#000000" stroke-width="4" stroke-linecap="round" stroke-linejoin="round" stroke-miterlimit="10" d="
		M146.533,220.214c0-3.324-3.366-6.019-7.519-6.019l-62.481,0v-84.667h62.481c4.153,0,7.519,2.695,7.519,6.019"/>
	
		<line fill="none" stroke="#000000" stroke-width="4" stroke-linecap="round" stroke-linejoin="round" stroke-miterlimit="10" x1="112.068" y1="154.511" x2="133.556" y2="154.511"/>
	
		<line fill="none" stroke="#000000" stroke-width="4" stroke-linecap="round" stroke-linejoin="round" stroke-miterlimit="10" x1="112.068" y1="142.986" x2="133.556" y2="142.986"/>
	
		<line fill="none" stroke="#000000" stroke-width="4" stroke-linecap="round" stroke-linejoin="round" stroke-miterlimit="10" x1="89.509" y1="166.037" x2="133.556" y2="166.037"/>
	
		<line fill="none" stroke="#000000" stroke-width="4" stroke-linecap="round" stroke-linejoin="round" stroke-miterlimit="10" x1="89.509" y1="177.562" x2="133.556" y2="177.562"/>
	
		<line fill="none" stroke="#000000" stroke-width="4" stroke-linecap="round" stroke-linejoin="round" stroke-miterlimit="10" x1="89.509" y1="189.087" x2="133.556" y2="189.087"/>
	
		<line fill="none" stroke="#000000" stroke-width="4" stroke-linecap="round" stroke-linejoin="round" stroke-miterlimit="10" x1="89.509" y1="200.613" x2="133.556" y2="200.613"/>
	
		<rect x="89.509" y="142.986" fill="none" stroke="#000000" stroke-width="4" stroke-linecap="round" stroke-linejoin="round" stroke-miterlimit="10" width="13.381" height="11.525"/>
	
		<path fill="#FFFFFF" stroke="#000000" stroke-width="4" stroke-linecap="round" stroke-linejoin="round" stroke-miterlimit="10" d="
		M146.533,220.214c0-3.324,3.366-6.019,7.519-6.019l62.481,0v-84.667h-62.481c-4.153,0-7.519,2.695-7.519,6.019"/>
	
		<line fill="none" stroke="#000000" stroke-width="4" stroke-linecap="round" stroke-linejoin="round" stroke-miterlimit="10" x1="180.997" y1="166.037" x2="159.509" y2="166.037"/>
	
		<line fill="none" stroke="#000000" stroke-width="4" stroke-linecap="round" stroke-linejoin="round" stroke-miterlimit="10" x1="180.997" y1="177.562" x2="159.509" y2="177.562"/>
	
		<line fill="none" stroke="#000000" stroke-width="4" stroke-linecap="round" stroke-linejoin="round" stroke-miterlimit="10" x1="203.556" y1="154.511" x2="159.509" y2="154.511"/>
	
		<line fill="none" stroke="#000000" stroke-width="4" stroke-linecap="round" stroke-linejoin="round" stroke-miterlimit="10" x1="203.556" y1="142.986" x2="159.509" y2="142.986"/>
	
		<line fill="none" stroke="#000000" stroke-width="4" stroke-linecap="round" stroke-linejoin="round" stroke-miterlimit="10" x1="159.509" y1="189.087" x2="203.556" y2="189.087"/>
	
		<line fill="none" stroke="#000000" stroke-width="4" stroke-linecap="round" stroke-linejoin="round" stroke-miterlimit="10" x1="159.509" y1="200.613" x2="203.556" y2="200.613"/>
	
		<rect x="190.175" y="166.037" fill="none" stroke="#000000" stroke-width="4" stroke-linecap="round" stroke-linejoin="round" stroke-miterlimit="10" width="13.381" height="11.525"/>
	
		<line fill="none" stroke="#000000" stroke-width="4" stroke-linecap="round" stroke-linejoin="round" stroke-miterlimit="10" x1="146.533" y1="220.214" x2="146.533" y2="135.547"/>
	<circle cx="213.424" cy="116.104" r="3.167"/>
	<circle cx="72.915" cy="68.865" r="3.167"/>
	<path d="M230.959,86.545c-1.435,0-2.603-1.168-2.603-2.603c0-0.616-0.499-1.115-1.115-1.115s-1.115,0.499-1.115,1.115
		c0,1.435-1.167,2.603-2.603,2.603c-0.616,0-1.115,0.499-1.115,1.115s0.499,1.115,1.115,1.115c1.435,0,2.603,1.167,2.603,2.602
		c0,0.616,0.499,1.115,1.115,1.115s1.115-0.499,1.115-1.115c0-1.435,1.167-2.602,2.603-2.602c0.616,0,1.115-0.499,1.115-1.115
		S231.575,86.545,230.959,86.545z"/>
	<path d="M76.633,109.745c-1.435,0-2.603-1.168-2.603-2.603c0-0.616-0.499-1.115-1.115-1.115c-0.616,0-1.115,0.499-1.115,1.115
		c0,1.435-1.167,2.603-2.603,2.603c-0.616,0-1.115,0.499-1.115,1.115c0,0.616,0.499,1.115,1.115,1.115
		c1.435,0,2.603,1.167,2.603,2.602c0,0.616,0.499,1.115,1.115,1.115c0.616,0,1.115-0.499,1.115-1.115
		c0-1.435,1.167-2.602,2.603-2.602c0.616,0,1.115-0.499,1.115-1.115C77.749,110.245,77.249,109.745,76.633,109.745z"/>
</g>
<path fill="#FFFFFF" stroke="#000000" stroke-width="4" stroke-linecap="round" stroke-linejoin="round" stroke-miterlimit="10" d="
	M-93.311,143.431c5.046,14.317-1.764,29.765-1.764,29.765s-14.992-7.764-20.038-22.081s1.764-29.765,1.764-29.765
	S-98.358,129.114-93.311,143.431z"/>
<path fill="#FFFFFF" stroke="#000000" stroke-width="4" stroke-linecap="round" stroke-linejoin="round" stroke-miterlimit="10" d="
	M-81.547,130.305c-3.046,2.917-5.995,6.365-8.448,10.377c-9.844,16.104-7.963,35.187-7.963,35.187s17.842-7.026,27.686-23.13
	c4.637-7.586,10.332-15.832,11.188-22.434H-81.547z"/>
<path fill="#FFFFFF" stroke="#000000" stroke-width="4" stroke-linecap="round" stroke-linejoin="round" stroke-miterlimit="10" d="
	M-62.308,146.148c0,0-10.059-4.922-19.238-15.843h22.463C-58.123,139.514-62.308,146.148-62.308,146.148z"/>
<polygon fill="#FFFFFF" stroke="#000000" stroke-width="4" stroke-linecap="round" stroke-linejoin="round" stroke-miterlimit="10" points="
	-71.35,171.773 -122.742,171.773 -113.492,212.273 -80.6,212.273 "/>
<rect x="-126.492" y="164.773" fill="#FFFFFF" stroke="#000000" stroke-width="4" stroke-linecap="round" stroke-linejoin="round" stroke-miterlimit="10" width="58.892" height="14"/>
<path fill="#FFFFFF" stroke="#000000" stroke-width="4" stroke-miterlimit="10" d="M-106.559,184.773c0,2.209-1.791,4-4,4h-104
	c-2.209,0-4-1.791-4-4v-75c0-2.209,1.791-4,4-4h104c2.209,0,4,1.791,4,4V184.773z"/>
<polygon points="-150.842,189.411 -172.276,189.411 -176.424,195.528 -146.694,195.528 "/>
<polyline fill="none" stroke="#000000" stroke-width="4" stroke-miterlimit="10" points="-147.178,125.687 -141.169,131.696 
	-147.081,137.608 "/>
<polyline fill="none" stroke="#000000" stroke-width="4" stroke-miterlimit="10" points="-193.233,136.698 -199.242,130.689 
	-193.33,124.777 "/>
<line fill="none" stroke="#000000" stroke-width="4" stroke-miterlimit="10" x1="-157.073" y1="139.926" x2="-151.481" y2="123.369"/>
<polyline fill="none" stroke="#000000" stroke-width="4" stroke-miterlimit="10" points="-129.884,148.427 -123.875,154.436 
	-129.788,160.348 "/>
<polyline fill="none" stroke="#000000" stroke-width="4" stroke-miterlimit="10" points="-180.49,160.348 -186.499,154.339 
	-180.587,148.427 "/>
<line fill="none" stroke="#000000" stroke-width="4" stroke-miterlimit="10" x1="-139.779" y1="162.666" x2="-134.187" y2="146.11"/>
<polygon fill="none" stroke="#000000" stroke-width="4" stroke-linecap="round" stroke-linejoin="round" stroke-miterlimit="10" points="
	-141.292,207.773 -181.825,207.773 -173.237,188.773 -149.881,188.773 "/>
<line fill="none" stroke="#000000" stroke-width="4" stroke-linecap="round" stroke-linejoin="round" stroke-miterlimit="10" x1="-218.559" y1="175.869" x2="-106.559" y2="175.869"/>
<line fill="none" stroke="#000000" stroke-width="4" stroke-miterlimit="10" x1="-186.134" y1="131.046" x2="-164.289" y2="131.046"/>
<path fill="none" stroke="#000000" stroke-width="4" stroke-miterlimit="10" d="M-235.559,212.619c0,1.74-1.411,3.151-3.151,3.151
	h-15.557c-1.74,0-3.151-1.411-3.151-3.151v-22.449c0-1.74,1.411-3.151,3.151-3.151h15.557c1.74,0,3.151,1.411,3.151,3.151V212.619z"
	/>
<path fill="none" stroke="#000000" stroke-width="4" stroke-linecap="round" stroke-linejoin="round" stroke-miterlimit="10" d="
	M-250.426,179.473c-2.913-2.814-2.993-7.456-0.18-10.369c2.814-2.913,2.733-7.556-0.18-10.369"/>
<path fill="none" stroke="#000000" stroke-width="4" stroke-linecap="round" stroke-linejoin="round" stroke-miterlimit="10" d="
	M-242.999,179.473c-2.913-2.814-2.993-7.456-0.18-10.369c2.814-2.913,2.733-7.556-0.18-10.369"/>
<rect x="-218.559" y="205.023" fill="#FFFFFF" stroke="#000000" stroke-width="4" stroke-linecap="round" stroke-linejoin="round" stroke-miterlimit="10" width="89" height="14.5"/>
<path fill="#FFFFFF" stroke="#000000" stroke-width="4" stroke-linecap="round" stroke-linejoin="round" stroke-miterlimit="10" d="
	M-97.046,214.872c0,3.921-4.259,4.651-9.513,4.651c-5.254,0-9.513-0.73-9.513-4.651c0-3.921,4.259-7.099,9.513-7.099
	C-101.305,207.773-97.046,210.951-97.046,214.872z"/>
<circle cx="-257.417" cy="131.754" r="3.167"/>
<circle cx="-154.277" cy="83.644" r="3.167"/>
<path d="M-232.843,96.828c-1.435,0-2.603-1.168-2.603-2.603c0-0.616-0.499-1.115-1.115-1.115c-0.616,0-1.115,0.499-1.115,1.115
	c0,1.435-1.167,2.603-2.603,2.603c-0.616,0-1.115,0.499-1.115,1.115c0,0.616,0.499,1.115,1.115,1.115
	c1.435,0,2.603,1.167,2.603,2.602c0,0.616,0.499,1.115,1.115,1.115c0.616,0,1.115-0.499,1.115-1.115
	c0-1.435,1.167-2.602,2.603-2.602c0.616,0,1.115-0.499,1.115-1.115C-231.728,97.327-232.228,96.828-232.843,96.828z"/>
<path d="M-74.874,104.658c-1.435,0-2.603-1.168-2.603-2.603c0-0.616-0.499-1.115-1.115-1.115c-0.616,0-1.115,0.499-1.115,1.115
	c0,1.435-1.167,2.603-2.603,2.603c-0.616,0-1.115,0.499-1.115,1.115c0,0.616,0.499,1.115,1.115,1.115
	c1.435,0,2.603,1.167,2.603,2.602c0,0.616,0.499,1.115,1.115,1.115c0.616,0,1.115-0.499,1.115-1.115
	c0-1.435,1.167-2.602,2.603-2.602c0.616,0,1.115-0.499,1.115-1.115C-73.759,105.157-74.258,104.658-74.874,104.658z"/>
<path d="M-50.532,192.889c-1.435,0-2.603-1.168-2.603-2.603c0-0.616-0.499-1.115-1.115-1.115s-1.115,0.499-1.115,1.115
	c0,1.435-1.167,2.603-2.603,2.603c-0.616,0-1.115,0.499-1.115,1.115c0,0.616,0.499,1.115,1.115,1.115
	c1.435,0,2.603,1.167,2.603,2.602c0,0.616,0.499,1.115,1.115,1.115s1.115-0.499,1.115-1.115c0-1.435,1.167-2.602,2.603-2.602
	c0.616,0,1.115-0.499,1.115-1.115C-49.417,193.389-49.916,192.889-50.532,192.889z"/>
<line fill="#FFFFFF" stroke="#000000" stroke-width="4" stroke-linecap="round" stroke-linejoin="round" stroke-miterlimit="10" x1="-90.918" y1="164.773" x2="-77.918" y2="143.85"/>
<g>
	<path fill="none" stroke="#000000" stroke-width="4" stroke-linecap="round" stroke-linejoin="round" stroke-miterlimit="10" d="
		M-157.911,471.619c-10.671,0-19.351,8.681-19.351,19.351s8.68,19.35,19.351,19.35s19.351-8.68,19.351-19.35
		S-147.24,471.619-157.911,471.619z"/>
	
		<circle stroke="#000000" stroke-width="4" stroke-linecap="round" stroke-linejoin="round" stroke-miterlimit="10" cx="-157.911" cy="490.97" r="8.632"/>
	
		<circle fill="#FFFFFF" stroke="#000000" stroke-width="4" stroke-linecap="round" stroke-linejoin="round" stroke-miterlimit="10" cx="-144.387" cy="489.382" r="10.22"/>
	<path fill="none" stroke="#000000" stroke-width="4" stroke-linecap="round" stroke-linejoin="round" stroke-miterlimit="10" d="
		M-111.457,496.43c0,0-20.798,24.811-46.454,24.811s-46.454-24.811-46.454-24.811s20.798-24.811,46.454-24.811
		S-111.457,496.43-111.457,496.43z"/>
	<path fill="none" stroke="#000000" stroke-width="4" stroke-linecap="round" stroke-linejoin="round" stroke-miterlimit="10" d="
		M-199.009,477.165c0,0,18.4-15.667,41.097-15.667s41.097,15.667,41.097,15.667"/>
	
		<line fill="none" stroke="#000000" stroke-width="4" stroke-linecap="round" stroke-linejoin="round" stroke-miterlimit="10" x1="-90.42" y1="422.797" x2="-115.39" y2="453.601"/>
	
		<line fill="none" stroke="#000000" stroke-width="4" stroke-linecap="round" stroke-linejoin="round" stroke-miterlimit="10" x1="-203.052" y1="453.912" x2="-228.274" y2="422.797"/>
	
		<line fill="none" stroke="#000000" stroke-width="4" stroke-linecap="round" stroke-linejoin="round" stroke-miterlimit="10" x1="-125.771" y1="392.178" x2="-140.702" y2="442.63"/>
	
		<line fill="none" stroke="#000000" stroke-width="4" stroke-linecap="round" stroke-linejoin="round" stroke-miterlimit="10" x1="-176.98" y1="446.048" x2="-193.936" y2="388.759"/>
	
		<line fill="none" stroke="#000000" stroke-width="4" stroke-linecap="round" stroke-linejoin="round" stroke-miterlimit="10" x1="-159.347" y1="422.797" x2="-159.347" y2="392.178"/>
	
		<line fill="none" stroke="#000000" stroke-width="4" stroke-linecap="round" stroke-linejoin="round" stroke-miterlimit="10" x1="-198.255" y1="430.941" x2="-205.319" y2="418.451"/>
	
		<line fill="none" stroke="#000000" stroke-width="4" stroke-linecap="round" stroke-linejoin="round" stroke-miterlimit="10" x1="-123.948" y1="437.565" x2="-115.74" y2="422.797"/>
	<circle cx="-235.139" cy="453.912" r="3.167"/>
	<circle cx="-110.481" cy="404.987" r="3.167"/>
	<circle cx="-97.794" cy="481.998" r="3.167"/>
	<path d="M-72.81,457.4c-1.435,0-2.603-1.168-2.603-2.603c0-0.616-0.499-1.115-1.115-1.115c-0.616,0-1.115,0.499-1.115,1.115
		c0,1.435-1.167,2.603-2.603,2.603c-0.616,0-1.115,0.499-1.115,1.115c0,0.616,0.499,1.115,1.115,1.115
		c1.435,0,2.603,1.167,2.603,2.602c0,0.616,0.499,1.115,1.115,1.115c0.616,0,1.115-0.499,1.115-1.115
		c0-1.435,1.167-2.602,2.603-2.602c0.616,0,1.115-0.499,1.115-1.115C-71.695,457.899-72.194,457.4-72.81,457.4z"/>
	<path d="M-212.254,397.539c-1.435,0-2.603-1.168-2.603-2.603c0-0.616-0.499-1.115-1.115-1.115s-1.115,0.499-1.115,1.115
		c0,1.435-1.167,2.603-2.603,2.603c-0.616,0-1.115,0.499-1.115,1.115s0.499,1.115,1.115,1.115c1.435,0,2.603,1.167,2.603,2.602
		c0,0.616,0.499,1.115,1.115,1.115s1.115-0.499,1.115-1.115c0-1.435,1.167-2.602,2.603-2.602c0.616,0,1.115-0.499,1.115-1.115
		S-211.638,397.539-212.254,397.539z"/>
	<path d="M-217.087,476.05c-1.435,0-2.603-1.168-2.603-2.603c0-0.616-0.499-1.115-1.115-1.115s-1.115,0.499-1.115,1.115
		c0,1.435-1.167,2.603-2.603,2.603c-0.616,0-1.115,0.499-1.115,1.115s0.499,1.115,1.115,1.115c1.435,0,2.603,1.167,2.603,2.602
		c0,0.616,0.499,1.115,1.115,1.115s1.115-0.499,1.115-1.115c0-1.435,1.167-2.602,2.603-2.602c0.616,0,1.115-0.499,1.115-1.115
		S-216.471,476.05-217.087,476.05z"/>
</g>
<ellipse fill="none" stroke="#000000" stroke-width="4" stroke-linecap="round" stroke-linejoin="round" stroke-miterlimit="10" cx="117.666" cy="440.309" rx="30.187" ry="14.475"/>
<ellipse fill="none" stroke="#000000" stroke-width="4" stroke-linecap="round" stroke-linejoin="round" stroke-miterlimit="10" cx="117.666" cy="440.309" rx="14.475" ry="30.187"/>
<ellipse transform="matrix(-0.7071 0.7071 -0.7071 -0.7071 512.2147 668.4513)" fill="none" stroke="#000000" stroke-width="4" stroke-linecap="round" stroke-linejoin="round" stroke-miterlimit="10" cx="117.667" cy="440.309" rx="14.475" ry="30.187"/>
<ellipse transform="matrix(-0.7071 -0.7071 0.7071 -0.7071 -110.4764 834.8571)" fill="none" stroke="#000000" stroke-width="4" stroke-linecap="round" stroke-linejoin="round" stroke-miterlimit="10" cx="117.666" cy="440.309" rx="14.475" ry="30.187"/>
<path fill="#FFFFFF" d="M170.922,393.626c-19.859-19.859-52.056-19.859-71.915,0c-19.859,19.859-19.859,52.056,0,71.915
	c19.859,19.859,52.056,19.859,71.915,0S190.781,413.485,170.922,393.626z M165.955,460.573c-17.115,17.115-44.865,17.115-61.98,0
	c-17.115-17.115-17.115-44.864,0-61.98c17.115-17.115,44.865-17.115,61.98,0C183.07,415.709,183.07,443.458,165.955,460.573z"/>
<circle fill="none" stroke="#000000" stroke-width="4" stroke-linecap="round" stroke-linejoin="round" stroke-miterlimit="10" cx="117.666" cy="440.309" r="5.961"/>
<circle fill="none" stroke="#000000" stroke-width="4" stroke-linecap="round" stroke-linejoin="round" stroke-miterlimit="10" cx="134.965" cy="429.584" r="42.398"/>
<circle fill="none" stroke="#000000" stroke-width="4" stroke-linecap="round" stroke-linejoin="round" stroke-miterlimit="10" cx="134.965" cy="429.584" r="50.851"/>
<polyline fill="none" stroke="#000000" stroke-width="4" stroke-linecap="round" stroke-linejoin="round" stroke-miterlimit="10" points="
	177.033,458.293 185.141,466.401 171.781,479.76 163.673,471.652 "/>
<path fill="none" stroke="#000000" stroke-width="4" stroke-linecap="round" stroke-linejoin="round" stroke-miterlimit="10" d="
	M223.834,503.571c0.444,0.323,0.868,0.685,1.268,1.086c4.16,4.16,4.16,10.905,0,15.065c-4.16,4.16-10.905,4.16-15.065,0
	c-0.4-0.4-0.762-0.824-1.085-1.268l-34.54-41.324l8.098-8.098L223.834,503.571z"/>
<path fill="none" stroke="#000000" stroke-width="4" stroke-linecap="round" stroke-linejoin="round" stroke-miterlimit="10" d="
	M153.051,412.392c-3.143-4.588-4.416-10.434-3.037-16.274c0.419-1.773,1.056-3.438,1.878-4.972"/>
<circle fill="none" stroke="#000000" stroke-width="4" stroke-linecap="round" stroke-linejoin="round" stroke-miterlimit="10" cx="160.405" cy="420.038" r="4.206"/>
<circle fill="none" stroke="#000000" stroke-width="4" stroke-linecap="round" stroke-linejoin="round" stroke-miterlimit="10" cx="127.973" cy="400.977" r="4.206"/>
<circle fill="none" stroke="#000000" stroke-width="4" stroke-linecap="round" stroke-linejoin="round" stroke-miterlimit="10" cx="155.329" cy="452.188" r="4.206"/>
<g>
	
		<rect x="111.171" y="474.57" transform="matrix(0.1977 -0.9803 0.9803 0.1977 -402.3539 529.2669)" fill="none" stroke="#000000" stroke-width="4" stroke-linecap="round" stroke-linejoin="round" stroke-miterlimit="10" width="22" height="71.75"/>
	
		<rect x="117.837" y="474.57" transform="matrix(0.1977 -0.9803 0.9803 0.1977 -402.3539 529.2669)" fill="none" stroke="#000000" stroke-width="4" stroke-linecap="round" stroke-linejoin="round" stroke-miterlimit="10" width="8.667" height="71.75"/>
	<path fill="none" stroke="#000000" stroke-width="4" stroke-linecap="round" stroke-linejoin="round" stroke-miterlimit="10" d="
		M155.162,528.322l13.909,2.806c3.79,0.765,7.482-1.688,8.246-5.478l1.582-7.842c0.764-3.79-1.688-7.482-5.478-8.246l-13.909-2.806"
		/>
	
		<line fill="none" stroke="#000000" stroke-width="4" stroke-linecap="round" stroke-linejoin="round" stroke-miterlimit="10" x1="163.249" y1="529.954" x2="167.6" y2="508.388"/>
	
		<polygon fill="none" stroke="#000000" stroke-width="4" stroke-linecap="round" stroke-linejoin="round" stroke-miterlimit="10" points="
		89.179,492.569 84.829,514.134 74.572,505.137 76.237,496.886 	"/>
	<polygon stroke="#000000" stroke-width="4" stroke-linecap="round" stroke-linejoin="round" stroke-miterlimit="10" points="
		76.237,496.886 74.572,505.137 68.216,499.561 	"/>
</g>
<circle cx="68.216" cy="424.244" r="3.167"/>
<circle cx="217.811" cy="446.137" r="3.167"/>
<path d="M200.202,399.862c-1.435,0-2.603-1.168-2.603-2.603c0-0.616-0.499-1.115-1.115-1.115c-0.616,0-1.115,0.499-1.115,1.115
	c0,1.435-1.167,2.603-2.603,2.603c-0.616,0-1.115,0.499-1.115,1.115s0.499,1.115,1.115,1.115c1.435,0,2.603,1.167,2.603,2.602
	c0,0.616,0.499,1.115,1.115,1.115c0.616,0,1.115-0.499,1.115-1.115c0-1.435,1.167-2.602,2.603-2.602
	c0.616,0,1.115-0.499,1.115-1.115S200.818,399.862,200.202,399.862z"/>
<path d="M67.1,467.911c-1.435,0-2.603-1.168-2.603-2.603c0-0.616-0.499-1.115-1.115-1.115s-1.115,0.499-1.115,1.115
	c0,1.435-1.167,2.603-2.603,2.603c-0.616,0-1.115,0.499-1.115,1.115c0,0.616,0.499,1.115,1.115,1.115
	c1.435,0,2.603,1.167,2.603,2.602c0,0.616,0.499,1.115,1.115,1.115s1.115-0.499,1.115-1.115c0-1.435,1.167-2.602,2.603-2.602
	c0.616,0,1.115-0.499,1.115-1.115C68.216,468.411,67.716,467.911,67.1,467.911z"/>
<path d="M240.335,483.614c-1.435,0-2.603-1.168-2.603-2.603c0-0.616-0.499-1.115-1.115-1.115c-0.616,0-1.115,0.499-1.115,1.115
	c0,1.435-1.167,2.603-2.603,2.603c-0.616,0-1.115,0.499-1.115,1.115c0,0.616,0.499,1.115,1.115,1.115
	c1.435,0,2.603,1.167,2.603,2.602c0,0.616,0.499,1.115,1.115,1.115c0.616,0,1.115-0.499,1.115-1.115
	c0-1.435,1.167-2.602,2.603-2.602c0.616,0,1.115-0.499,1.115-1.115C241.451,484.114,240.951,483.614,240.335,483.614z"/>
<g>
	
		<path fill="#FFFFFF" stroke="#000000" stroke-width="4" stroke-linecap="round" stroke-linejoin="round" stroke-miterlimit="10" d="
		M-82.149,728.637c-6.854,0-12.851,3.666-16.141,9.143h-112.415l-6.146-10.645h-23.464l-6.355,11.007h23.464l5.377,9.314
		l-5.377,9.314h-23.464l6.355,11.007h23.464l6.146-10.645H-98.29c3.29,5.477,9.287,9.143,16.141,9.143
		c10.393,0,18.818-8.425,18.818-18.818C-63.331,737.062-71.756,728.637-82.149,728.637z"/>
	
		<rect x="-197.747" y="744.311" fill="#FFFFFF" stroke="#000000" stroke-width="4" stroke-linecap="round" stroke-linejoin="round" stroke-miterlimit="10" width="93" height="6.289"/>
	
		<polygon fill="#FFFFFF" stroke="#000000" stroke-width="4" stroke-linecap="round" stroke-linejoin="round" stroke-miterlimit="10" points="
		-87.923,757.455 -93.696,747.455 -87.923,737.455 -76.375,737.455 -70.601,747.455 -76.375,757.455 	"/>
	<path fill="none" stroke="#000000" stroke-width="4" stroke-linecap="round" stroke-linejoin="round" stroke-miterlimit="10" d="
		M-126.639,793.913c3.83-4.668,6.894-26.064,6.894-38.8"/>
	
		<path fill="#FFFFFF" stroke="#000000" stroke-width="4" stroke-linecap="round" stroke-linejoin="round" stroke-miterlimit="10" d="
		M-127.981,729.759c-4.549,0-8.236,0.276-8.236,3.947v21.407c0,3.672,3.687,4.355,8.236,4.355s8.236-0.684,8.236-4.355v-21.407
		C-119.745,730.035-123.433,729.759-127.981,729.759z"/>
	
		<path fill="#FFFFFF" stroke="#000000" stroke-width="4" stroke-linecap="round" stroke-linejoin="round" stroke-miterlimit="10" d="
		M-144.454,723.363c-4.549,0-8.236,0.276-8.236,3.947v27.804c0,3.672,3.687,4.355,8.236,4.355c4.549,0,8.236-0.684,8.236-4.355
		V727.31C-136.217,723.638-139.905,723.363-144.454,723.363z"/>
	
		<path fill="#FFFFFF" stroke="#000000" stroke-width="4" stroke-linecap="round" stroke-linejoin="round" stroke-miterlimit="10" d="
		M-160.926,718.251c-4.549,0-8.236,0.276-8.236,3.947v22.608c0,3.672,3.687,4.355,8.236,4.355c4.549,0,8.236-0.683,8.236-4.355
		v-22.608C-152.69,718.527-156.377,718.251-160.926,718.251z"/>
	
		<path fill="#FFFFFF" stroke="#000000" stroke-width="4" stroke-linecap="round" stroke-linejoin="round" stroke-miterlimit="10" d="
		M-177.398,722.141c-4.549,0-8.236,0.276-8.236,3.947v18.719c0,3.672,3.687,4.355,8.236,4.355c4.549,0,8.236-0.683,8.236-4.355
		v-18.719C-169.162,722.417-172.85,722.141-177.398,722.141z"/>
	
		<path fill="#FFFFFF" stroke="#000000" stroke-width="4" stroke-linecap="round" stroke-linejoin="round" stroke-miterlimit="10" d="
		M-146.914,782.266c-3.983-15.092-13.309-23.5-24.178-23.5l17.487,0c2.603,0,4.714-7.455,4.714-13.959h-36.744v20.775
		c0,12.736,7.743,23.663,18.779,28.331"/>
	
		<line fill="none" stroke="#000000" stroke-width="4" stroke-linecap="round" stroke-linejoin="round" stroke-miterlimit="10" x1="-126.639" y1="793.913" x2="-126.639" y2="823.016"/>
	
		<line fill="none" stroke="#000000" stroke-width="4" stroke-linecap="round" stroke-linejoin="round" stroke-miterlimit="10" x1="-173.877" y1="789.76" x2="-177.398" y2="823.016"/>
	<circle cx="-197.747" cy="715.084" r="3.167"/>
	<circle cx="-207.347" cy="806.388" r="3.167"/>
	<path d="M-194.632,775.402c-1.138,0-2.064-0.926-2.064-2.064c0-0.489-0.396-0.885-0.885-0.885s-0.885,0.396-0.885,0.885
		c0,1.138-0.926,2.064-2.064,2.064c-0.489,0-0.885,0.396-0.885,0.885s0.396,0.885,0.885,0.885c1.138,0,2.064,0.926,2.064,2.064
		c0,0.489,0.396,0.885,0.885,0.885s0.885-0.396,0.885-0.885c0-1.138,0.926-2.064,2.064-2.064c0.489,0,0.885-0.396,0.885-0.885
		S-194.143,775.402-194.632,775.402z"/>
	<path d="M-129.097,700.702c-1.435,0-2.603-1.168-2.603-2.603c0-0.616-0.499-1.115-1.115-1.115s-1.115,0.499-1.115,1.115
		c0,1.435-1.167,2.603-2.603,2.603c-0.616,0-1.115,0.499-1.115,1.115c0,0.616,0.499,1.115,1.115,1.115
		c1.435,0,2.603,1.167,2.603,2.602c0,0.616,0.499,1.115,1.115,1.115s1.115-0.499,1.115-1.115c0-1.435,1.167-2.602,2.603-2.602
		c0.616,0,1.115-0.499,1.115-1.115C-127.981,701.202-128.481,700.702-129.097,700.702z"/>
	<path d="M-97.965,785.042c-1.138,0-2.064-0.926-2.064-2.064c0-0.489-0.396-0.885-0.885-0.885s-0.885,0.396-0.885,0.885
		c0,1.138-0.926,2.064-2.064,2.064c-0.489,0-0.885,0.396-0.885,0.885c0,0.489,0.396,0.885,0.885,0.885
		c1.138,0,2.064,0.926,2.064,2.064c0,0.489,0.396,0.885,0.885,0.885s0.885-0.396,0.885-0.885c0-1.138,0.926-2.064,2.064-2.064
		c0.489,0,0.885-0.396,0.885-0.885C-97.081,785.439-97.477,785.042-97.965,785.042z"/>
</g>
<g>
	<g>
		<path fill="none" stroke="#000000" stroke-width="4" stroke-linecap="round" stroke-linejoin="round" stroke-miterlimit="10" d="
			M-121.921,1062.823c-8.731,3.595-21.211-6.735-29.737-5.708c-8.526,1.027-17.776,6.166-19.317,9.761
			c-0.77,1.798-4.011,7.8-7.395,11.295c-3.04,3.139,2.522,9.244,9.969,6.163c14.894-6.163,9.758-13.026,9.758-13.026l8.78-0.368
			l31.73,32.842l13.158-4.041"/>
		<path fill="none" stroke="#000000" stroke-width="4" stroke-linecap="round" stroke-linejoin="round" stroke-miterlimit="10" d="
			M-122.692,1060.839c0,0,13.481,35.052,17.718,38.903c4.237,3.852,16.178-5.007,16.178-5.007l-18.315-42.37L-122.692,1060.839z"/>
		<path fill="none" stroke="#000000" stroke-width="4" stroke-linecap="round" stroke-linejoin="round" stroke-miterlimit="10" d="
			M-192.412,1058.299c0,0-12.562,32.662-16.51,36.251c-3.948,3.589-15.075-4.666-15.075-4.666l17.066-39.481L-192.412,1058.299z"/>
		<path fill="none" stroke="#000000" stroke-width="4" stroke-linecap="round" stroke-linejoin="round" stroke-miterlimit="10" d="
			M-119.515,1102.218c0.156,0.128,0.322,0.236,0.468,0.382c2.364,2.364,2.364,6.197,0,8.561c-1.975,1.975-4.967,2.276-7.28,0.95
			c1.942,2.378,1.832,5.872-0.385,8.09c-2.364,2.364-6.197,2.364-8.561,0c-0.145-0.145-0.254-0.311-0.381-0.467l-1.176-1.176
			c0.746,2.127,0.289,4.582-1.412,6.283c-2.364,2.364-6.197,2.364-8.561,0c-0.145-0.145-0.254-0.311-0.381-0.467l-2.279-2.279
			c1.11,2.261,0.751,5.06-1.129,6.94c-2.364,2.364-6.197,2.364-8.561,0c-0.145-0.145-0.254-0.311-0.381-0.467l-23.072-21.122
			l-25.598-13.739"/>
		
			<line fill="none" stroke="#000000" stroke-width="4" stroke-linecap="round" stroke-linejoin="round" stroke-miterlimit="10" x1="-126.327" y1="1112.111" x2="-142.983" y2="1095.454"/>
		
			<line fill="none" stroke="#000000" stroke-width="4" stroke-linecap="round" stroke-linejoin="round" stroke-miterlimit="10" x1="-136.83" y1="1118.558" x2="-155" y2="1100.388"/>
		
			<line fill="none" stroke="#000000" stroke-width="4" stroke-linecap="round" stroke-linejoin="round" stroke-miterlimit="10" x1="-149.462" y1="1122.095" x2="-161.187" y2="1110.37"/>
		<g>
			
				<path fill="#FFFFFF" stroke="#000000" stroke-width="4" stroke-linecap="round" stroke-linejoin="round" stroke-miterlimit="10" d="
				M-187.049,1114.354l7.786-7.786c2.242-2.241,2.422-5.696,0.403-7.715c-2.019-2.019-5.473-1.839-7.715,0.403l-7.786,7.786
				c-2.242,2.242-2.422,5.696-0.403,7.715C-192.744,1116.776-189.29,1116.596-187.049,1114.354z"/>
			
				<path fill="#FFFFFF" stroke="#000000" stroke-width="4" stroke-linecap="round" stroke-linejoin="round" stroke-miterlimit="10" d="
				M-177.79,1119.72l3.893-3.893c2.242-2.242,2.422-5.696,0.403-7.715c-2.019-2.019-5.473-1.839-7.715,0.403l-3.893,3.893
				c-2.242,2.242-2.422,5.696-0.403,7.715S-180.031,1121.962-177.79,1119.72z"/>
			
				<path fill="#FFFFFF" stroke="#000000" stroke-width="4" stroke-linecap="round" stroke-linejoin="round" stroke-miterlimit="10" d="
				M-192.414,1105.096l3.893-3.893c2.242-2.242,2.422-5.696,0.403-7.715c-2.019-2.019-5.473-1.839-7.715,0.403l-3.893,3.893
				c-2.242,2.242-2.422,5.696-0.403,7.715S-194.656,1107.337-192.414,1105.096z"/>
			
				<path fill="#FFFFFF" stroke="#000000" stroke-width="4" stroke-linecap="round" stroke-linejoin="round" stroke-miterlimit="10" d="
				M-169.418,1125.973l1.774-1.774c2.242-2.242,2.422-5.696,0.403-7.715c-2.019-2.019-5.473-1.839-7.715,0.403l-1.774,1.774
				c-2.242,2.241-2.422,5.695-0.403,7.715C-175.113,1128.394-171.659,1128.214-169.418,1125.973z"/>
		</g>
		
			<line fill="none" stroke="#000000" stroke-width="4" stroke-linecap="round" stroke-linejoin="round" stroke-miterlimit="10" x1="-162.394" y1="1060.277" x2="-191.252" y2="1059.106"/>
		<path d="M-212.985,1088.954c-1.749,0-3.167-1.418-3.167-3.167s1.418-3.167,3.167-3.167c1.749,0,3.167,1.418,3.167,3.167
			S-211.236,1088.954-212.985,1088.954"/>
		<path d="M-99.735,1093.707c-1.749,0-3.167-1.418-3.167-3.167s1.418-3.167,3.167-3.167s3.167,1.418,3.167,3.167
			S-97.986,1093.707-99.735,1093.707"/>
	</g>
	<path d="M-217.267,1003.406c-1.435,0-2.603-1.168-2.603-2.603c0-0.616-0.499-1.115-1.115-1.115c-0.616,0-1.115,0.499-1.115,1.115
		c0,1.435-1.167,2.603-2.603,2.603c-0.616,0-1.115,0.499-1.115,1.115s0.499,1.115,1.115,1.115c1.435,0,2.603,1.167,2.603,2.602
		c0,0.616,0.499,1.115,1.115,1.115c0.616,0,1.115-0.499,1.115-1.115c0-1.435,1.167-2.602,2.603-2.602
		c0.616,0,1.115-0.499,1.115-1.115S-216.651,1003.406-217.267,1003.406z"/>
	<path d="M-70.58,1037.315c-1.435,0-2.603-1.168-2.603-2.603c0-0.616-0.499-1.115-1.115-1.115c-0.616,0-1.115,0.499-1.115,1.115
		c0,1.435-1.167,2.603-2.603,2.603c-0.616,0-1.115,0.499-1.115,1.115c0,0.616,0.499,1.115,1.115,1.115
		c1.435,0,2.603,1.167,2.603,2.602c0,0.616,0.499,1.115,1.115,1.115c0.616,0,1.115-0.499,1.115-1.115
		c0-1.435,1.167-2.602,2.603-2.602c0.616,0,1.115-0.499,1.115-1.115C-69.465,1037.814-69.964,1037.315-70.58,1037.315z"/>
	<path fill="none" stroke="#000000" stroke-width="4" stroke-linecap="round" stroke-linejoin="round" stroke-miterlimit="10" d="
		M-79.132,1065.095c0-12.499-9.1-22.867-21.035-24.855c-1.477-14.922-14.063-26.579-29.374-26.579c-2.398,0-4.726,0.293-6.958,0.833
		c-3.863-8.962-12.774-15.238-23.153-15.238c-9.681,0-18.083,5.461-22.305,13.468c-0.227-0.007-0.448-0.034-0.676-0.034
		c-11.479,0-20.786,9.306-20.786,20.785c0,1.112,0.113,2.196,0.281,3.261c-1.301-0.22-2.636-0.341-4-0.341
		c-13.158,0-23.824,10.666-23.824,23.824"/>
	
		<line fill="none" stroke="#000000" stroke-width="4" stroke-linecap="round" stroke-linejoin="round" stroke-miterlimit="10" x1="-79.132" y1="1065.095" x2="-59.297" y2="1065.095"/>
	
		<line fill="none" stroke="#000000" stroke-width="4" stroke-linecap="round" stroke-linejoin="round" stroke-miterlimit="10" x1="-230.961" y1="1060.219" x2="-250.703" y2="1060.219"/>
	<path d="M-237.87,1034.149c-1.749,0-3.167-1.418-3.167-3.167s1.418-3.167,3.167-3.167s3.167,1.418,3.167,3.167
		S-236.121,1034.149-237.87,1034.149"/>
	<path d="M-93.402,1023.522c-1.749,0-3.167-1.418-3.167-3.167s1.418-3.167,3.167-3.167s3.167,1.418,3.167,3.167
		S-91.653,1023.522-93.402,1023.522"/>
</g>
<polyline fill="#FFFFFF" stroke="#000000" stroke-width="4" stroke-linecap="round" stroke-linejoin="round" stroke-miterlimit="10" points="
	62.711,1079.116 59.139,1073.055 65.316,1068.481 68.888,1074.542 "/>
<polyline fill="#FFFFFF" stroke="#000000" stroke-width="4" stroke-linecap="round" stroke-linejoin="round" stroke-miterlimit="10" points="
	98.707,1079.116 102.201,1073.133 96.015,1068.549 92.521,1074.532 "/>
<circle cx="60.971" cy="1042.471" r="3.167"/>
<circle cx="206.461" cy="1031.504" r="3.167"/>
<path d="M45.558,1070.858c-1.435,0-2.603-1.168-2.603-2.603c0-0.616-0.499-1.115-1.115-1.115s-1.115,0.499-1.115,1.115
	c0,1.435-1.167,2.603-2.603,2.603c-0.616,0-1.115,0.5-1.115,1.115s0.499,1.115,1.115,1.115c1.435,0,2.603,1.167,2.603,2.602
	c0,0.616,0.499,1.115,1.115,1.115s1.115-0.499,1.115-1.115c0-1.435,1.167-2.602,2.603-2.602c0.616,0,1.115-0.499,1.115-1.115
	S46.174,1070.858,45.558,1070.858z"/>
<path d="M235.522,1041.356c-1.435,0-2.603-1.168-2.603-2.603c0-0.616-0.499-1.115-1.115-1.115c-0.616,0-1.115,0.499-1.115,1.115
	c0,1.435-1.167,2.603-2.603,2.603c-0.616,0-1.115,0.5-1.115,1.115s0.499,1.115,1.115,1.115c1.435,0,2.603,1.167,2.603,2.602
	c0,0.616,0.499,1.115,1.115,1.115c0.616,0,1.115-0.499,1.115-1.115c0-1.435,1.167-2.602,2.603-2.602
	c0.616,0,1.115-0.499,1.115-1.115S236.138,1041.356,235.522,1041.356z"/>
<path d="M122.156,1014.772c-1.435,0-2.603-1.168-2.603-2.603c0-0.616-0.499-1.115-1.115-1.115c-0.616,0-1.115,0.499-1.115,1.115
	c0,1.435-1.167,2.603-2.603,2.603c-0.616,0-1.115,0.499-1.115,1.115c0,0.616,0.499,1.115,1.115,1.115
	c1.435,0,2.603,1.167,2.603,2.602c0,0.616,0.499,1.115,1.115,1.115c0.616,0,1.115-0.499,1.115-1.115
	c0-1.435,1.167-2.602,2.603-2.602c0.616,0,1.115-0.499,1.115-1.115C123.271,1015.272,122.772,1014.772,122.156,1014.772z"/>
<path fill="none" stroke="#000000" stroke-width="4" stroke-linecap="round" stroke-linejoin="round" stroke-miterlimit="10" d="
	M247.239,1064.124c-48.92,0.536-71.326-15.717-98.66-41.717c0,0-48.333,41-60,12c-7.29-18.122-20.805,54.133-9.333,66.333
	c10.105,10.747,43.924,5.824,58.667,6.333c15.774,0.545,46.884,7.551,62.667,7.667
	C265.579,1115.215,277.372,1057.605,247.239,1064.124z"/>
<path fill="none" stroke="#000000" stroke-width="4" stroke-linecap="round" stroke-linejoin="round" stroke-miterlimit="10" d="
	M135.683,1040.745c0,0-42.076,28.047-54.974-0.953"/>
<path fill="none" stroke="#000000" stroke-width="4" stroke-linecap="round" stroke-linejoin="round" stroke-miterlimit="10" d="
	M73.249,1088.323c10.105,10.747,44.679,5.908,59.422,6.417c15.774,0.545,46.884,7.551,62.667,7.667
	c36.882,0.269,58.729-19.289,59.791-38.403"/>
<path fill="none" stroke="#000000" stroke-width="4" stroke-linecap="round" stroke-linejoin="round" stroke-miterlimit="10" d="
	M123.271,1039.124c24.975-3.384,74.308,47.616,93.613,23.067"/>
<path fill="none" stroke="#000000" stroke-width="4" stroke-linecap="round" stroke-linejoin="round" stroke-miterlimit="10" d="
	M221.717,1062.618c28.949,10.114-13.617,16.323-13.617,36.539"/>
<path fill="none" stroke="#000000" stroke-width="4" stroke-linecap="round" stroke-linejoin="round" stroke-miterlimit="10" d="
	M77.069,1055.072c0,0,4.572,27.698,10.111,35.886"/>
<path fill="none" stroke="#000000" stroke-width="4" stroke-linecap="round" stroke-linejoin="round" stroke-miterlimit="10" d="
	M180.446,1054.055c0,0,20.667-9.278,1.969-6.987"/>
<path fill="none" stroke="#000000" stroke-width="4" stroke-linecap="round" stroke-linejoin="round" stroke-miterlimit="10" d="
	M167.394,1046.146c0,0,20.667-9.278,1.969-6.987"/>
<path fill="none" stroke="#000000" stroke-width="4" stroke-linecap="round" stroke-linejoin="round" stroke-miterlimit="10" d="
	M193.497,1061.281c0,0,20.667-9.278,1.969-6.987"/>
<path fill="none" stroke="#000000" stroke-width="4" stroke-linecap="round" stroke-linejoin="round" stroke-miterlimit="10" d="
	M160.926,1033.426l-6.68,5.536c0,0-13.273-3.291-17.94-7.458"/>
<path fill="none" stroke="#000000" stroke-width="4" stroke-linecap="round" stroke-linejoin="round" stroke-miterlimit="10" d="
	M157.645,1078.557c0.952,3.732-9.86,3.279-24.15-1.011c-14.29-4.291-26.645-10.794-27.597-14.526s9.86-3.279,24.15,1.011
	S156.693,1074.825,157.645,1078.557z"/>
<polyline fill="#FFFFFF" stroke="#000000" stroke-width="4" stroke-linecap="round" stroke-linejoin="round" stroke-miterlimit="10" points="
	73.34,1072.999 73.34,1064.124 88.078,1064.124 88.078,1072.999 "/>
<circle fill="#FFFFFF" stroke="#000000" stroke-width="4" stroke-linecap="round" stroke-linejoin="round" stroke-miterlimit="10" cx="80.709" cy="1095.554" r="23.581"/>
<circle fill="#FFFFFF" stroke="#000000" stroke-width="4" stroke-linecap="round" stroke-linejoin="round" stroke-miterlimit="10" cx="80.709" cy="1095.554" r="16.975"/>
<line fill="none" stroke="#000000" stroke-width="4" stroke-linecap="round" stroke-linejoin="round" stroke-miterlimit="10" x1="80.709" y1="1096.156" x2="80.709" y2="1086.338"/>
<line fill="none" stroke="#000000" stroke-width="4" stroke-linecap="round" stroke-linejoin="round" stroke-miterlimit="10" x1="80.709" y1="1096.156" x2="86.245" y2="1102.596"/>
<polygon fill="none" stroke="#000000" stroke-width="4" stroke-linecap="round" stroke-linejoin="round" stroke-miterlimit="10" points="
	177.878,713.614 150,730.328 122.122,713.614 150,696.901 "/>
<path fill="none" stroke="#000000" stroke-width="4" stroke-linecap="round" stroke-linejoin="round" stroke-miterlimit="10" d="
	M113.265,714.033c-10.709,2.061-18.798,11.481-18.798,22.791"/>
<path fill="none" stroke="#000000" stroke-width="4" stroke-linecap="round" stroke-linejoin="round" stroke-miterlimit="10" d="
	M205.533,736.824c0-10.993-7.643-20.202-17.905-22.601"/>
<path fill="none" stroke="#000000" stroke-width="4" stroke-linecap="round" stroke-linejoin="round" stroke-miterlimit="10" d="
	M117.677,750.26c0-2.498-2.025-4.523-4.523-4.523H75.78c-2.498,0-4.523,2.025-4.523,4.523v23.237c0,2.498,2.025,4.523,4.523,4.523
	h37.374c2.498,0,4.523-2.025,4.523-4.523V750.26z"/>
<path fill="none" stroke="#000000" stroke-width="4" stroke-linecap="round" stroke-linejoin="round" stroke-miterlimit="10" d="
	M228.743,750.26c0-2.498-2.025-4.523-4.523-4.523h-37.374c-2.498,0-4.523,2.025-4.523,4.523v23.237c0,2.498,2.025,4.523,4.523,4.523
	h37.374c2.498,0,4.523-2.025,4.523-4.523V750.26z"/>
<polyline fill="none" stroke="#000000" stroke-width="4" stroke-linecap="round" stroke-linejoin="round" stroke-miterlimit="10" points="
	100.279,733.555 94.467,739.367 88.655,733.555 "/>
<polyline fill="none" stroke="#000000" stroke-width="4" stroke-linecap="round" stroke-linejoin="round" stroke-miterlimit="10" points="
	211.345,733.555 205.533,739.367 199.721,733.555 "/>
<polyline fill="none" stroke="#000000" stroke-width="4" stroke-linecap="round" stroke-linejoin="round" stroke-miterlimit="10" points="
	185.593,810.184 179.781,804.372 185.593,798.56 "/>
<path fill="none" stroke="#000000" stroke-width="4" stroke-linecap="round" stroke-linejoin="round" stroke-miterlimit="10" d="
	M117.677,804.372c-11.331,0-20.766-8.12-22.803-18.859"/>
<path fill="none" stroke="#000000" stroke-width="4" stroke-linecap="round" stroke-linejoin="round" stroke-miterlimit="10" d="
	M179.781,804.372c11.331,0,20.766-8.12,22.803-18.859"/>
<polyline fill="none" stroke="#000000" stroke-width="4" stroke-linecap="round" stroke-linejoin="round" stroke-miterlimit="10" points="
	114.407,810.184 120.219,804.372 114.407,798.56 "/>
<circle fill="none" stroke="#000000" stroke-width="4" stroke-linecap="round" stroke-linejoin="round" stroke-miterlimit="10" cx="150" cy="804.372" r="18.727"/>
<circle fill="none" stroke="#000000" stroke-width="4" stroke-linecap="round" stroke-linejoin="round" stroke-miterlimit="10" cx="150" cy="804.372" r="12.018"/>
<line fill="none" stroke="#000000" stroke-width="4" stroke-linecap="round" stroke-linejoin="round" stroke-miterlimit="10" x1="137.263" y1="713.614" x2="162.737" y2="713.614"/>
<line fill="none" stroke="#000000" stroke-width="4" stroke-linecap="round" stroke-linejoin="round" stroke-miterlimit="10" x1="79.699" y1="756.543" x2="109.235" y2="756.543"/>
<line fill="none" stroke="#000000" stroke-width="4" stroke-linecap="round" stroke-linejoin="round" stroke-miterlimit="10" x1="79.699" y1="764.99" x2="97.675" y2="764.99"/>
<path fill="none" stroke="#000000" stroke-width="4" stroke-linecap="round" stroke-linejoin="round" stroke-miterlimit="10" d="
	M214.47,759.851c-0.43-1.982-2.193-3.466-4.304-3.466c-0.831,0-1.607,0.23-2.271,0.63c-0.896-2.001-2.904-3.396-5.238-3.396
	c-3.169,0-5.738,2.569-5.738,5.738c0,0.162,0.008,0.323,0.022,0.482c-0.007,0-0.014-0.001-0.022-0.001
	c-2.433,0-4.405,1.972-4.405,4.405s1.972,4.405,4.405,4.405h17.228c2.433,0,4.405-1.972,4.405-4.405
	C218.552,761.918,216.752,760.016,214.47,759.851z"/>
<path d="M134.439,771.814c-1.749,0-3.167-1.418-3.167-3.167s1.418-3.167,3.167-3.167s3.167,1.418,3.167,3.167
	S136.188,771.814,134.439,771.814"/>
<path d="M172.445,740.543c-1.435,0-2.603-1.168-2.603-2.603c0-0.616-0.499-1.115-1.115-1.115s-1.115,0.499-1.115,1.115
	c0,1.435-1.167,2.603-2.603,2.603c-0.616,0-1.115,0.499-1.115,1.115c0,0.616,0.499,1.115,1.115,1.115
	c1.435,0,2.603,1.167,2.603,2.602c0,0.616,0.499,1.115,1.115,1.115s1.115-0.499,1.115-1.115c0-1.435,1.167-2.602,2.603-2.602
	c0.616,0,1.115-0.499,1.115-1.115C173.561,741.042,173.061,740.543,172.445,740.543z"/>
<path d="M80.843,714.332c-1.435,0-2.603-1.168-2.603-2.603c0-0.616-0.499-1.115-1.115-1.115c-0.616,0-1.115,0.499-1.115,1.115
	c0,1.435-1.167,2.603-2.603,2.603c-0.616,0-1.115,0.499-1.115,1.115c0,0.616,0.499,1.115,1.115,1.115
	c1.435,0,2.603,1.167,2.603,2.602c0,0.616,0.499,1.115,1.115,1.115c0.616,0,1.115-0.499,1.115-1.115
	c0-1.435,1.167-2.602,2.603-2.602c0.616,0,1.115-0.499,1.115-1.115C81.958,714.832,81.459,714.332,80.843,714.332z"/>
<path d="M210.46,811.324c-1.138,0-2.064-0.926-2.064-2.064c0-0.489-0.396-0.885-0.885-0.885c-0.489,0-0.885,0.396-0.885,0.885
	c0,1.138-0.926,2.064-2.064,2.064c-0.489,0-0.885,0.396-0.885,0.885s0.396,0.885,0.885,0.885c1.138,0,2.064,0.926,2.064,2.064
	c0,0.489,0.396,0.885,0.885,0.885c0.489,0,0.885-0.396,0.885-0.885c0-1.138,0.926-2.064,2.064-2.064
	c0.489,0,0.885-0.396,0.885-0.885S210.949,811.324,210.46,811.324z"/>
</svg>
