<?xml version="1.0" encoding="utf-8"?>
<!-- Generator: Adobe Illustrator 17.1.0, SVG Export Plug-In . SVG Version: 6.00 Build 0)  -->
<!DOCTYPE svg PUBLIC "-//W3C//DTD SVG 1.1//EN" "http://www.w3.org/Graphics/SVG/1.1/DTD/svg11.dtd">
<svg version="1.1" id="Layer_1" xmlns="http://www.w3.org/2000/svg" xmlns:xlink="http://www.w3.org/1999/xlink" x="0px" y="0px"
	 viewBox="0 0 300 300" enable-background="new 0 0 300 300" xml:space="preserve">
<g>
	<polyline stroke="#000000" stroke-width="4" stroke-linecap="round" stroke-linejoin="round" stroke-miterlimit="10" points="
		219.354,-773.201 224.983,-773.201 224.983,-692.833 146.533,-692.833 68.082,-692.833 68.082,-773.201 73.712,-773.201 	"/>
	<rect x="71.959" y="-779.453" fill="#FFFFFF" width="150.449" height="84.667"/>
	<g>
		<path fill="none" stroke="#000000" stroke-width="4" stroke-miterlimit="10" d="M130.11-843.745c-9.06-9.06-23.75-9.06-32.81,0
			s-9.06,23.75,0,32.81s23.75,9.06,32.81,0h0.036l32.81-32.81c9.06-9.06,23.75-9.06,32.81,0s9.06,23.75,0,32.81s-23.75,9.06-32.81,0
			"/>
		
			<line fill="none" stroke="#000000" stroke-width="4" stroke-miterlimit="10" x1="130.11" y1="-843.745" x2="137.965" y2="-835.89"/>
		
			<line fill="none" stroke="#000000" stroke-width="4" stroke-miterlimit="10" x1="154.572" y1="-819.282" x2="162.956" y2="-810.935"/>
		<polyline fill="none" stroke="#000000" stroke-width="4" stroke-miterlimit="10" points="137.952,-856.381 137.952,-835.89 
			117.461,-835.89 		"/>
	</g>
	
		<polyline fill="#FFFFFF" stroke="#000000" stroke-width="4" stroke-linecap="round" stroke-linejoin="round" stroke-miterlimit="10" points="
		139.014,-694.786 70.658,-694.786 70.658,-779.453 76.533,-779.453 	"/>
	
		<polyline fill="#FFFFFF" stroke="#000000" stroke-width="4" stroke-linecap="round" stroke-linejoin="round" stroke-miterlimit="10" points="
		154.051,-694.786 222.408,-694.786 222.408,-779.453 216.532,-779.453 	"/>
	
		<line fill="none" stroke="#000000" stroke-width="4" stroke-linecap="round" stroke-linejoin="round" stroke-miterlimit="10" x1="146.533" y1="-779.453" x2="146.533" y2="-694.786"/>
	
		<polygon fill="#FFFFFF" stroke="#000000" stroke-width="4" stroke-linecap="round" stroke-linejoin="round" stroke-miterlimit="10" points="
		116.27,-673.619 106.187,-680.742 96.103,-673.619 96.103,-694.786 116.27,-694.786 	"/>
	
		<path fill="#FFFFFF" stroke="#000000" stroke-width="4" stroke-linecap="round" stroke-linejoin="round" stroke-miterlimit="10" d="
		M146.533-694.786c0-3.324-3.366-6.019-7.519-6.019H76.533v-84.667h62.481c4.153,0,7.519,2.695,7.519,6.019"/>
	
		<line fill="none" stroke="#000000" stroke-width="4" stroke-linecap="round" stroke-linejoin="round" stroke-miterlimit="10" x1="112.068" y1="-760.489" x2="133.556" y2="-760.489"/>
	
		<line fill="none" stroke="#000000" stroke-width="4" stroke-linecap="round" stroke-linejoin="round" stroke-miterlimit="10" x1="112.068" y1="-772.014" x2="133.556" y2="-772.014"/>
	
		<line fill="none" stroke="#000000" stroke-width="4" stroke-linecap="round" stroke-linejoin="round" stroke-miterlimit="10" x1="89.509" y1="-748.963" x2="133.556" y2="-748.963"/>
	
		<line fill="none" stroke="#000000" stroke-width="4" stroke-linecap="round" stroke-linejoin="round" stroke-miterlimit="10" x1="89.509" y1="-737.438" x2="133.556" y2="-737.438"/>
	
		<line fill="none" stroke="#000000" stroke-width="4" stroke-linecap="round" stroke-linejoin="round" stroke-miterlimit="10" x1="89.509" y1="-725.913" x2="133.556" y2="-725.913"/>
	
		<line fill="none" stroke="#000000" stroke-width="4" stroke-linecap="round" stroke-linejoin="round" stroke-miterlimit="10" x1="89.509" y1="-714.387" x2="133.556" y2="-714.387"/>
	
		<rect x="89.509" y="-772.014" fill="none" stroke="#000000" stroke-width="4" stroke-linecap="round" stroke-linejoin="round" stroke-miterlimit="10" width="13.381" height="11.525"/>
	
		<path fill="#FFFFFF" stroke="#000000" stroke-width="4" stroke-linecap="round" stroke-linejoin="round" stroke-miterlimit="10" d="
		M146.533-694.786c0-3.324,3.366-6.019,7.519-6.019h62.481v-84.667h-62.481c-4.153,0-7.519,2.695-7.519,6.019"/>
	
		<line fill="none" stroke="#000000" stroke-width="4" stroke-linecap="round" stroke-linejoin="round" stroke-miterlimit="10" x1="180.997" y1="-748.963" x2="159.509" y2="-748.963"/>
	
		<line fill="none" stroke="#000000" stroke-width="4" stroke-linecap="round" stroke-linejoin="round" stroke-miterlimit="10" x1="180.997" y1="-737.438" x2="159.509" y2="-737.438"/>
	
		<line fill="none" stroke="#000000" stroke-width="4" stroke-linecap="round" stroke-linejoin="round" stroke-miterlimit="10" x1="203.556" y1="-760.489" x2="159.509" y2="-760.489"/>
	
		<line fill="none" stroke="#000000" stroke-width="4" stroke-linecap="round" stroke-linejoin="round" stroke-miterlimit="10" x1="203.556" y1="-772.014" x2="159.509" y2="-772.014"/>
	
		<line fill="none" stroke="#000000" stroke-width="4" stroke-linecap="round" stroke-linejoin="round" stroke-miterlimit="10" x1="159.509" y1="-725.913" x2="203.556" y2="-725.913"/>
	
		<line fill="none" stroke="#000000" stroke-width="4" stroke-linecap="round" stroke-linejoin="round" stroke-miterlimit="10" x1="159.509" y1="-714.387" x2="203.556" y2="-714.387"/>
	
		<rect x="190.175" y="-748.963" fill="none" stroke="#000000" stroke-width="4" stroke-linecap="round" stroke-linejoin="round" stroke-miterlimit="10" width="13.381" height="11.525"/>
	
		<line fill="none" stroke="#000000" stroke-width="4" stroke-linecap="round" stroke-linejoin="round" stroke-miterlimit="10" x1="146.533" y1="-694.786" x2="146.533" y2="-779.453"/>
	<circle cx="213.424" cy="-798.896" r="3.167"/>
	<circle cx="72.915" cy="-846.135" r="3.167"/>
	<path d="M230.959-828.455c-1.435,0-2.603-1.168-2.603-2.603c0-0.616-0.499-1.115-1.115-1.115s-1.115,0.499-1.115,1.115
		c0,1.435-1.167,2.603-2.603,2.603c-0.616,0-1.115,0.499-1.115,1.115c0,0.616,0.499,1.115,1.115,1.115
		c1.435,0,2.603,1.167,2.603,2.602c0,0.616,0.499,1.115,1.115,1.115s1.115-0.499,1.115-1.115c0-1.435,1.167-2.602,2.603-2.602
		c0.616,0,1.115-0.499,1.115-1.115C232.074-827.956,231.575-828.455,230.959-828.455z"/>
	<path d="M76.633-805.255c-1.435,0-2.603-1.168-2.603-2.603c0-0.616-0.499-1.115-1.115-1.115c-0.616,0-1.115,0.499-1.115,1.115
		c0,1.435-1.167,2.603-2.603,2.603c-0.616,0-1.115,0.499-1.115,1.115c0,0.616,0.499,1.115,1.115,1.115
		c1.435,0,2.603,1.167,2.603,2.602c0,0.616,0.499,1.115,1.115,1.115c0.616,0,1.115-0.499,1.115-1.115
		c0-1.435,1.167-2.602,2.603-2.602c0.616,0,1.115-0.499,1.115-1.115C77.749-804.755,77.249-805.255,76.633-805.255z"/>
</g>
<path fill="#FFFFFF" stroke="#000000" stroke-width="4" stroke-linecap="round" stroke-linejoin="round" stroke-miterlimit="10" d="
	M-93.311-771.569c5.046,14.317-1.764,29.765-1.764,29.765s-14.992-7.764-20.038-22.081c-5.046-14.317,1.764-29.765,1.764-29.765
	S-98.358-785.886-93.311-771.569z"/>
<path fill="#FFFFFF" stroke="#000000" stroke-width="4" stroke-linecap="round" stroke-linejoin="round" stroke-miterlimit="10" d="
	M-81.547-784.695c-3.046,2.917-5.995,6.365-8.448,10.377c-9.844,16.104-7.963,35.187-7.963,35.187s17.842-7.026,27.686-23.13
	c4.637-7.586,10.332-15.832,11.188-22.434H-81.547z"/>
<path fill="#FFFFFF" stroke="#000000" stroke-width="4" stroke-linecap="round" stroke-linejoin="round" stroke-miterlimit="10" d="
	M-62.308-768.852c0,0-10.059-4.922-19.238-15.843h22.463C-58.123-775.486-62.308-768.852-62.308-768.852z"/>
<polygon fill="#FFFFFF" stroke="#000000" stroke-width="4" stroke-linecap="round" stroke-linejoin="round" stroke-miterlimit="10" points="
	-71.35,-743.227 -122.742,-743.227 -113.492,-702.727 -80.6,-702.727 "/>
<rect x="-126.492" y="-750.227" fill="#FFFFFF" stroke="#000000" stroke-width="4" stroke-linecap="round" stroke-linejoin="round" stroke-miterlimit="10" width="58.892" height="14"/>
<path fill="#FFFFFF" stroke="#000000" stroke-width="4" stroke-miterlimit="10" d="M-106.559-730.227c0,2.209-1.791,4-4,4h-104
	c-2.209,0-4-1.791-4-4v-75c0-2.209,1.791-4,4-4h104c2.209,0,4,1.791,4,4V-730.227z"/>
<polygon points="-150.842,-725.589 -172.276,-725.589 -176.424,-719.472 -146.694,-719.472 "/>
<polyline fill="none" stroke="#000000" stroke-width="4" stroke-miterlimit="10" points="-147.178,-789.313 -141.169,-783.304 
	-147.081,-777.392 "/>
<polyline fill="none" stroke="#000000" stroke-width="4" stroke-miterlimit="10" points="-193.233,-778.302 -199.242,-784.311 
	-193.33,-790.223 "/>
<line fill="none" stroke="#000000" stroke-width="4" stroke-miterlimit="10" x1="-157.073" y1="-775.074" x2="-151.481" y2="-791.631"/>
<polyline fill="none" stroke="#000000" stroke-width="4" stroke-miterlimit="10" points="-129.884,-766.573 -123.875,-760.564 
	-129.788,-754.652 "/>
<polyline fill="none" stroke="#000000" stroke-width="4" stroke-miterlimit="10" points="-180.49,-754.652 -186.499,-760.661 
	-180.587,-766.573 "/>
<line fill="none" stroke="#000000" stroke-width="4" stroke-miterlimit="10" x1="-139.779" y1="-752.334" x2="-134.187" y2="-768.891"/>
<polygon fill="none" stroke="#000000" stroke-width="4" stroke-linecap="round" stroke-linejoin="round" stroke-miterlimit="10" points="
	-141.292,-707.227 -181.825,-707.227 -173.237,-726.227 -149.881,-726.227 "/>
<line fill="none" stroke="#000000" stroke-width="4" stroke-linecap="round" stroke-linejoin="round" stroke-miterlimit="10" x1="-218.559" y1="-739.131" x2="-106.559" y2="-739.131"/>
<line fill="none" stroke="#000000" stroke-width="4" stroke-miterlimit="10" x1="-186.134" y1="-783.954" x2="-164.289" y2="-783.954"/>
<path fill="none" stroke="#000000" stroke-width="4" stroke-miterlimit="10" d="M-235.559-702.38c0,1.74-1.411,3.151-3.151,3.151
	h-15.557c-1.74,0-3.151-1.411-3.151-3.151v-22.449c0-1.74,1.411-3.151,3.151-3.151h15.557c1.74,0,3.151,1.411,3.151,3.151V-702.38z"
	/>
<path fill="none" stroke="#000000" stroke-width="4" stroke-linecap="round" stroke-linejoin="round" stroke-miterlimit="10" d="
	M-250.426-735.527c-2.913-2.814-2.993-7.456-0.18-10.369c2.814-2.913,2.733-7.556-0.18-10.369"/>
<path fill="none" stroke="#000000" stroke-width="4" stroke-linecap="round" stroke-linejoin="round" stroke-miterlimit="10" d="
	M-242.999-735.527c-2.913-2.814-2.993-7.456-0.18-10.369c2.814-2.913,2.733-7.556-0.18-10.369"/>
<rect x="-218.559" y="-709.977" fill="#FFFFFF" stroke="#000000" stroke-width="4" stroke-linecap="round" stroke-linejoin="round" stroke-miterlimit="10" width="89" height="14.5"/>
<path fill="#FFFFFF" stroke="#000000" stroke-width="4" stroke-linecap="round" stroke-linejoin="round" stroke-miterlimit="10" d="
	M-97.046-700.128c0,3.921-4.259,4.651-9.513,4.651c-5.254,0-9.513-0.73-9.513-4.651s4.259-7.099,9.513-7.099
	C-101.305-707.227-97.046-704.049-97.046-700.128z"/>
<circle cx="-257.417" cy="-783.246" r="3.167"/>
<circle cx="-154.277" cy="-831.356" r="3.167"/>
<path d="M-232.843-818.172c-1.435,0-2.603-1.168-2.603-2.603c0-0.616-0.499-1.115-1.115-1.115c-0.616,0-1.115,0.499-1.115,1.115
	c0,1.435-1.167,2.603-2.603,2.603c-0.616,0-1.115,0.499-1.115,1.115s0.499,1.115,1.115,1.115c1.435,0,2.603,1.167,2.603,2.602
	c0,0.616,0.499,1.115,1.115,1.115c0.616,0,1.115-0.499,1.115-1.115c0-1.435,1.167-2.602,2.603-2.602
	c0.616,0,1.115-0.499,1.115-1.115S-232.228-818.172-232.843-818.172z"/>
<path d="M-74.874-810.342c-1.435,0-2.603-1.168-2.603-2.603c0-0.616-0.499-1.115-1.115-1.115c-0.616,0-1.115,0.499-1.115,1.115
	c0,1.435-1.167,2.603-2.603,2.603c-0.616,0-1.115,0.499-1.115,1.115s0.499,1.115,1.115,1.115c1.435,0,2.603,1.167,2.603,2.602
	c0,0.616,0.499,1.115,1.115,1.115c0.616,0,1.115-0.499,1.115-1.115c0-1.435,1.167-2.602,2.603-2.602
	c0.616,0,1.115-0.499,1.115-1.115S-74.258-810.342-74.874-810.342z"/>
<path d="M-50.532-722.111c-1.435,0-2.603-1.168-2.603-2.603c0-0.616-0.499-1.115-1.115-1.115s-1.115,0.499-1.115,1.115
	c0,1.435-1.167,2.603-2.603,2.603c-0.616,0-1.115,0.499-1.115,1.115s0.499,1.115,1.115,1.115c1.435,0,2.603,1.167,2.603,2.602
	c0,0.616,0.499,1.115,1.115,1.115s1.115-0.499,1.115-1.115c0-1.435,1.167-2.602,2.603-2.602c0.616,0,1.115-0.499,1.115-1.115
	S-49.916-722.111-50.532-722.111z"/>
<line fill="#FFFFFF" stroke="#000000" stroke-width="4" stroke-linecap="round" stroke-linejoin="round" stroke-miterlimit="10" x1="-90.918" y1="-750.227" x2="-77.918" y2="-771.15"/>
<g>
	<path fill="none" stroke="#000000" stroke-width="4" stroke-linecap="round" stroke-linejoin="round" stroke-miterlimit="10" d="
		M-157.911-443.381c-10.671,0-19.351,8.681-19.351,19.351s8.68,19.35,19.351,19.35s19.351-8.68,19.351-19.35
		S-147.24-443.381-157.911-443.381z"/>
	
		<circle stroke="#000000" stroke-width="4" stroke-linecap="round" stroke-linejoin="round" stroke-miterlimit="10" cx="-157.911" cy="-424.03" r="8.632"/>
	
		<circle fill="#FFFFFF" stroke="#000000" stroke-width="4" stroke-linecap="round" stroke-linejoin="round" stroke-miterlimit="10" cx="-144.387" cy="-425.618" r="10.22"/>
	<path fill="none" stroke="#000000" stroke-width="4" stroke-linecap="round" stroke-linejoin="round" stroke-miterlimit="10" d="
		M-111.457-418.57c0,0-20.798,24.811-46.454,24.811s-46.454-24.811-46.454-24.811s20.798-24.811,46.454-24.811
		S-111.457-418.57-111.457-418.57z"/>
	<path fill="none" stroke="#000000" stroke-width="4" stroke-linecap="round" stroke-linejoin="round" stroke-miterlimit="10" d="
		M-199.009-437.835c0,0,18.4-15.667,41.097-15.667s41.097,15.667,41.097,15.667"/>
	
		<line fill="none" stroke="#000000" stroke-width="4" stroke-linecap="round" stroke-linejoin="round" stroke-miterlimit="10" x1="-90.42" y1="-492.203" x2="-115.39" y2="-461.399"/>
	
		<line fill="none" stroke="#000000" stroke-width="4" stroke-linecap="round" stroke-linejoin="round" stroke-miterlimit="10" x1="-203.052" y1="-461.088" x2="-228.274" y2="-492.203"/>
	
		<line fill="none" stroke="#000000" stroke-width="4" stroke-linecap="round" stroke-linejoin="round" stroke-miterlimit="10" x1="-125.771" y1="-522.822" x2="-140.702" y2="-472.37"/>
	
		<line fill="none" stroke="#000000" stroke-width="4" stroke-linecap="round" stroke-linejoin="round" stroke-miterlimit="10" x1="-176.98" y1="-468.952" x2="-193.936" y2="-526.241"/>
	
		<line fill="none" stroke="#000000" stroke-width="4" stroke-linecap="round" stroke-linejoin="round" stroke-miterlimit="10" x1="-159.347" y1="-492.203" x2="-159.347" y2="-522.822"/>
	
		<line fill="none" stroke="#000000" stroke-width="4" stroke-linecap="round" stroke-linejoin="round" stroke-miterlimit="10" x1="-198.255" y1="-484.059" x2="-205.319" y2="-496.549"/>
	
		<line fill="none" stroke="#000000" stroke-width="4" stroke-linecap="round" stroke-linejoin="round" stroke-miterlimit="10" x1="-123.948" y1="-477.435" x2="-115.74" y2="-492.203"/>
	<circle cx="-235.139" cy="-461.088" r="3.167"/>
	<circle cx="-110.481" cy="-510.013" r="3.167"/>
	<circle cx="-97.794" cy="-433.002" r="3.167"/>
	<path d="M-72.81-457.6c-1.435,0-2.603-1.168-2.603-2.603c0-0.616-0.499-1.115-1.115-1.115c-0.616,0-1.115,0.499-1.115,1.115
		c0,1.435-1.167,2.603-2.603,2.603c-0.616,0-1.115,0.499-1.115,1.115c0,0.616,0.499,1.115,1.115,1.115
		c1.435,0,2.603,1.167,2.603,2.602c0,0.616,0.499,1.115,1.115,1.115c0.616,0,1.115-0.499,1.115-1.115
		c0-1.435,1.167-2.602,2.603-2.602c0.616,0,1.115-0.499,1.115-1.115C-71.695-457.101-72.194-457.6-72.81-457.6z"/>
	<path d="M-212.254-517.461c-1.435,0-2.603-1.168-2.603-2.603c0-0.616-0.499-1.115-1.115-1.115s-1.115,0.499-1.115,1.115
		c0,1.435-1.167,2.603-2.603,2.603c-0.616,0-1.115,0.499-1.115,1.115s0.499,1.115,1.115,1.115c1.435,0,2.603,1.167,2.603,2.602
		c0,0.616,0.499,1.115,1.115,1.115s1.115-0.499,1.115-1.115c0-1.435,1.167-2.602,2.603-2.602c0.616,0,1.115-0.499,1.115-1.115
		S-211.638-517.461-212.254-517.461z"/>
	<path d="M-217.087-438.95c-1.435,0-2.603-1.168-2.603-2.603c0-0.616-0.499-1.115-1.115-1.115s-1.115,0.499-1.115,1.115
		c0,1.435-1.167,2.603-2.603,2.603c-0.616,0-1.115,0.499-1.115,1.115s0.499,1.115,1.115,1.115c1.435,0,2.603,1.167,2.603,2.602
		c0,0.616,0.499,1.115,1.115,1.115s1.115-0.499,1.115-1.115c0-1.435,1.167-2.602,2.603-2.602c0.616,0,1.115-0.499,1.115-1.115
		S-216.471-438.95-217.087-438.95z"/>
</g>
<ellipse fill="none" stroke="#000000" stroke-width="4" stroke-linecap="round" stroke-linejoin="round" stroke-miterlimit="10" cx="117.666" cy="-474.691" rx="30.187" ry="14.475"/>
<ellipse fill="none" stroke="#000000" stroke-width="4" stroke-linecap="round" stroke-linejoin="round" stroke-miterlimit="10" cx="117.666" cy="-474.691" rx="14.475" ry="30.187"/>
<ellipse transform="matrix(-0.7071 0.7071 -0.7071 -0.7071 -134.788 -893.5515)" fill="none" stroke="#000000" stroke-width="4" stroke-linecap="round" stroke-linejoin="round" stroke-miterlimit="10" cx="117.667" cy="-474.691" rx="14.475" ry="30.187"/>
<ellipse transform="matrix(-0.7071 -0.7071 0.7071 -0.7071 536.5262 -727.1456)" fill="none" stroke="#000000" stroke-width="4" stroke-linecap="round" stroke-linejoin="round" stroke-miterlimit="10" cx="117.666" cy="-474.691" rx="14.475" ry="30.187"/>
<path fill="#FFFFFF" d="M170.922-521.374c-19.859-19.859-52.056-19.859-71.915,0c-19.859,19.859-19.859,52.056,0,71.915
	c19.859,19.859,52.056,19.859,71.915,0S190.781-501.515,170.922-521.374z M165.955-454.427c-17.115,17.115-44.865,17.115-61.98,0
	c-17.115-17.115-17.115-44.864,0-61.98c17.115-17.115,44.865-17.115,61.98,0C183.07-499.291,183.07-471.542,165.955-454.427z"/>
<circle fill="none" stroke="#000000" stroke-width="4" stroke-linecap="round" stroke-linejoin="round" stroke-miterlimit="10" cx="117.666" cy="-474.691" r="5.961"/>
<circle fill="none" stroke="#000000" stroke-width="4" stroke-linecap="round" stroke-linejoin="round" stroke-miterlimit="10" cx="134.965" cy="-485.416" r="42.398"/>
<circle fill="none" stroke="#000000" stroke-width="4" stroke-linecap="round" stroke-linejoin="round" stroke-miterlimit="10" cx="134.965" cy="-485.416" r="50.851"/>
<polyline fill="none" stroke="#000000" stroke-width="4" stroke-linecap="round" stroke-linejoin="round" stroke-miterlimit="10" points="
	177.033,-456.707 185.141,-448.599 171.781,-435.24 163.673,-443.348 "/>
<path fill="none" stroke="#000000" stroke-width="4" stroke-linecap="round" stroke-linejoin="round" stroke-miterlimit="10" d="
	M223.834-411.429c0.444,0.323,0.868,0.685,1.268,1.086c4.16,4.16,4.16,10.905,0,15.065c-4.16,4.16-10.905,4.16-15.065,0
	c-0.4-0.4-0.762-0.824-1.085-1.268l-34.54-41.324l8.098-8.098L223.834-411.429z"/>
<path fill="none" stroke="#000000" stroke-width="4" stroke-linecap="round" stroke-linejoin="round" stroke-miterlimit="10" d="
	M153.051-502.608c-3.143-4.588-4.416-10.434-3.037-16.274c0.419-1.773,1.056-3.438,1.878-4.972"/>
<circle fill="none" stroke="#000000" stroke-width="4" stroke-linecap="round" stroke-linejoin="round" stroke-miterlimit="10" cx="160.405" cy="-494.962" r="4.206"/>
<circle fill="none" stroke="#000000" stroke-width="4" stroke-linecap="round" stroke-linejoin="round" stroke-miterlimit="10" cx="127.973" cy="-514.023" r="4.206"/>
<circle fill="none" stroke="#000000" stroke-width="4" stroke-linecap="round" stroke-linejoin="round" stroke-miterlimit="10" cx="155.329" cy="-462.812" r="4.206"/>
<g>
	
		<rect x="111.171" y="-440.43" transform="matrix(0.1977 -0.9803 0.9803 0.1977 494.5786 -204.7987)" fill="none" stroke="#000000" stroke-width="4" stroke-linecap="round" stroke-linejoin="round" stroke-miterlimit="10" width="22" height="71.75"/>
	
		<rect x="117.837" y="-440.43" transform="matrix(0.1977 -0.9803 0.9803 0.1977 494.5786 -204.7987)" fill="none" stroke="#000000" stroke-width="4" stroke-linecap="round" stroke-linejoin="round" stroke-miterlimit="10" width="8.667" height="71.75"/>
	<path fill="none" stroke="#000000" stroke-width="4" stroke-linecap="round" stroke-linejoin="round" stroke-miterlimit="10" d="
		M155.162-386.678l13.909,2.806c3.79,0.764,7.482-1.688,8.246-5.478l1.582-7.842c0.764-3.79-1.688-7.482-5.478-8.246l-13.909-2.806"
		/>
	
		<line fill="none" stroke="#000000" stroke-width="4" stroke-linecap="round" stroke-linejoin="round" stroke-miterlimit="10" x1="163.249" y1="-385.046" x2="167.6" y2="-406.612"/>
	
		<polygon fill="none" stroke="#000000" stroke-width="4" stroke-linecap="round" stroke-linejoin="round" stroke-miterlimit="10" points="
		89.179,-422.431 84.829,-400.866 74.572,-409.863 76.237,-418.114 	"/>
	<polygon stroke="#000000" stroke-width="4" stroke-linecap="round" stroke-linejoin="round" stroke-miterlimit="10" points="
		76.237,-418.114 74.572,-409.863 68.216,-415.439 	"/>
</g>
<circle cx="68.216" cy="-490.756" r="3.167"/>
<circle cx="217.811" cy="-468.863" r="3.167"/>
<path d="M200.202-515.138c-1.435,0-2.603-1.168-2.603-2.603c0-0.616-0.499-1.115-1.115-1.115c-0.616,0-1.115,0.499-1.115,1.115
	c0,1.435-1.167,2.603-2.603,2.603c-0.616,0-1.115,0.499-1.115,1.115s0.499,1.115,1.115,1.115c1.435,0,2.603,1.167,2.603,2.602
	c0,0.616,0.499,1.115,1.115,1.115c0.616,0,1.115-0.499,1.115-1.115c0-1.435,1.167-2.602,2.603-2.602
	c0.616,0,1.115-0.499,1.115-1.115S200.818-515.138,200.202-515.138z"/>
<path d="M67.1-447.089c-1.435,0-2.603-1.168-2.603-2.603c0-0.616-0.499-1.115-1.115-1.115s-1.115,0.499-1.115,1.115
	c0,1.435-1.167,2.603-2.603,2.603c-0.616,0-1.115,0.499-1.115,1.115c0,0.616,0.499,1.115,1.115,1.115
	c1.435,0,2.603,1.167,2.603,2.602c0,0.616,0.499,1.115,1.115,1.115s1.115-0.499,1.115-1.115c0-1.435,1.167-2.602,2.603-2.602
	c0.616,0,1.115-0.499,1.115-1.115C68.216-446.589,67.716-447.089,67.1-447.089z"/>
<path d="M240.335-431.386c-1.435,0-2.603-1.168-2.603-2.603c0-0.616-0.499-1.115-1.115-1.115c-0.616,0-1.115,0.499-1.115,1.115
	c0,1.435-1.167,2.603-2.603,2.603c-0.616,0-1.115,0.499-1.115,1.115c0,0.616,0.499,1.115,1.115,1.115
	c1.435,0,2.603,1.167,2.603,2.602c0,0.616,0.499,1.115,1.115,1.115c0.616,0,1.115-0.499,1.115-1.115
	c0-1.435,1.167-2.602,2.603-2.602c0.616,0,1.115-0.499,1.115-1.115C241.451-430.886,240.951-431.386,240.335-431.386z"/>
<g>
	
		<path fill="#FFFFFF" stroke="#000000" stroke-width="4" stroke-linecap="round" stroke-linejoin="round" stroke-miterlimit="10" d="
		M-82.149-186.363c-6.854,0-12.851,3.666-16.141,9.143h-112.415l-6.146-10.645h-23.464l-6.355,11.007h23.464l5.377,9.314
		l-5.377,9.314h-23.464l6.355,11.007h23.464l6.146-10.645H-98.29c3.29,5.477,9.287,9.143,16.141,9.143
		c10.393,0,18.818-8.425,18.818-18.818C-63.331-177.938-71.756-186.363-82.149-186.363z"/>
	
		<rect x="-197.747" y="-170.689" fill="#FFFFFF" stroke="#000000" stroke-width="4" stroke-linecap="round" stroke-linejoin="round" stroke-miterlimit="10" width="93" height="6.289"/>
	
		<polygon fill="#FFFFFF" stroke="#000000" stroke-width="4" stroke-linecap="round" stroke-linejoin="round" stroke-miterlimit="10" points="
		-87.923,-157.545 -93.696,-167.545 -87.923,-177.545 -76.375,-177.545 -70.601,-167.545 -76.375,-157.545 	"/>
	<path fill="none" stroke="#000000" stroke-width="4" stroke-linecap="round" stroke-linejoin="round" stroke-miterlimit="10" d="
		M-126.639-121.087c3.83-4.668,6.894-26.064,6.894-38.8"/>
	
		<path fill="#FFFFFF" stroke="#000000" stroke-width="4" stroke-linecap="round" stroke-linejoin="round" stroke-miterlimit="10" d="
		M-127.981-185.241c-4.549,0-8.236,0.276-8.236,3.947v21.407c0,3.672,3.687,4.355,8.236,4.355s8.236-0.684,8.236-4.355v-21.407
		C-119.745-184.965-123.433-185.241-127.981-185.241z"/>
	
		<path fill="#FFFFFF" stroke="#000000" stroke-width="4" stroke-linecap="round" stroke-linejoin="round" stroke-miterlimit="10" d="
		M-144.454-191.637c-4.549,0-8.236,0.276-8.236,3.947v27.804c0,3.672,3.687,4.355,8.236,4.355c4.549,0,8.236-0.684,8.236-4.355
		v-27.804C-136.217-191.362-139.905-191.637-144.454-191.637z"/>
	
		<path fill="#FFFFFF" stroke="#000000" stroke-width="4" stroke-linecap="round" stroke-linejoin="round" stroke-miterlimit="10" d="
		M-160.926-196.749c-4.549,0-8.236,0.276-8.236,3.947v22.608c0,3.672,3.687,4.355,8.236,4.355c4.549,0,8.236-0.684,8.236-4.355
		v-22.608C-152.69-196.473-156.377-196.749-160.926-196.749z"/>
	
		<path fill="#FFFFFF" stroke="#000000" stroke-width="4" stroke-linecap="round" stroke-linejoin="round" stroke-miterlimit="10" d="
		M-177.398-192.859c-4.549,0-8.236,0.276-8.236,3.947v18.718c0,3.672,3.687,4.355,8.236,4.355c4.549,0,8.236-0.684,8.236-4.355
		v-18.718C-169.162-192.583-172.85-192.859-177.398-192.859z"/>
	
		<path fill="#FFFFFF" stroke="#000000" stroke-width="4" stroke-linecap="round" stroke-linejoin="round" stroke-miterlimit="10" d="
		M-146.914-132.734c-3.983-15.092-13.309-23.5-24.178-23.5l17.487,0c2.603,0,4.714-7.455,4.714-13.959h-36.744v20.775
		c0,12.736,7.743,23.663,18.779,28.331"/>
	
		<line fill="none" stroke="#000000" stroke-width="4" stroke-linecap="round" stroke-linejoin="round" stroke-miterlimit="10" x1="-126.639" y1="-121.087" x2="-126.639" y2="-91.984"/>
	
		<line fill="none" stroke="#000000" stroke-width="4" stroke-linecap="round" stroke-linejoin="round" stroke-miterlimit="10" x1="-173.877" y1="-125.24" x2="-177.398" y2="-91.984"/>
	<circle cx="-197.747" cy="-199.916" r="3.167"/>
	<circle cx="-207.347" cy="-108.612" r="3.167"/>
	<path d="M-194.632-139.598c-1.138,0-2.064-0.926-2.064-2.064c0-0.489-0.396-0.885-0.885-0.885s-0.885,0.396-0.885,0.885
		c0,1.138-0.926,2.064-2.064,2.064c-0.489,0-0.885,0.396-0.885,0.885c0,0.489,0.396,0.885,0.885,0.885
		c1.138,0,2.064,0.926,2.064,2.064c0,0.489,0.396,0.885,0.885,0.885s0.885-0.396,0.885-0.885c0-1.138,0.926-2.064,2.064-2.064
		c0.489,0,0.885-0.396,0.885-0.885C-193.747-139.202-194.143-139.598-194.632-139.598z"/>
	<path d="M-129.097-214.298c-1.435,0-2.603-1.168-2.603-2.603c0-0.616-0.499-1.115-1.115-1.115s-1.115,0.499-1.115,1.115
		c0,1.435-1.167,2.603-2.603,2.603c-0.616,0-1.115,0.499-1.115,1.115c0,0.616,0.499,1.115,1.115,1.115
		c1.435,0,2.603,1.167,2.603,2.602c0,0.616,0.499,1.115,1.115,1.115s1.115-0.499,1.115-1.115c0-1.435,1.167-2.602,2.603-2.602
		c0.616,0,1.115-0.499,1.115-1.115C-127.981-213.798-128.481-214.298-129.097-214.298z"/>
	<path d="M-97.965-129.958c-1.138,0-2.064-0.926-2.064-2.064c0-0.489-0.396-0.885-0.885-0.885s-0.885,0.396-0.885,0.885
		c0,1.138-0.926,2.064-2.064,2.064c-0.489,0-0.885,0.396-0.885,0.885c0,0.489,0.396,0.885,0.885,0.885
		c1.138,0,2.064,0.926,2.064,2.064c0,0.489,0.396,0.885,0.885,0.885s0.885-0.396,0.885-0.885c0-1.138,0.926-2.064,2.064-2.064
		c0.489,0,0.885-0.396,0.885-0.885C-97.081-129.561-97.477-129.958-97.965-129.958z"/>
</g>
<g>
	<g>
		<path fill="none" stroke="#000000" stroke-width="4" stroke-linecap="round" stroke-linejoin="round" stroke-miterlimit="10" d="
			M-121.921,147.823c-8.731,3.595-21.211-6.735-29.737-5.708c-8.526,1.027-17.776,6.166-19.317,9.761
			c-0.77,1.798-4.011,7.8-7.395,11.295c-3.04,3.139,2.522,9.244,9.969,6.163c14.894-6.163,9.758-13.026,9.758-13.026l8.78-0.368
			l31.73,32.842l13.158-4.04"/>
		<path fill="none" stroke="#000000" stroke-width="4" stroke-linecap="round" stroke-linejoin="round" stroke-miterlimit="10" d="
			M-122.692,145.839c0,0,13.481,35.052,17.718,38.903c4.237,3.852,16.178-5.007,16.178-5.007l-18.315-42.37L-122.692,145.839z"/>
		<path fill="none" stroke="#000000" stroke-width="4" stroke-linecap="round" stroke-linejoin="round" stroke-miterlimit="10" d="
			M-192.412,143.299c0,0-12.562,32.662-16.51,36.251c-3.948,3.589-15.075-4.666-15.075-4.666l17.066-39.481L-192.412,143.299z"/>
		<path fill="none" stroke="#000000" stroke-width="4" stroke-linecap="round" stroke-linejoin="round" stroke-miterlimit="10" d="
			M-119.515,187.218c0.156,0.128,0.322,0.236,0.468,0.382c2.364,2.364,2.364,6.197,0,8.561c-1.975,1.975-4.967,2.276-7.28,0.95
			c1.942,2.377,1.832,5.872-0.385,8.09c-2.364,2.364-6.197,2.364-8.561,0c-0.145-0.145-0.254-0.311-0.381-0.467l-1.176-1.176
			c0.746,2.127,0.289,4.582-1.412,6.283c-2.364,2.364-6.197,2.364-8.561,0c-0.145-0.145-0.254-0.311-0.381-0.467l-2.279-2.279
			c1.11,2.261,0.751,5.06-1.129,6.94c-2.364,2.364-6.197,2.364-8.561,0c-0.145-0.145-0.254-0.311-0.381-0.467l-23.072-21.122
			l-25.598-13.739"/>
		
			<line fill="none" stroke="#000000" stroke-width="4" stroke-linecap="round" stroke-linejoin="round" stroke-miterlimit="10" x1="-126.327" y1="197.111" x2="-142.983" y2="180.454"/>
		
			<line fill="none" stroke="#000000" stroke-width="4" stroke-linecap="round" stroke-linejoin="round" stroke-miterlimit="10" x1="-136.83" y1="203.558" x2="-155" y2="185.388"/>
		
			<line fill="none" stroke="#000000" stroke-width="4" stroke-linecap="round" stroke-linejoin="round" stroke-miterlimit="10" x1="-149.462" y1="207.095" x2="-161.187" y2="195.37"/>
		<g>
			
				<path fill="#FFFFFF" stroke="#000000" stroke-width="4" stroke-linecap="round" stroke-linejoin="round" stroke-miterlimit="10" d="
				M-187.049,199.354l7.786-7.786c2.242-2.242,2.422-5.696,0.403-7.715s-5.473-1.839-7.715,0.403l-7.786,7.786
				c-2.242,2.242-2.422,5.695-0.403,7.715S-189.29,201.596-187.049,199.354z"/>
			
				<path fill="#FFFFFF" stroke="#000000" stroke-width="4" stroke-linecap="round" stroke-linejoin="round" stroke-miterlimit="10" d="
				M-177.79,204.72l3.893-3.893c2.242-2.242,2.422-5.696,0.403-7.715s-5.473-1.839-7.715,0.403l-3.893,3.893
				c-2.242,2.242-2.422,5.695-0.403,7.715S-180.031,206.962-177.79,204.72z"/>
			
				<path fill="#FFFFFF" stroke="#000000" stroke-width="4" stroke-linecap="round" stroke-linejoin="round" stroke-miterlimit="10" d="
				M-192.414,190.096l3.893-3.893c2.242-2.242,2.422-5.696,0.403-7.715s-5.473-1.839-7.715,0.403l-3.893,3.893
				c-2.242,2.242-2.422,5.695-0.403,7.715S-194.656,192.337-192.414,190.096z"/>
			
				<path fill="#FFFFFF" stroke="#000000" stroke-width="4" stroke-linecap="round" stroke-linejoin="round" stroke-miterlimit="10" d="
				M-169.418,210.973l1.774-1.773c2.242-2.242,2.422-5.696,0.403-7.715s-5.473-1.839-7.715,0.403l-1.774,1.773
				c-2.242,2.242-2.422,5.695-0.403,7.715S-171.659,213.214-169.418,210.973z"/>
		</g>
		
			<line fill="none" stroke="#000000" stroke-width="4" stroke-linecap="round" stroke-linejoin="round" stroke-miterlimit="10" x1="-162.394" y1="145.277" x2="-191.252" y2="144.106"/>
		<path d="M-212.985,173.954c-1.749,0-3.167-1.418-3.167-3.167s1.418-3.167,3.167-3.167c1.749,0,3.167,1.418,3.167,3.167
			S-211.236,173.954-212.985,173.954"/>
		<path d="M-99.735,178.707c-1.749,0-3.167-1.418-3.167-3.167s1.418-3.167,3.167-3.167s3.167,1.418,3.167,3.167
			S-97.986,178.707-99.735,178.707"/>
	</g>
	<path d="M-217.267,88.406c-1.435,0-2.603-1.168-2.603-2.603c0-0.616-0.499-1.115-1.115-1.115c-0.616,0-1.115,0.499-1.115,1.115
		c0,1.435-1.167,2.603-2.603,2.603c-0.616,0-1.115,0.499-1.115,1.115c0,0.616,0.499,1.115,1.115,1.115
		c1.435,0,2.603,1.167,2.603,2.602c0,0.616,0.499,1.115,1.115,1.115c0.616,0,1.115-0.499,1.115-1.115
		c0-1.435,1.167-2.602,2.603-2.602c0.616,0,1.115-0.499,1.115-1.115C-216.152,88.906-216.651,88.406-217.267,88.406z"/>
	<path d="M-70.58,122.315c-1.435,0-2.603-1.168-2.603-2.603c0-0.616-0.499-1.115-1.115-1.115c-0.616,0-1.115,0.499-1.115,1.115
		c0,1.435-1.167,2.603-2.603,2.603c-0.616,0-1.115,0.499-1.115,1.115c0,0.616,0.499,1.115,1.115,1.115
		c1.435,0,2.603,1.167,2.603,2.602c0,0.616,0.499,1.115,1.115,1.115c0.616,0,1.115-0.499,1.115-1.115
		c0-1.435,1.167-2.602,2.603-2.602c0.616,0,1.115-0.499,1.115-1.115C-69.465,122.814-69.964,122.315-70.58,122.315z"/>
	<path fill="none" stroke="#000000" stroke-width="4" stroke-linecap="round" stroke-linejoin="round" stroke-miterlimit="10" d="
		M-79.132,150.095c0-12.499-9.1-22.867-21.035-24.855c-1.477-14.922-14.063-26.579-29.374-26.579c-2.398,0-4.726,0.293-6.958,0.833
		c-3.863-8.962-12.774-15.238-23.153-15.238c-9.681,0-18.083,5.461-22.305,13.468c-0.227-0.007-0.448-0.034-0.676-0.034
		c-11.479,0-20.786,9.306-20.786,20.785c0,1.112,0.113,2.196,0.281,3.261c-1.301-0.22-2.636-0.341-4-0.341
		c-13.158,0-23.824,10.666-23.824,23.824"/>
	
		<line fill="none" stroke="#000000" stroke-width="4" stroke-linecap="round" stroke-linejoin="round" stroke-miterlimit="10" x1="-79.132" y1="150.095" x2="-59.297" y2="150.095"/>
	
		<line fill="none" stroke="#000000" stroke-width="4" stroke-linecap="round" stroke-linejoin="round" stroke-miterlimit="10" x1="-230.961" y1="145.219" x2="-250.703" y2="145.219"/>
	<path d="M-237.87,119.149c-1.749,0-3.167-1.418-3.167-3.167s1.418-3.167,3.167-3.167s3.167,1.418,3.167,3.167
		S-236.121,119.149-237.87,119.149"/>
	<path d="M-93.402,108.522c-1.749,0-3.167-1.418-3.167-3.167s1.418-3.167,3.167-3.167s3.167,1.418,3.167,3.167
		S-91.653,108.522-93.402,108.522"/>
</g>
<polyline fill="#FFFFFF" stroke="#000000" stroke-width="4" stroke-linecap="round" stroke-linejoin="round" stroke-miterlimit="10" points="
	62.711,164.116 59.139,158.055 65.316,153.481 68.888,159.541 "/>
<polyline fill="#FFFFFF" stroke="#000000" stroke-width="4" stroke-linecap="round" stroke-linejoin="round" stroke-miterlimit="10" points="
	98.707,164.116 102.201,158.133 96.015,153.549 92.521,159.532 "/>
<circle cx="60.971" cy="127.471" r="3.167"/>
<circle cx="206.461" cy="116.504" r="3.167"/>
<path d="M45.558,155.858c-1.435,0-2.603-1.168-2.603-2.603c0-0.616-0.499-1.115-1.115-1.115s-1.115,0.499-1.115,1.115
	c0,1.435-1.167,2.603-2.603,2.603c-0.616,0-1.115,0.499-1.115,1.115c0,0.616,0.499,1.115,1.115,1.115
	c1.435,0,2.603,1.167,2.603,2.602c0,0.616,0.499,1.115,1.115,1.115s1.115-0.499,1.115-1.115c0-1.435,1.167-2.602,2.603-2.602
	c0.616,0,1.115-0.499,1.115-1.115C46.673,156.357,46.174,155.858,45.558,155.858z"/>
<path d="M235.522,126.356c-1.435,0-2.603-1.168-2.603-2.603c0-0.616-0.499-1.115-1.115-1.115c-0.616,0-1.115,0.499-1.115,1.115
	c0,1.435-1.167,2.603-2.603,2.603c-0.616,0-1.115,0.499-1.115,1.115c0,0.616,0.499,1.115,1.115,1.115
	c1.435,0,2.603,1.167,2.603,2.602c0,0.616,0.499,1.115,1.115,1.115c0.616,0,1.115-0.499,1.115-1.115
	c0-1.435,1.167-2.602,2.603-2.602c0.616,0,1.115-0.499,1.115-1.115C236.638,126.855,236.138,126.356,235.522,126.356z"/>
<path d="M122.156,99.772c-1.435,0-2.603-1.168-2.603-2.603c0-0.616-0.499-1.115-1.115-1.115c-0.616,0-1.115,0.499-1.115,1.115
	c0,1.435-1.167,2.603-2.603,2.603c-0.616,0-1.115,0.499-1.115,1.115c0,0.616,0.499,1.115,1.115,1.115
	c1.435,0,2.603,1.167,2.603,2.602c0,0.616,0.499,1.115,1.115,1.115c0.616,0,1.115-0.499,1.115-1.115
	c0-1.435,1.167-2.602,2.603-2.602c0.616,0,1.115-0.499,1.115-1.115C123.271,100.272,122.772,99.772,122.156,99.772z"/>
<path fill="none" stroke="#000000" stroke-width="4" stroke-linecap="round" stroke-linejoin="round" stroke-miterlimit="10" d="
	M247.239,149.124c-48.92,0.536-71.326-15.717-98.66-41.717c0,0-48.333,41-60,12c-7.29-18.122-20.805,54.133-9.333,66.333
	c10.105,10.747,43.924,5.824,58.667,6.333c15.774,0.545,46.884,7.551,62.667,7.667C265.579,200.215,277.372,142.605,247.239,149.124
	z"/>
<path fill="none" stroke="#000000" stroke-width="4" stroke-linecap="round" stroke-linejoin="round" stroke-miterlimit="10" d="
	M135.683,125.745c0,0-42.076,28.047-54.974-0.953"/>
<path fill="none" stroke="#000000" stroke-width="4" stroke-linecap="round" stroke-linejoin="round" stroke-miterlimit="10" d="
	M73.249,173.323c10.105,10.747,44.679,5.908,59.422,6.417c15.774,0.545,46.884,7.551,62.667,7.667
	c36.882,0.269,58.729-19.289,59.791-38.403"/>
<path fill="none" stroke="#000000" stroke-width="4" stroke-linecap="round" stroke-linejoin="round" stroke-miterlimit="10" d="
	M123.271,124.124c24.975-3.384,74.308,47.616,93.613,23.067"/>
<path fill="none" stroke="#000000" stroke-width="4" stroke-linecap="round" stroke-linejoin="round" stroke-miterlimit="10" d="
	M221.717,147.618c28.949,10.114-13.617,16.323-13.617,36.539"/>
<path fill="none" stroke="#000000" stroke-width="4" stroke-linecap="round" stroke-linejoin="round" stroke-miterlimit="10" d="
	M77.069,140.072c0,0,4.572,27.698,10.111,35.886"/>
<path fill="none" stroke="#000000" stroke-width="4" stroke-linecap="round" stroke-linejoin="round" stroke-miterlimit="10" d="
	M180.446,139.055c0,0,20.667-9.278,1.969-6.987"/>
<path fill="none" stroke="#000000" stroke-width="4" stroke-linecap="round" stroke-linejoin="round" stroke-miterlimit="10" d="
	M167.394,131.146c0,0,20.667-9.278,1.969-6.987"/>
<path fill="none" stroke="#000000" stroke-width="4" stroke-linecap="round" stroke-linejoin="round" stroke-miterlimit="10" d="
	M193.497,146.281c0,0,20.667-9.278,1.969-6.987"/>
<path fill="none" stroke="#000000" stroke-width="4" stroke-linecap="round" stroke-linejoin="round" stroke-miterlimit="10" d="
	M160.926,118.426l-6.68,5.536c0,0-13.273-3.291-17.94-7.458"/>
<path fill="none" stroke="#000000" stroke-width="4" stroke-linecap="round" stroke-linejoin="round" stroke-miterlimit="10" d="
	M157.645,163.557c0.952,3.732-9.86,3.279-24.15-1.011c-14.29-4.291-26.645-10.794-27.597-14.527
	c-0.952-3.732,9.86-3.279,24.15,1.011C144.337,153.321,156.693,159.825,157.645,163.557z"/>
<polyline fill="#FFFFFF" stroke="#000000" stroke-width="4" stroke-linecap="round" stroke-linejoin="round" stroke-miterlimit="10" points="
	73.34,157.999 73.34,149.124 88.078,149.124 88.078,157.999 "/>
<circle fill="#FFFFFF" stroke="#000000" stroke-width="4" stroke-linecap="round" stroke-linejoin="round" stroke-miterlimit="10" cx="80.709" cy="180.554" r="23.581"/>
<circle fill="#FFFFFF" stroke="#000000" stroke-width="4" stroke-linecap="round" stroke-linejoin="round" stroke-miterlimit="10" cx="80.709" cy="180.554" r="16.975"/>
<line fill="none" stroke="#000000" stroke-width="4" stroke-linecap="round" stroke-linejoin="round" stroke-miterlimit="10" x1="80.709" y1="181.157" x2="80.709" y2="171.338"/>
<line fill="none" stroke="#000000" stroke-width="4" stroke-linecap="round" stroke-linejoin="round" stroke-miterlimit="10" x1="80.709" y1="181.157" x2="86.245" y2="187.596"/>
<polygon fill="none" stroke="#000000" stroke-width="4" stroke-linecap="round" stroke-linejoin="round" stroke-miterlimit="10" points="
	177.878,-201.386 150,-184.672 122.122,-201.386 150,-218.099 "/>
<path fill="none" stroke="#000000" stroke-width="4" stroke-linecap="round" stroke-linejoin="round" stroke-miterlimit="10" d="
	M113.265-200.967c-10.709,2.061-18.798,11.481-18.798,22.791"/>
<path fill="none" stroke="#000000" stroke-width="4" stroke-linecap="round" stroke-linejoin="round" stroke-miterlimit="10" d="
	M205.533-178.176c0-10.993-7.643-20.202-17.905-22.601"/>
<path fill="none" stroke="#000000" stroke-width="4" stroke-linecap="round" stroke-linejoin="round" stroke-miterlimit="10" d="
	M117.677-164.74c0-2.498-2.025-4.523-4.523-4.523H75.78c-2.498,0-4.523,2.025-4.523,4.523v23.237c0,2.498,2.025,4.523,4.523,4.523
	h37.374c2.498,0,4.523-2.025,4.523-4.523V-164.74z"/>
<path fill="none" stroke="#000000" stroke-width="4" stroke-linecap="round" stroke-linejoin="round" stroke-miterlimit="10" d="
	M228.743-164.74c0-2.498-2.025-4.523-4.523-4.523h-37.374c-2.498,0-4.523,2.025-4.523,4.523v23.237c0,2.498,2.025,4.523,4.523,4.523
	h37.374c2.498,0,4.523-2.025,4.523-4.523V-164.74z"/>
<polyline fill="none" stroke="#000000" stroke-width="4" stroke-linecap="round" stroke-linejoin="round" stroke-miterlimit="10" points="
	100.279,-181.445 94.467,-175.633 88.655,-181.445 "/>
<polyline fill="none" stroke="#000000" stroke-width="4" stroke-linecap="round" stroke-linejoin="round" stroke-miterlimit="10" points="
	211.345,-181.445 205.533,-175.633 199.721,-181.445 "/>
<polyline fill="none" stroke="#000000" stroke-width="4" stroke-linecap="round" stroke-linejoin="round" stroke-miterlimit="10" points="
	185.593,-104.816 179.781,-110.628 185.593,-116.44 "/>
<path fill="none" stroke="#000000" stroke-width="4" stroke-linecap="round" stroke-linejoin="round" stroke-miterlimit="10" d="
	M117.677-110.628c-11.331,0-20.766-8.12-22.803-18.859"/>
<path fill="none" stroke="#000000" stroke-width="4" stroke-linecap="round" stroke-linejoin="round" stroke-miterlimit="10" d="
	M179.781-110.628c11.331,0,20.766-8.12,22.803-18.859"/>
<polyline fill="none" stroke="#000000" stroke-width="4" stroke-linecap="round" stroke-linejoin="round" stroke-miterlimit="10" points="
	114.407,-104.816 120.219,-110.628 114.407,-116.44 "/>
<circle fill="none" stroke="#000000" stroke-width="4" stroke-linecap="round" stroke-linejoin="round" stroke-miterlimit="10" cx="150" cy="-110.628" r="18.727"/>
<circle fill="none" stroke="#000000" stroke-width="4" stroke-linecap="round" stroke-linejoin="round" stroke-miterlimit="10" cx="150" cy="-110.628" r="12.018"/>
<line fill="none" stroke="#000000" stroke-width="4" stroke-linecap="round" stroke-linejoin="round" stroke-miterlimit="10" x1="137.263" y1="-201.386" x2="162.737" y2="-201.386"/>
<line fill="none" stroke="#000000" stroke-width="4" stroke-linecap="round" stroke-linejoin="round" stroke-miterlimit="10" x1="79.699" y1="-158.457" x2="109.235" y2="-158.457"/>
<line fill="none" stroke="#000000" stroke-width="4" stroke-linecap="round" stroke-linejoin="round" stroke-miterlimit="10" x1="79.699" y1="-150.01" x2="97.675" y2="-150.01"/>
<path fill="none" stroke="#000000" stroke-width="4" stroke-linecap="round" stroke-linejoin="round" stroke-miterlimit="10" d="
	M214.47-155.149c-0.43-1.982-2.193-3.466-4.304-3.466c-0.831,0-1.607,0.23-2.271,0.63c-0.896-2.001-2.904-3.396-5.238-3.396
	c-3.169,0-5.738,2.569-5.738,5.738c0,0.162,0.008,0.323,0.022,0.482c-0.007,0-0.014-0.001-0.022-0.001
	c-2.433,0-4.405,1.972-4.405,4.405c0,2.433,1.972,4.405,4.405,4.405h17.228c2.433,0,4.405-1.972,4.405-4.405
	C218.552-153.082,216.752-154.984,214.47-155.149z"/>
<path d="M134.439-143.186c-1.749,0-3.167-1.418-3.167-3.167s1.418-3.167,3.167-3.167s3.167,1.418,3.167,3.167
	S136.188-143.186,134.439-143.186"/>
<path d="M172.445-174.457c-1.435,0-2.603-1.168-2.603-2.603c0-0.616-0.499-1.115-1.115-1.115s-1.115,0.499-1.115,1.115
	c0,1.435-1.167,2.603-2.603,2.603c-0.616,0-1.115,0.499-1.115,1.115c0,0.616,0.499,1.115,1.115,1.115
	c1.435,0,2.603,1.167,2.603,2.602c0,0.616,0.499,1.115,1.115,1.115s1.115-0.499,1.115-1.115c0-1.435,1.167-2.602,2.603-2.602
	c0.616,0,1.115-0.499,1.115-1.115C173.561-173.958,173.061-174.457,172.445-174.457z"/>
<path d="M80.843-200.668c-1.435,0-2.603-1.168-2.603-2.603c0-0.616-0.499-1.115-1.115-1.115c-0.616,0-1.115,0.499-1.115,1.115
	c0,1.435-1.167,2.603-2.603,2.603c-0.616,0-1.115,0.499-1.115,1.115s0.499,1.115,1.115,1.115c1.435,0,2.603,1.167,2.603,2.602
	c0,0.616,0.499,1.115,1.115,1.115c0.616,0,1.115-0.499,1.115-1.115c0-1.435,1.167-2.602,2.603-2.602
	c0.616,0,1.115-0.499,1.115-1.115S81.459-200.668,80.843-200.668z"/>
<path d="M210.46-103.676c-1.138,0-2.064-0.926-2.064-2.064c0-0.489-0.396-0.885-0.885-0.885c-0.489,0-0.885,0.396-0.885,0.885
	c0,1.138-0.926,2.064-2.064,2.064c-0.489,0-0.885,0.396-0.885,0.885c0,0.489,0.396,0.885,0.885,0.885
	c1.138,0,2.064,0.926,2.064,2.064c0,0.489,0.396,0.885,0.885,0.885c0.489,0,0.885-0.396,0.885-0.885
	c0-1.138,0.926-2.064,2.064-2.064c0.489,0,0.885-0.396,0.885-0.885C211.345-103.28,210.949-103.676,210.46-103.676z"/>
</svg>
