<?xml version="1.0" encoding="utf-8"?>
<!-- Generator: Adobe Illustrator 17.1.0, SVG Export Plug-In . SVG Version: 6.00 Build 0)  -->
<!DOCTYPE svg PUBLIC "-//W3C//DTD SVG 1.1//EN" "http://www.w3.org/Graphics/SVG/1.1/DTD/svg11.dtd">
<svg version="1.1" id="Layer_1" xmlns="http://www.w3.org/2000/svg" xmlns:xlink="http://www.w3.org/1999/xlink" x="0px" y="0px"
	 viewBox="0 0 300 300" enable-background="new 0 0 300 300" xml:space="preserve">
<g>
	<polyline stroke="#000000" stroke-width="4" stroke-linecap="round" stroke-linejoin="round" stroke-miterlimit="10" points="
		219.354,-163.201 224.983,-163.201 224.983,-82.833 146.533,-82.833 68.082,-82.833 68.082,-163.201 73.712,-163.201 	"/>
	<rect x="71.959" y="-169.453" fill="#FFFFFF" width="150.449" height="84.667"/>
	<g>
		<path fill="none" stroke="#000000" stroke-width="4" stroke-miterlimit="10" d="M130.11-233.745c-9.06-9.06-23.75-9.06-32.81,0
			c-9.06,9.06-9.06,23.75,0,32.81c9.06,9.06,23.75,9.06,32.81,0h0.036l32.81-32.81c9.06-9.06,23.75-9.06,32.81,0
			c9.06,9.06,9.06,23.75,0,32.81c-9.06,9.06-23.75,9.06-32.81,0"/>
		
			<line fill="none" stroke="#000000" stroke-width="4" stroke-miterlimit="10" x1="130.11" y1="-233.745" x2="137.965" y2="-225.89"/>
		
			<line fill="none" stroke="#000000" stroke-width="4" stroke-miterlimit="10" x1="154.572" y1="-209.282" x2="162.956" y2="-200.935"/>
		<polyline fill="none" stroke="#000000" stroke-width="4" stroke-miterlimit="10" points="137.952,-246.381 137.952,-225.89 
			117.461,-225.89 		"/>
	</g>
	
		<polyline fill="#FFFFFF" stroke="#000000" stroke-width="4" stroke-linecap="round" stroke-linejoin="round" stroke-miterlimit="10" points="
		139.014,-84.786 70.658,-84.786 70.658,-169.453 76.533,-169.453 	"/>
	
		<polyline fill="#FFFFFF" stroke="#000000" stroke-width="4" stroke-linecap="round" stroke-linejoin="round" stroke-miterlimit="10" points="
		154.051,-84.786 222.408,-84.786 222.408,-169.453 216.532,-169.453 	"/>
	
		<line fill="none" stroke="#000000" stroke-width="4" stroke-linecap="round" stroke-linejoin="round" stroke-miterlimit="10" x1="146.533" y1="-169.453" x2="146.533" y2="-84.786"/>
	
		<polygon fill="#FFFFFF" stroke="#000000" stroke-width="4" stroke-linecap="round" stroke-linejoin="round" stroke-miterlimit="10" points="
		116.27,-63.619 106.187,-70.742 96.103,-63.619 96.103,-84.786 116.27,-84.786 	"/>
	
		<path fill="#FFFFFF" stroke="#000000" stroke-width="4" stroke-linecap="round" stroke-linejoin="round" stroke-miterlimit="10" d="
		M146.533-84.786c0-3.324-3.366-6.019-7.519-6.019H76.533v-84.667h62.481c4.153,0,7.519,2.695,7.519,6.019"/>
	
		<line fill="none" stroke="#000000" stroke-width="4" stroke-linecap="round" stroke-linejoin="round" stroke-miterlimit="10" x1="112.068" y1="-150.489" x2="133.556" y2="-150.489"/>
	
		<line fill="none" stroke="#000000" stroke-width="4" stroke-linecap="round" stroke-linejoin="round" stroke-miterlimit="10" x1="112.068" y1="-162.014" x2="133.556" y2="-162.014"/>
	
		<line fill="none" stroke="#000000" stroke-width="4" stroke-linecap="round" stroke-linejoin="round" stroke-miterlimit="10" x1="89.509" y1="-138.963" x2="133.556" y2="-138.963"/>
	
		<line fill="none" stroke="#000000" stroke-width="4" stroke-linecap="round" stroke-linejoin="round" stroke-miterlimit="10" x1="89.509" y1="-127.438" x2="133.556" y2="-127.438"/>
	
		<line fill="none" stroke="#000000" stroke-width="4" stroke-linecap="round" stroke-linejoin="round" stroke-miterlimit="10" x1="89.509" y1="-115.913" x2="133.556" y2="-115.913"/>
	
		<line fill="none" stroke="#000000" stroke-width="4" stroke-linecap="round" stroke-linejoin="round" stroke-miterlimit="10" x1="89.509" y1="-104.387" x2="133.556" y2="-104.387"/>
	
		<rect x="89.509" y="-162.014" fill="none" stroke="#000000" stroke-width="4" stroke-linecap="round" stroke-linejoin="round" stroke-miterlimit="10" width="13.381" height="11.525"/>
	
		<path fill="#FFFFFF" stroke="#000000" stroke-width="4" stroke-linecap="round" stroke-linejoin="round" stroke-miterlimit="10" d="
		M146.533-84.786c0-3.324,3.366-6.019,7.519-6.019h62.481v-84.667h-62.481c-4.153,0-7.519,2.695-7.519,6.019"/>
	
		<line fill="none" stroke="#000000" stroke-width="4" stroke-linecap="round" stroke-linejoin="round" stroke-miterlimit="10" x1="180.997" y1="-138.963" x2="159.509" y2="-138.963"/>
	
		<line fill="none" stroke="#000000" stroke-width="4" stroke-linecap="round" stroke-linejoin="round" stroke-miterlimit="10" x1="180.997" y1="-127.438" x2="159.509" y2="-127.438"/>
	
		<line fill="none" stroke="#000000" stroke-width="4" stroke-linecap="round" stroke-linejoin="round" stroke-miterlimit="10" x1="203.556" y1="-150.489" x2="159.509" y2="-150.489"/>
	
		<line fill="none" stroke="#000000" stroke-width="4" stroke-linecap="round" stroke-linejoin="round" stroke-miterlimit="10" x1="203.556" y1="-162.014" x2="159.509" y2="-162.014"/>
	
		<line fill="none" stroke="#000000" stroke-width="4" stroke-linecap="round" stroke-linejoin="round" stroke-miterlimit="10" x1="159.509" y1="-115.913" x2="203.556" y2="-115.913"/>
	
		<line fill="none" stroke="#000000" stroke-width="4" stroke-linecap="round" stroke-linejoin="round" stroke-miterlimit="10" x1="159.509" y1="-104.387" x2="203.556" y2="-104.387"/>
	
		<rect x="190.175" y="-138.963" fill="none" stroke="#000000" stroke-width="4" stroke-linecap="round" stroke-linejoin="round" stroke-miterlimit="10" width="13.381" height="11.525"/>
	
		<line fill="none" stroke="#000000" stroke-width="4" stroke-linecap="round" stroke-linejoin="round" stroke-miterlimit="10" x1="146.533" y1="-84.786" x2="146.533" y2="-169.453"/>
	<circle cx="213.424" cy="-188.896" r="3.167"/>
	<circle cx="72.915" cy="-236.135" r="3.167"/>
	<path d="M230.959-218.455c-1.435,0-2.603-1.168-2.603-2.603c0-0.616-0.499-1.115-1.115-1.115s-1.115,0.499-1.115,1.115
		c0,1.435-1.167,2.603-2.603,2.603c-0.616,0-1.115,0.499-1.115,1.115s0.499,1.115,1.115,1.115c1.435,0,2.603,1.167,2.603,2.602
		c0,0.616,0.499,1.115,1.115,1.115s1.115-0.499,1.115-1.115c0-1.435,1.167-2.602,2.603-2.602c0.616,0,1.115-0.499,1.115-1.115
		S231.575-218.455,230.959-218.455z"/>
	<path d="M76.633-195.255c-1.435,0-2.603-1.168-2.603-2.603c0-0.616-0.499-1.115-1.115-1.115c-0.616,0-1.115,0.499-1.115,1.115
		c0,1.435-1.167,2.603-2.603,2.603c-0.616,0-1.115,0.499-1.115,1.115c0,0.616,0.499,1.115,1.115,1.115
		c1.435,0,2.603,1.167,2.603,2.602c0,0.616,0.499,1.115,1.115,1.115c0.616,0,1.115-0.499,1.115-1.115
		c0-1.435,1.167-2.602,2.603-2.602c0.616,0,1.115-0.499,1.115-1.115C77.749-194.755,77.249-195.255,76.633-195.255z"/>
</g>
<path fill="#FFFFFF" stroke="#000000" stroke-width="4" stroke-linecap="round" stroke-linejoin="round" stroke-miterlimit="10" d="
	M-93.311-161.569c5.046,14.317-1.764,29.765-1.764,29.765s-14.992-7.764-20.038-22.081s1.764-29.765,1.764-29.765
	S-98.358-175.886-93.311-161.569z"/>
<path fill="#FFFFFF" stroke="#000000" stroke-width="4" stroke-linecap="round" stroke-linejoin="round" stroke-miterlimit="10" d="
	M-81.547-174.695c-3.046,2.917-5.995,6.365-8.448,10.377c-9.844,16.104-7.963,35.187-7.963,35.187s17.842-7.026,27.686-23.13
	c4.637-7.586,10.332-15.832,11.188-22.434H-81.547z"/>
<path fill="#FFFFFF" stroke="#000000" stroke-width="4" stroke-linecap="round" stroke-linejoin="round" stroke-miterlimit="10" d="
	M-62.308-158.852c0,0-10.059-4.922-19.238-15.843h22.463C-58.123-165.486-62.308-158.852-62.308-158.852z"/>
<polygon fill="#FFFFFF" stroke="#000000" stroke-width="4" stroke-linecap="round" stroke-linejoin="round" stroke-miterlimit="10" points="
	-71.35,-133.227 -122.742,-133.227 -113.492,-92.727 -80.6,-92.727 "/>
<rect x="-126.492" y="-140.227" fill="#FFFFFF" stroke="#000000" stroke-width="4" stroke-linecap="round" stroke-linejoin="round" stroke-miterlimit="10" width="58.892" height="14"/>
<path fill="#FFFFFF" stroke="#000000" stroke-width="4" stroke-miterlimit="10" d="M-106.559-120.227c0,2.209-1.791,4-4,4h-104
	c-2.209,0-4-1.791-4-4v-75c0-2.209,1.791-4,4-4h104c2.209,0,4,1.791,4,4V-120.227z"/>
<polygon points="-150.842,-115.589 -172.276,-115.589 -176.424,-109.472 -146.694,-109.472 "/>
<polyline fill="none" stroke="#000000" stroke-width="4" stroke-miterlimit="10" points="-147.178,-179.313 -141.169,-173.304 
	-147.081,-167.392 "/>
<polyline fill="none" stroke="#000000" stroke-width="4" stroke-miterlimit="10" points="-193.233,-168.302 -199.242,-174.311 
	-193.33,-180.223 "/>
<line fill="none" stroke="#000000" stroke-width="4" stroke-miterlimit="10" x1="-157.073" y1="-165.074" x2="-151.481" y2="-181.631"/>
<polyline fill="none" stroke="#000000" stroke-width="4" stroke-miterlimit="10" points="-129.884,-156.573 -123.875,-150.564 
	-129.788,-144.652 "/>
<polyline fill="none" stroke="#000000" stroke-width="4" stroke-miterlimit="10" points="-180.49,-144.652 -186.499,-150.661 
	-180.587,-156.573 "/>
<line fill="none" stroke="#000000" stroke-width="4" stroke-miterlimit="10" x1="-139.779" y1="-142.334" x2="-134.187" y2="-158.89"/>
<polygon fill="none" stroke="#000000" stroke-width="4" stroke-linecap="round" stroke-linejoin="round" stroke-miterlimit="10" points="
	-141.292,-97.227 -181.825,-97.227 -173.237,-116.227 -149.881,-116.227 "/>
<line fill="none" stroke="#000000" stroke-width="4" stroke-linecap="round" stroke-linejoin="round" stroke-miterlimit="10" x1="-218.559" y1="-129.131" x2="-106.559" y2="-129.131"/>
<line fill="none" stroke="#000000" stroke-width="4" stroke-miterlimit="10" x1="-186.134" y1="-173.954" x2="-164.289" y2="-173.954"/>
<path fill="none" stroke="#000000" stroke-width="4" stroke-miterlimit="10" d="M-235.559-92.381c0,1.74-1.411,3.151-3.151,3.151
	h-15.557c-1.74,0-3.151-1.411-3.151-3.151v-22.449c0-1.74,1.411-3.151,3.151-3.151h15.557c1.74,0,3.151,1.411,3.151,3.151V-92.381z"
	/>
<path fill="none" stroke="#000000" stroke-width="4" stroke-linecap="round" stroke-linejoin="round" stroke-miterlimit="10" d="
	M-250.426-125.527c-2.913-2.814-2.993-7.456-0.18-10.369c2.814-2.913,2.733-7.556-0.18-10.369"/>
<path fill="none" stroke="#000000" stroke-width="4" stroke-linecap="round" stroke-linejoin="round" stroke-miterlimit="10" d="
	M-242.999-125.527c-2.913-2.814-2.993-7.456-0.18-10.369c2.814-2.913,2.733-7.556-0.18-10.369"/>
<rect x="-218.559" y="-99.977" fill="#FFFFFF" stroke="#000000" stroke-width="4" stroke-linecap="round" stroke-linejoin="round" stroke-miterlimit="10" width="89" height="14.5"/>
<path fill="#FFFFFF" stroke="#000000" stroke-width="4" stroke-linecap="round" stroke-linejoin="round" stroke-miterlimit="10" d="
	M-97.046-90.128c0,3.921-4.259,4.651-9.513,4.651c-5.254,0-9.513-0.73-9.513-4.651s4.259-7.099,9.513-7.099
	C-101.305-97.227-97.046-94.049-97.046-90.128z"/>
<circle cx="-257.417" cy="-173.246" r="3.167"/>
<circle cx="-154.277" cy="-221.356" r="3.167"/>
<path d="M-232.843-208.172c-1.435,0-2.603-1.168-2.603-2.603c0-0.616-0.499-1.115-1.115-1.115c-0.616,0-1.115,0.499-1.115,1.115
	c0,1.435-1.167,2.603-2.603,2.603c-0.616,0-1.115,0.499-1.115,1.115c0,0.616,0.499,1.115,1.115,1.115
	c1.435,0,2.603,1.167,2.603,2.602c0,0.616,0.499,1.115,1.115,1.115c0.616,0,1.115-0.499,1.115-1.115
	c0-1.435,1.167-2.602,2.603-2.602c0.616,0,1.115-0.499,1.115-1.115C-231.728-207.673-232.228-208.172-232.843-208.172z"/>
<path d="M-74.874-200.342c-1.435,0-2.603-1.168-2.603-2.603c0-0.616-0.499-1.115-1.115-1.115c-0.616,0-1.115,0.499-1.115,1.115
	c0,1.435-1.167,2.603-2.603,2.603c-0.616,0-1.115,0.499-1.115,1.115s0.499,1.115,1.115,1.115c1.435,0,2.603,1.167,2.603,2.602
	c0,0.616,0.499,1.115,1.115,1.115c0.616,0,1.115-0.499,1.115-1.115c0-1.435,1.167-2.602,2.603-2.602
	c0.616,0,1.115-0.499,1.115-1.115S-74.258-200.342-74.874-200.342z"/>
<path d="M-50.532-112.111c-1.435,0-2.603-1.168-2.603-2.603c0-0.616-0.499-1.115-1.115-1.115s-1.115,0.499-1.115,1.115
	c0,1.435-1.167,2.603-2.603,2.603c-0.616,0-1.115,0.499-1.115,1.115c0,0.616,0.499,1.115,1.115,1.115
	c1.435,0,2.603,1.167,2.603,2.602c0,0.616,0.499,1.115,1.115,1.115s1.115-0.499,1.115-1.115c0-1.435,1.167-2.602,2.603-2.602
	c0.616,0,1.115-0.499,1.115-1.115C-49.417-111.611-49.916-112.111-50.532-112.111z"/>
<line fill="#FFFFFF" stroke="#000000" stroke-width="4" stroke-linecap="round" stroke-linejoin="round" stroke-miterlimit="10" x1="-90.918" y1="-140.227" x2="-77.918" y2="-161.15"/>
<g>
	<path fill="none" stroke="#000000" stroke-width="4" stroke-linecap="round" stroke-linejoin="round" stroke-miterlimit="10" d="
		M-157.911,166.619c-10.671,0-19.351,8.681-19.351,19.351c0,10.67,8.68,19.35,19.351,19.35s19.351-8.68,19.351-19.35
		C-138.56,175.3-147.24,166.619-157.911,166.619z"/>
	
		<circle stroke="#000000" stroke-width="4" stroke-linecap="round" stroke-linejoin="round" stroke-miterlimit="10" cx="-157.911" cy="185.97" r="8.632"/>
	
		<circle fill="#FFFFFF" stroke="#000000" stroke-width="4" stroke-linecap="round" stroke-linejoin="round" stroke-miterlimit="10" cx="-144.387" cy="184.382" r="10.22"/>
	<path fill="none" stroke="#000000" stroke-width="4" stroke-linecap="round" stroke-linejoin="round" stroke-miterlimit="10" d="
		M-111.457,191.43c0,0-20.798,24.811-46.454,24.811s-46.454-24.811-46.454-24.811s20.798-24.811,46.454-24.811
		S-111.457,191.43-111.457,191.43z"/>
	<path fill="none" stroke="#000000" stroke-width="4" stroke-linecap="round" stroke-linejoin="round" stroke-miterlimit="10" d="
		M-199.009,172.165c0,0,18.4-15.667,41.097-15.667s41.097,15.667,41.097,15.667"/>
	
		<line fill="none" stroke="#000000" stroke-width="4" stroke-linecap="round" stroke-linejoin="round" stroke-miterlimit="10" x1="-90.42" y1="117.797" x2="-115.39" y2="148.601"/>
	
		<line fill="none" stroke="#000000" stroke-width="4" stroke-linecap="round" stroke-linejoin="round" stroke-miterlimit="10" x1="-203.052" y1="148.912" x2="-228.274" y2="117.797"/>
	
		<line fill="none" stroke="#000000" stroke-width="4" stroke-linecap="round" stroke-linejoin="round" stroke-miterlimit="10" x1="-125.771" y1="87.178" x2="-140.702" y2="137.63"/>
	
		<line fill="none" stroke="#000000" stroke-width="4" stroke-linecap="round" stroke-linejoin="round" stroke-miterlimit="10" x1="-176.98" y1="141.048" x2="-193.936" y2="83.759"/>
	
		<line fill="none" stroke="#000000" stroke-width="4" stroke-linecap="round" stroke-linejoin="round" stroke-miterlimit="10" x1="-159.347" y1="117.797" x2="-159.347" y2="87.178"/>
	
		<line fill="none" stroke="#000000" stroke-width="4" stroke-linecap="round" stroke-linejoin="round" stroke-miterlimit="10" x1="-198.255" y1="125.941" x2="-205.319" y2="113.451"/>
	
		<line fill="none" stroke="#000000" stroke-width="4" stroke-linecap="round" stroke-linejoin="round" stroke-miterlimit="10" x1="-123.948" y1="132.565" x2="-115.74" y2="117.797"/>
	<circle cx="-235.139" cy="148.912" r="3.167"/>
	<circle cx="-110.481" cy="99.987" r="3.167"/>
	<circle cx="-97.794" cy="176.998" r="3.167"/>
	<path d="M-72.81,152.4c-1.435,0-2.603-1.168-2.603-2.603c0-0.616-0.499-1.115-1.115-1.115c-0.616,0-1.115,0.499-1.115,1.115
		c0,1.435-1.167,2.603-2.603,2.603c-0.616,0-1.115,0.499-1.115,1.115s0.499,1.115,1.115,1.115c1.435,0,2.603,1.167,2.603,2.602
		c0,0.616,0.499,1.115,1.115,1.115c0.616,0,1.115-0.499,1.115-1.115c0-1.435,1.167-2.602,2.603-2.602
		c0.616,0,1.115-0.499,1.115-1.115S-72.194,152.4-72.81,152.4z"/>
	<path d="M-212.254,92.539c-1.435,0-2.603-1.168-2.603-2.603c0-0.616-0.499-1.115-1.115-1.115s-1.115,0.499-1.115,1.115
		c0,1.435-1.167,2.603-2.603,2.603c-0.616,0-1.115,0.499-1.115,1.115c0,0.616,0.499,1.115,1.115,1.115
		c1.435,0,2.603,1.167,2.603,2.602c0,0.616,0.499,1.115,1.115,1.115s1.115-0.499,1.115-1.115c0-1.435,1.167-2.602,2.603-2.602
		c0.616,0,1.115-0.499,1.115-1.115C-211.139,93.038-211.638,92.539-212.254,92.539z"/>
	<path d="M-217.087,171.05c-1.435,0-2.603-1.168-2.603-2.603c0-0.616-0.499-1.115-1.115-1.115s-1.115,0.499-1.115,1.115
		c0,1.435-1.167,2.603-2.603,2.603c-0.616,0-1.115,0.499-1.115,1.115s0.499,1.115,1.115,1.115c1.435,0,2.603,1.167,2.603,2.602
		c0,0.616,0.499,1.115,1.115,1.115s1.115-0.499,1.115-1.115c0-1.435,1.167-2.602,2.603-2.602c0.616,0,1.115-0.499,1.115-1.115
		S-216.471,171.05-217.087,171.05z"/>
</g>
<ellipse fill="none" stroke="#000000" stroke-width="4" stroke-linecap="round" stroke-linejoin="round" stroke-miterlimit="10" cx="117.666" cy="135.309" rx="30.187" ry="14.475"/>
<ellipse fill="none" stroke="#000000" stroke-width="4" stroke-linecap="round" stroke-linejoin="round" stroke-miterlimit="10" cx="117.666" cy="135.309" rx="14.475" ry="30.187"/>
<ellipse transform="matrix(-0.7071 0.7071 -0.7071 -0.7071 296.5471 147.7837)" fill="none" stroke="#000000" stroke-width="4" stroke-linecap="round" stroke-linejoin="round" stroke-miterlimit="10" cx="117.667" cy="135.309" rx="14.475" ry="30.187"/>
<ellipse transform="matrix(-0.7071 -0.7071 0.7071 -0.7071 105.1911 314.1896)" fill="none" stroke="#000000" stroke-width="4" stroke-linecap="round" stroke-linejoin="round" stroke-miterlimit="10" cx="117.666" cy="135.309" rx="14.475" ry="30.187"/>
<path fill="#FFFFFF" d="M170.922,88.626c-19.859-19.859-52.056-19.859-71.915,0c-19.859,19.859-19.859,52.056,0,71.915
	c19.859,19.859,52.056,19.859,71.915,0S190.781,108.485,170.922,88.626z M165.955,155.573c-17.115,17.115-44.865,17.115-61.98,0
	c-17.115-17.115-17.115-44.864,0-61.98c17.115-17.115,44.865-17.115,61.98,0C183.07,110.709,183.07,138.458,165.955,155.573z"/>
<circle fill="none" stroke="#000000" stroke-width="4" stroke-linecap="round" stroke-linejoin="round" stroke-miterlimit="10" cx="117.666" cy="135.309" r="5.961"/>
<circle fill="none" stroke="#000000" stroke-width="4" stroke-linecap="round" stroke-linejoin="round" stroke-miterlimit="10" cx="134.965" cy="124.584" r="42.398"/>
<circle fill="none" stroke="#000000" stroke-width="4" stroke-linecap="round" stroke-linejoin="round" stroke-miterlimit="10" cx="134.965" cy="124.584" r="50.851"/>
<polyline fill="none" stroke="#000000" stroke-width="4" stroke-linecap="round" stroke-linejoin="round" stroke-miterlimit="10" points="
	177.033,153.293 185.141,161.401 171.781,174.76 163.673,166.652 "/>
<path fill="none" stroke="#000000" stroke-width="4" stroke-linecap="round" stroke-linejoin="round" stroke-miterlimit="10" d="
	M223.834,198.571c0.444,0.323,0.868,0.685,1.268,1.086c4.16,4.16,4.16,10.905,0,15.065c-4.16,4.16-10.905,4.16-15.065,0
	c-0.4-0.4-0.762-0.824-1.085-1.268l-34.54-41.324l8.098-8.098L223.834,198.571z"/>
<path fill="none" stroke="#000000" stroke-width="4" stroke-linecap="round" stroke-linejoin="round" stroke-miterlimit="10" d="
	M153.051,107.392c-3.143-4.588-4.416-10.434-3.037-16.274c0.419-1.773,1.056-3.438,1.878-4.972"/>
<circle fill="none" stroke="#000000" stroke-width="4" stroke-linecap="round" stroke-linejoin="round" stroke-miterlimit="10" cx="160.405" cy="115.038" r="4.206"/>
<circle fill="none" stroke="#000000" stroke-width="4" stroke-linecap="round" stroke-linejoin="round" stroke-miterlimit="10" cx="127.973" cy="95.977" r="4.206"/>
<circle fill="none" stroke="#000000" stroke-width="4" stroke-linecap="round" stroke-linejoin="round" stroke-miterlimit="10" cx="155.329" cy="147.188" r="4.206"/>
<g>
	
		<rect x="111.171" y="169.57" transform="matrix(0.1977 -0.9803 0.9803 0.1977 -103.3764 284.5783)" fill="none" stroke="#000000" stroke-width="4" stroke-linecap="round" stroke-linejoin="round" stroke-miterlimit="10" width="22" height="71.75"/>
	
		<rect x="117.837" y="169.57" transform="matrix(0.1977 -0.9803 0.9803 0.1977 -103.3764 284.5783)" fill="none" stroke="#000000" stroke-width="4" stroke-linecap="round" stroke-linejoin="round" stroke-miterlimit="10" width="8.667" height="71.75"/>
	<path fill="none" stroke="#000000" stroke-width="4" stroke-linecap="round" stroke-linejoin="round" stroke-miterlimit="10" d="
		M155.162,223.322l13.909,2.806c3.79,0.764,7.482-1.688,8.246-5.478l1.582-7.842c0.764-3.79-1.688-7.482-5.478-8.246l-13.909-2.806"
		/>
	
		<line fill="none" stroke="#000000" stroke-width="4" stroke-linecap="round" stroke-linejoin="round" stroke-miterlimit="10" x1="163.249" y1="224.954" x2="167.6" y2="203.388"/>
	
		<polygon fill="none" stroke="#000000" stroke-width="4" stroke-linecap="round" stroke-linejoin="round" stroke-miterlimit="10" points="
		89.179,187.569 84.829,209.134 74.572,200.137 76.237,191.886 	"/>
	<polygon stroke="#000000" stroke-width="4" stroke-linecap="round" stroke-linejoin="round" stroke-miterlimit="10" points="
		76.237,191.886 74.572,200.137 68.216,194.561 	"/>
</g>
<circle cx="68.216" cy="119.244" r="3.167"/>
<circle cx="217.811" cy="141.137" r="3.167"/>
<path d="M200.202,94.862c-1.435,0-2.603-1.168-2.603-2.603c0-0.616-0.499-1.115-1.115-1.115c-0.616,0-1.115,0.499-1.115,1.115
	c0,1.435-1.167,2.603-2.603,2.603c-0.616,0-1.115,0.499-1.115,1.115c0,0.616,0.499,1.115,1.115,1.115
	c1.435,0,2.603,1.167,2.603,2.602c0,0.616,0.499,1.115,1.115,1.115c0.616,0,1.115-0.499,1.115-1.115
	c0-1.435,1.167-2.602,2.603-2.602c0.616,0,1.115-0.499,1.115-1.115C201.317,95.361,200.818,94.862,200.202,94.862z"/>
<path d="M67.1,162.911c-1.435,0-2.603-1.168-2.603-2.603c0-0.616-0.499-1.115-1.115-1.115s-1.115,0.499-1.115,1.115
	c0,1.435-1.167,2.603-2.603,2.603c-0.616,0-1.115,0.499-1.115,1.115c0,0.616,0.499,1.115,1.115,1.115
	c1.435,0,2.603,1.167,2.603,2.602c0,0.616,0.499,1.115,1.115,1.115s1.115-0.499,1.115-1.115c0-1.435,1.167-2.602,2.603-2.602
	c0.616,0,1.115-0.499,1.115-1.115C68.216,163.411,67.716,162.911,67.1,162.911z"/>
<path d="M240.335,178.614c-1.435,0-2.603-1.168-2.603-2.603c0-0.616-0.499-1.115-1.115-1.115c-0.616,0-1.115,0.499-1.115,1.115
	c0,1.435-1.167,2.603-2.603,2.603c-0.616,0-1.115,0.499-1.115,1.115s0.499,1.115,1.115,1.115c1.435,0,2.603,1.167,2.603,2.602
	c0,0.616,0.499,1.115,1.115,1.115c0.616,0,1.115-0.499,1.115-1.115c0-1.435,1.167-2.602,2.603-2.602
	c0.616,0,1.115-0.499,1.115-1.115S240.951,178.614,240.335,178.614z"/>
<g>
	
		<path fill="#FFFFFF" stroke="#000000" stroke-width="4" stroke-linecap="round" stroke-linejoin="round" stroke-miterlimit="10" d="
		M-82.149,423.637c-6.854,0-12.851,3.666-16.141,9.143h-112.415l-6.146-10.645h-23.464l-6.355,11.007h23.464l5.377,9.314
		l-5.377,9.314h-23.464l6.355,11.007h23.464l6.146-10.645H-98.29c3.29,5.477,9.287,9.143,16.141,9.143
		c10.393,0,18.818-8.425,18.818-18.818C-63.331,432.062-71.756,423.637-82.149,423.637z"/>
	
		<rect x="-197.747" y="439.311" fill="#FFFFFF" stroke="#000000" stroke-width="4" stroke-linecap="round" stroke-linejoin="round" stroke-miterlimit="10" width="93" height="6.289"/>
	
		<polygon fill="#FFFFFF" stroke="#000000" stroke-width="4" stroke-linecap="round" stroke-linejoin="round" stroke-miterlimit="10" points="
		-87.923,452.455 -93.696,442.455 -87.923,432.455 -76.375,432.455 -70.601,442.455 -76.375,452.455 	"/>
	<path fill="none" stroke="#000000" stroke-width="4" stroke-linecap="round" stroke-linejoin="round" stroke-miterlimit="10" d="
		M-126.639,488.913c3.83-4.668,6.894-26.064,6.894-38.8"/>
	
		<path fill="#FFFFFF" stroke="#000000" stroke-width="4" stroke-linecap="round" stroke-linejoin="round" stroke-miterlimit="10" d="
		M-127.981,424.759c-4.549,0-8.236,0.276-8.236,3.947v21.407c0,3.672,3.687,4.355,8.236,4.355s8.236-0.684,8.236-4.355v-21.407
		C-119.745,425.035-123.433,424.759-127.981,424.759z"/>
	
		<path fill="#FFFFFF" stroke="#000000" stroke-width="4" stroke-linecap="round" stroke-linejoin="round" stroke-miterlimit="10" d="
		M-144.454,418.363c-4.549,0-8.236,0.276-8.236,3.947v27.804c0,3.672,3.687,4.355,8.236,4.355c4.549,0,8.236-0.684,8.236-4.355
		V422.31C-136.217,418.638-139.905,418.363-144.454,418.363z"/>
	
		<path fill="#FFFFFF" stroke="#000000" stroke-width="4" stroke-linecap="round" stroke-linejoin="round" stroke-miterlimit="10" d="
		M-160.926,413.251c-4.549,0-8.236,0.276-8.236,3.947v22.608c0,3.672,3.687,4.355,8.236,4.355c4.549,0,8.236-0.684,8.236-4.355
		v-22.608C-152.69,413.527-156.377,413.251-160.926,413.251z"/>
	
		<path fill="#FFFFFF" stroke="#000000" stroke-width="4" stroke-linecap="round" stroke-linejoin="round" stroke-miterlimit="10" d="
		M-177.398,417.141c-4.549,0-8.236,0.276-8.236,3.947v18.719c0,3.672,3.687,4.355,8.236,4.355c4.549,0,8.236-0.684,8.236-4.355
		v-18.719C-169.162,417.417-172.85,417.141-177.398,417.141z"/>
	
		<path fill="#FFFFFF" stroke="#000000" stroke-width="4" stroke-linecap="round" stroke-linejoin="round" stroke-miterlimit="10" d="
		M-146.914,477.266c-3.983-15.092-13.309-23.5-24.178-23.5l17.487,0c2.603,0,4.714-7.455,4.714-13.959h-36.744v20.775
		c0,12.736,7.743,23.663,18.779,28.331"/>
	
		<line fill="none" stroke="#000000" stroke-width="4" stroke-linecap="round" stroke-linejoin="round" stroke-miterlimit="10" x1="-126.639" y1="488.913" x2="-126.639" y2="518.016"/>
	
		<line fill="none" stroke="#000000" stroke-width="4" stroke-linecap="round" stroke-linejoin="round" stroke-miterlimit="10" x1="-173.877" y1="484.76" x2="-177.398" y2="518.016"/>
	<circle cx="-197.747" cy="410.084" r="3.167"/>
	<circle cx="-207.347" cy="501.388" r="3.167"/>
	<path d="M-194.632,470.402c-1.138,0-2.064-0.926-2.064-2.064c0-0.489-0.396-0.885-0.885-0.885s-0.885,0.396-0.885,0.885
		c0,1.138-0.926,2.064-2.064,2.064c-0.489,0-0.885,0.396-0.885,0.885c0,0.489,0.396,0.885,0.885,0.885
		c1.138,0,2.064,0.926,2.064,2.064c0,0.489,0.396,0.885,0.885,0.885s0.885-0.396,0.885-0.885c0-1.138,0.926-2.064,2.064-2.064
		c0.489,0,0.885-0.396,0.885-0.885C-193.747,470.798-194.143,470.402-194.632,470.402z"/>
	<path d="M-129.097,395.702c-1.435,0-2.603-1.168-2.603-2.603c0-0.616-0.499-1.115-1.115-1.115s-1.115,0.499-1.115,1.115
		c0,1.435-1.167,2.603-2.603,2.603c-0.616,0-1.115,0.499-1.115,1.115c0,0.616,0.499,1.115,1.115,1.115
		c1.435,0,2.603,1.167,2.603,2.602c0,0.616,0.499,1.115,1.115,1.115s1.115-0.499,1.115-1.115c0-1.435,1.167-2.602,2.603-2.602
		c0.616,0,1.115-0.499,1.115-1.115C-127.981,396.202-128.481,395.702-129.097,395.702z"/>
	<path d="M-97.965,480.042c-1.138,0-2.064-0.926-2.064-2.064c0-0.489-0.396-0.885-0.885-0.885s-0.885,0.396-0.885,0.885
		c0,1.138-0.926,2.064-2.064,2.064c-0.489,0-0.885,0.396-0.885,0.885s0.396,0.885,0.885,0.885c1.138,0,2.064,0.926,2.064,2.064
		c0,0.489,0.396,0.885,0.885,0.885s0.885-0.396,0.885-0.885c0-1.138,0.926-2.064,2.064-2.064c0.489,0,0.885-0.396,0.885-0.885
		S-97.477,480.042-97.965,480.042z"/>
</g>
<g>
	<g>
		<path fill="none" stroke="#000000" stroke-width="4" stroke-linecap="round" stroke-linejoin="round" stroke-miterlimit="10" d="
			M-121.921,757.823c-8.731,3.595-21.211-6.735-29.737-5.708c-8.526,1.027-17.776,6.166-19.317,9.761
			c-0.77,1.797-4.011,7.8-7.395,11.295c-3.04,3.139,2.522,9.244,9.969,6.163c14.894-6.163,9.758-13.026,9.758-13.026l8.78-0.368
			l31.73,32.842l13.158-4.04"/>
		<path fill="none" stroke="#000000" stroke-width="4" stroke-linecap="round" stroke-linejoin="round" stroke-miterlimit="10" d="
			M-122.692,755.839c0,0,13.481,35.052,17.718,38.903c4.237,3.852,16.178-5.007,16.178-5.007l-18.315-42.37L-122.692,755.839z"/>
		<path fill="none" stroke="#000000" stroke-width="4" stroke-linecap="round" stroke-linejoin="round" stroke-miterlimit="10" d="
			M-192.412,753.299c0,0-12.562,32.662-16.51,36.251c-3.948,3.589-15.075-4.666-15.075-4.666l17.066-39.481L-192.412,753.299z"/>
		<path fill="none" stroke="#000000" stroke-width="4" stroke-linecap="round" stroke-linejoin="round" stroke-miterlimit="10" d="
			M-119.515,797.218c0.156,0.128,0.322,0.236,0.468,0.382c2.364,2.364,2.364,6.197,0,8.561c-1.975,1.975-4.967,2.276-7.28,0.95
			c1.942,2.377,1.832,5.872-0.385,8.09c-2.364,2.364-6.197,2.364-8.561,0c-0.145-0.145-0.254-0.311-0.381-0.467l-1.176-1.176
			c0.746,2.127,0.289,4.582-1.412,6.283c-2.364,2.364-6.197,2.364-8.561,0c-0.145-0.145-0.254-0.311-0.381-0.467l-2.279-2.279
			c1.11,2.261,0.751,5.06-1.129,6.94c-2.364,2.364-6.197,2.364-8.561,0c-0.145-0.145-0.254-0.311-0.381-0.467l-23.072-21.122
			l-25.598-13.739"/>
		
			<line fill="none" stroke="#000000" stroke-width="4" stroke-linecap="round" stroke-linejoin="round" stroke-miterlimit="10" x1="-126.327" y1="807.111" x2="-142.983" y2="790.454"/>
		
			<line fill="none" stroke="#000000" stroke-width="4" stroke-linecap="round" stroke-linejoin="round" stroke-miterlimit="10" x1="-136.83" y1="813.558" x2="-155" y2="795.388"/>
		
			<line fill="none" stroke="#000000" stroke-width="4" stroke-linecap="round" stroke-linejoin="round" stroke-miterlimit="10" x1="-149.462" y1="817.095" x2="-161.187" y2="805.37"/>
		<g>
			
				<path fill="#FFFFFF" stroke="#000000" stroke-width="4" stroke-linecap="round" stroke-linejoin="round" stroke-miterlimit="10" d="
				M-187.049,809.354l7.786-7.786c2.242-2.242,2.422-5.696,0.403-7.715s-5.473-1.839-7.715,0.403l-7.786,7.786
				c-2.242,2.242-2.422,5.695-0.403,7.715C-192.744,811.776-189.29,811.596-187.049,809.354z"/>
			
				<path fill="#FFFFFF" stroke="#000000" stroke-width="4" stroke-linecap="round" stroke-linejoin="round" stroke-miterlimit="10" d="
				M-177.79,814.72l3.893-3.893c2.242-2.242,2.422-5.696,0.403-7.715c-2.019-2.019-5.473-1.839-7.715,0.403l-3.893,3.893
				c-2.242,2.242-2.422,5.695-0.403,7.715S-180.031,816.962-177.79,814.72z"/>
			
				<path fill="#FFFFFF" stroke="#000000" stroke-width="4" stroke-linecap="round" stroke-linejoin="round" stroke-miterlimit="10" d="
				M-192.414,800.096l3.893-3.893c2.242-2.242,2.422-5.696,0.403-7.715c-2.019-2.019-5.473-1.839-7.715,0.403l-3.893,3.893
				c-2.242,2.242-2.422,5.695-0.403,7.715S-194.656,802.337-192.414,800.096z"/>
			
				<path fill="#FFFFFF" stroke="#000000" stroke-width="4" stroke-linecap="round" stroke-linejoin="round" stroke-miterlimit="10" d="
				M-169.418,820.973l1.774-1.773c2.242-2.242,2.422-5.696,0.403-7.715c-2.019-2.019-5.473-1.839-7.715,0.403l-1.774,1.773
				c-2.242,2.242-2.422,5.695-0.403,7.715S-171.659,823.214-169.418,820.973z"/>
		</g>
		
			<line fill="none" stroke="#000000" stroke-width="4" stroke-linecap="round" stroke-linejoin="round" stroke-miterlimit="10" x1="-162.394" y1="755.277" x2="-191.252" y2="754.106"/>
		<path d="M-212.985,783.954c-1.749,0-3.167-1.418-3.167-3.167s1.418-3.167,3.167-3.167c1.749,0,3.167,1.418,3.167,3.167
			S-211.236,783.954-212.985,783.954"/>
		<path d="M-99.735,788.707c-1.749,0-3.167-1.418-3.167-3.167s1.418-3.167,3.167-3.167s3.167,1.418,3.167,3.167
			S-97.986,788.707-99.735,788.707"/>
	</g>
	<path d="M-217.267,698.406c-1.435,0-2.603-1.168-2.603-2.603c0-0.616-0.499-1.115-1.115-1.115c-0.616,0-1.115,0.499-1.115,1.115
		c0,1.435-1.167,2.603-2.603,2.603c-0.616,0-1.115,0.499-1.115,1.115s0.499,1.115,1.115,1.115c1.435,0,2.603,1.167,2.603,2.602
		c0,0.616,0.499,1.115,1.115,1.115c0.616,0,1.115-0.499,1.115-1.115c0-1.435,1.167-2.602,2.603-2.602
		c0.616,0,1.115-0.499,1.115-1.115S-216.651,698.406-217.267,698.406z"/>
	<path d="M-70.58,732.315c-1.435,0-2.603-1.168-2.603-2.603c0-0.616-0.499-1.115-1.115-1.115c-0.616,0-1.115,0.499-1.115,1.115
		c0,1.435-1.167,2.603-2.603,2.603c-0.616,0-1.115,0.499-1.115,1.115s0.499,1.115,1.115,1.115c1.435,0,2.603,1.167,2.603,2.602
		c0,0.616,0.499,1.115,1.115,1.115c0.616,0,1.115-0.499,1.115-1.115c0-1.435,1.167-2.602,2.603-2.602
		c0.616,0,1.115-0.499,1.115-1.115S-69.964,732.315-70.58,732.315z"/>
	<path fill="none" stroke="#000000" stroke-width="4" stroke-linecap="round" stroke-linejoin="round" stroke-miterlimit="10" d="
		M-79.132,760.095c0-12.499-9.1-22.867-21.035-24.855c-1.477-14.922-14.063-26.579-29.374-26.579c-2.398,0-4.726,0.293-6.958,0.833
		c-3.863-8.962-12.774-15.238-23.153-15.238c-9.681,0-18.083,5.461-22.305,13.468c-0.227-0.007-0.448-0.034-0.676-0.034
		c-11.479,0-20.786,9.306-20.786,20.785c0,1.112,0.113,2.196,0.281,3.261c-1.301-0.22-2.636-0.341-4-0.341
		c-13.158,0-23.824,10.666-23.824,23.824"/>
	
		<line fill="none" stroke="#000000" stroke-width="4" stroke-linecap="round" stroke-linejoin="round" stroke-miterlimit="10" x1="-79.132" y1="760.095" x2="-59.297" y2="760.095"/>
	
		<line fill="none" stroke="#000000" stroke-width="4" stroke-linecap="round" stroke-linejoin="round" stroke-miterlimit="10" x1="-230.961" y1="755.219" x2="-250.703" y2="755.219"/>
	<path d="M-237.87,729.149c-1.749,0-3.167-1.418-3.167-3.167s1.418-3.167,3.167-3.167s3.167,1.418,3.167,3.167
		S-236.121,729.149-237.87,729.149"/>
	<path d="M-93.402,718.522c-1.749,0-3.167-1.418-3.167-3.167s1.418-3.167,3.167-3.167s3.167,1.418,3.167,3.167
		S-91.653,718.522-93.402,718.522"/>
</g>
<polyline fill="#FFFFFF" stroke="#000000" stroke-width="4" stroke-linecap="round" stroke-linejoin="round" stroke-miterlimit="10" points="
	62.711,774.116 59.139,768.055 65.316,763.481 68.888,769.542 "/>
<polyline fill="#FFFFFF" stroke="#000000" stroke-width="4" stroke-linecap="round" stroke-linejoin="round" stroke-miterlimit="10" points="
	98.707,774.116 102.201,768.133 96.015,763.549 92.521,769.532 "/>
<circle cx="60.971" cy="737.471" r="3.167"/>
<circle cx="206.461" cy="726.504" r="3.167"/>
<path d="M45.558,765.858c-1.435,0-2.603-1.168-2.603-2.603c0-0.616-0.499-1.115-1.115-1.115s-1.115,0.499-1.115,1.115
	c0,1.435-1.167,2.603-2.603,2.603c-0.616,0-1.115,0.499-1.115,1.115c0,0.616,0.499,1.115,1.115,1.115
	c1.435,0,2.603,1.167,2.603,2.602c0,0.616,0.499,1.115,1.115,1.115s1.115-0.499,1.115-1.115c0-1.435,1.167-2.602,2.603-2.602
	c0.616,0,1.115-0.499,1.115-1.115C46.673,766.357,46.174,765.858,45.558,765.858z"/>
<path d="M235.522,736.356c-1.435,0-2.603-1.168-2.603-2.603c0-0.616-0.499-1.115-1.115-1.115c-0.616,0-1.115,0.499-1.115,1.115
	c0,1.435-1.167,2.603-2.603,2.603c-0.616,0-1.115,0.499-1.115,1.115s0.499,1.115,1.115,1.115c1.435,0,2.603,1.167,2.603,2.602
	c0,0.616,0.499,1.115,1.115,1.115c0.616,0,1.115-0.499,1.115-1.115c0-1.435,1.167-2.602,2.603-2.602
	c0.616,0,1.115-0.499,1.115-1.115S236.138,736.356,235.522,736.356z"/>
<path d="M122.156,709.772c-1.435,0-2.603-1.168-2.603-2.603c0-0.616-0.499-1.115-1.115-1.115c-0.616,0-1.115,0.499-1.115,1.115
	c0,1.435-1.167,2.603-2.603,2.603c-0.616,0-1.115,0.499-1.115,1.115c0,0.616,0.499,1.115,1.115,1.115
	c1.435,0,2.603,1.167,2.603,2.602c0,0.616,0.499,1.115,1.115,1.115c0.616,0,1.115-0.499,1.115-1.115
	c0-1.435,1.167-2.602,2.603-2.602c0.616,0,1.115-0.499,1.115-1.115C123.271,710.272,122.772,709.772,122.156,709.772z"/>
<path fill="none" stroke="#000000" stroke-width="4" stroke-linecap="round" stroke-linejoin="round" stroke-miterlimit="10" d="
	M247.239,759.124c-48.92,0.536-71.326-15.717-98.66-41.717c0,0-48.333,41-60,12c-7.29-18.122-20.805,54.133-9.333,66.333
	c10.105,10.747,43.924,5.824,58.667,6.333c15.774,0.545,46.884,7.551,62.667,7.667C265.579,810.215,277.372,752.605,247.239,759.124
	z"/>
<path fill="none" stroke="#000000" stroke-width="4" stroke-linecap="round" stroke-linejoin="round" stroke-miterlimit="10" d="
	M135.683,735.745c0,0-42.076,28.047-54.974-0.953"/>
<path fill="none" stroke="#000000" stroke-width="4" stroke-linecap="round" stroke-linejoin="round" stroke-miterlimit="10" d="
	M73.249,783.323c10.105,10.747,44.679,5.908,59.422,6.417c15.774,0.545,46.884,7.551,62.667,7.667
	c36.882,0.269,58.729-19.289,59.791-38.403"/>
<path fill="none" stroke="#000000" stroke-width="4" stroke-linecap="round" stroke-linejoin="round" stroke-miterlimit="10" d="
	M123.271,734.124c24.975-3.384,74.308,47.616,93.613,23.067"/>
<path fill="none" stroke="#000000" stroke-width="4" stroke-linecap="round" stroke-linejoin="round" stroke-miterlimit="10" d="
	M221.717,757.618c28.949,10.114-13.617,16.323-13.617,36.539"/>
<path fill="none" stroke="#000000" stroke-width="4" stroke-linecap="round" stroke-linejoin="round" stroke-miterlimit="10" d="
	M77.069,750.072c0,0,4.572,27.698,10.111,35.886"/>
<path fill="none" stroke="#000000" stroke-width="4" stroke-linecap="round" stroke-linejoin="round" stroke-miterlimit="10" d="
	M180.446,749.055c0,0,20.667-9.278,1.969-6.987"/>
<path fill="none" stroke="#000000" stroke-width="4" stroke-linecap="round" stroke-linejoin="round" stroke-miterlimit="10" d="
	M167.394,741.146c0,0,20.667-9.278,1.969-6.987"/>
<path fill="none" stroke="#000000" stroke-width="4" stroke-linecap="round" stroke-linejoin="round" stroke-miterlimit="10" d="
	M193.497,756.281c0,0,20.667-9.278,1.969-6.987"/>
<path fill="none" stroke="#000000" stroke-width="4" stroke-linecap="round" stroke-linejoin="round" stroke-miterlimit="10" d="
	M160.926,728.426l-6.68,5.536c0,0-13.273-3.291-17.94-7.458"/>
<path fill="none" stroke="#000000" stroke-width="4" stroke-linecap="round" stroke-linejoin="round" stroke-miterlimit="10" d="
	M157.645,773.557c0.952,3.732-9.86,3.279-24.15-1.011c-14.29-4.291-26.645-10.794-27.597-14.527
	c-0.952-3.732,9.86-3.279,24.15,1.011S156.693,769.825,157.645,773.557z"/>
<polyline fill="#FFFFFF" stroke="#000000" stroke-width="4" stroke-linecap="round" stroke-linejoin="round" stroke-miterlimit="10" points="
	73.34,767.999 73.34,759.124 88.078,759.124 88.078,767.999 "/>
<circle fill="#FFFFFF" stroke="#000000" stroke-width="4" stroke-linecap="round" stroke-linejoin="round" stroke-miterlimit="10" cx="80.709" cy="790.554" r="23.581"/>
<circle fill="#FFFFFF" stroke="#000000" stroke-width="4" stroke-linecap="round" stroke-linejoin="round" stroke-miterlimit="10" cx="80.709" cy="790.554" r="16.975"/>
<line fill="none" stroke="#000000" stroke-width="4" stroke-linecap="round" stroke-linejoin="round" stroke-miterlimit="10" x1="80.709" y1="791.157" x2="80.709" y2="781.338"/>
<line fill="none" stroke="#000000" stroke-width="4" stroke-linecap="round" stroke-linejoin="round" stroke-miterlimit="10" x1="80.709" y1="791.157" x2="86.245" y2="797.596"/>
<polygon fill="none" stroke="#000000" stroke-width="4" stroke-linecap="round" stroke-linejoin="round" stroke-miterlimit="10" points="
	177.878,408.614 150,425.328 122.122,408.614 150,391.901 "/>
<path fill="none" stroke="#000000" stroke-width="4" stroke-linecap="round" stroke-linejoin="round" stroke-miterlimit="10" d="
	M113.265,409.033c-10.709,2.061-18.798,11.481-18.798,22.791"/>
<path fill="none" stroke="#000000" stroke-width="4" stroke-linecap="round" stroke-linejoin="round" stroke-miterlimit="10" d="
	M205.533,431.824c0-10.993-7.643-20.202-17.905-22.601"/>
<path fill="none" stroke="#000000" stroke-width="4" stroke-linecap="round" stroke-linejoin="round" stroke-miterlimit="10" d="
	M117.677,445.26c0-2.498-2.025-4.523-4.523-4.523H75.78c-2.498,0-4.523,2.025-4.523,4.523v23.237c0,2.498,2.025,4.523,4.523,4.523
	h37.374c2.498,0,4.523-2.025,4.523-4.523V445.26z"/>
<path fill="none" stroke="#000000" stroke-width="4" stroke-linecap="round" stroke-linejoin="round" stroke-miterlimit="10" d="
	M228.743,445.26c0-2.498-2.025-4.523-4.523-4.523h-37.374c-2.498,0-4.523,2.025-4.523,4.523v23.237c0,2.498,2.025,4.523,4.523,4.523
	h37.374c2.498,0,4.523-2.025,4.523-4.523V445.26z"/>
<polyline fill="none" stroke="#000000" stroke-width="4" stroke-linecap="round" stroke-linejoin="round" stroke-miterlimit="10" points="
	100.279,428.555 94.467,434.367 88.655,428.555 "/>
<polyline fill="none" stroke="#000000" stroke-width="4" stroke-linecap="round" stroke-linejoin="round" stroke-miterlimit="10" points="
	211.345,428.555 205.533,434.367 199.721,428.555 "/>
<polyline fill="none" stroke="#000000" stroke-width="4" stroke-linecap="round" stroke-linejoin="round" stroke-miterlimit="10" points="
	185.593,505.184 179.781,499.372 185.593,493.56 "/>
<path fill="none" stroke="#000000" stroke-width="4" stroke-linecap="round" stroke-linejoin="round" stroke-miterlimit="10" d="
	M117.677,499.372c-11.331,0-20.766-8.12-22.803-18.858"/>
<path fill="none" stroke="#000000" stroke-width="4" stroke-linecap="round" stroke-linejoin="round" stroke-miterlimit="10" d="
	M179.781,499.372c11.331,0,20.766-8.12,22.803-18.858"/>
<polyline fill="none" stroke="#000000" stroke-width="4" stroke-linecap="round" stroke-linejoin="round" stroke-miterlimit="10" points="
	114.407,505.184 120.219,499.372 114.407,493.56 "/>
<circle fill="none" stroke="#000000" stroke-width="4" stroke-linecap="round" stroke-linejoin="round" stroke-miterlimit="10" cx="150" cy="499.372" r="18.727"/>
<circle fill="none" stroke="#000000" stroke-width="4" stroke-linecap="round" stroke-linejoin="round" stroke-miterlimit="10" cx="150" cy="499.372" r="12.018"/>
<line fill="none" stroke="#000000" stroke-width="4" stroke-linecap="round" stroke-linejoin="round" stroke-miterlimit="10" x1="137.263" y1="408.614" x2="162.737" y2="408.614"/>
<line fill="none" stroke="#000000" stroke-width="4" stroke-linecap="round" stroke-linejoin="round" stroke-miterlimit="10" x1="79.699" y1="451.543" x2="109.235" y2="451.543"/>
<line fill="none" stroke="#000000" stroke-width="4" stroke-linecap="round" stroke-linejoin="round" stroke-miterlimit="10" x1="79.699" y1="459.99" x2="97.675" y2="459.99"/>
<path fill="none" stroke="#000000" stroke-width="4" stroke-linecap="round" stroke-linejoin="round" stroke-miterlimit="10" d="
	M214.47,454.851c-0.43-1.982-2.193-3.466-4.304-3.466c-0.831,0-1.607,0.23-2.271,0.63c-0.896-2.001-2.904-3.396-5.238-3.396
	c-3.169,0-5.738,2.569-5.738,5.738c0,0.162,0.008,0.323,0.022,0.482c-0.007,0-0.014-0.001-0.022-0.001
	c-2.433,0-4.405,1.972-4.405,4.405c0,2.433,1.972,4.405,4.405,4.405h17.228c2.433,0,4.405-1.972,4.405-4.405
	C218.552,456.918,216.752,455.016,214.47,454.851z"/>
<path d="M134.439,466.814c-1.749,0-3.167-1.418-3.167-3.167s1.418-3.167,3.167-3.167s3.167,1.418,3.167,3.167
	S136.188,466.814,134.439,466.814"/>
<path d="M172.445,435.543c-1.435,0-2.603-1.168-2.603-2.603c0-0.616-0.499-1.115-1.115-1.115s-1.115,0.499-1.115,1.115
	c0,1.435-1.167,2.603-2.603,2.603c-0.616,0-1.115,0.499-1.115,1.115c0,0.616,0.499,1.115,1.115,1.115
	c1.435,0,2.603,1.167,2.603,2.602c0,0.616,0.499,1.115,1.115,1.115s1.115-0.499,1.115-1.115c0-1.435,1.167-2.602,2.603-2.602
	c0.616,0,1.115-0.499,1.115-1.115C173.561,436.042,173.061,435.543,172.445,435.543z"/>
<path d="M80.843,409.332c-1.435,0-2.603-1.168-2.603-2.603c0-0.616-0.499-1.115-1.115-1.115c-0.616,0-1.115,0.499-1.115,1.115
	c0,1.435-1.167,2.603-2.603,2.603c-0.616,0-1.115,0.499-1.115,1.115c0,0.616,0.499,1.115,1.115,1.115
	c1.435,0,2.603,1.167,2.603,2.602c0,0.616,0.499,1.115,1.115,1.115c0.616,0,1.115-0.499,1.115-1.115
	c0-1.435,1.167-2.602,2.603-2.602c0.616,0,1.115-0.499,1.115-1.115C81.958,409.832,81.459,409.332,80.843,409.332z"/>
<path d="M210.46,506.324c-1.138,0-2.064-0.926-2.064-2.064c0-0.489-0.396-0.885-0.885-0.885c-0.489,0-0.885,0.396-0.885,0.885
	c0,1.138-0.926,2.064-2.064,2.064c-0.489,0-0.885,0.396-0.885,0.885s0.396,0.885,0.885,0.885c1.138,0,2.064,0.926,2.064,2.064
	c0,0.489,0.396,0.885,0.885,0.885c0.489,0,0.885-0.396,0.885-0.885c0-1.138,0.926-2.064,2.064-2.064
	c0.489,0,0.885-0.396,0.885-0.885S210.949,506.324,210.46,506.324z"/>
</svg>
