<?xml version="1.0" encoding="utf-8"?>
<!-- Generator: Adobe Illustrator 17.1.0, SVG Export Plug-In . SVG Version: 6.00 Build 0)  -->
<!DOCTYPE svg PUBLIC "-//W3C//DTD SVG 1.1//EN" "http://www.w3.org/Graphics/SVG/1.1/DTD/svg11.dtd">
<svg version="1.1" id="Layer_1" xmlns="http://www.w3.org/2000/svg" xmlns:xlink="http://www.w3.org/1999/xlink" x="0px" y="0px"
	 viewBox="0 0 50 50" enable-background="new 0 0 50 50" xml:space="preserve">
<g>
	<g>
		<rect x="23.299" y="11.071" transform="matrix(0.462 0.8869 -0.8869 0.462 34.6254 -8.0019)" width="1.219" height="26.936"/>
	</g>
	<g>
		<polygon points="39.016,31.371 10.996,31.371 18.757,15.201 19.857,15.729 12.933,30.152 37.535,30.152 33.999,11.995 
			27.058,11.995 27.058,10.776 35.005,10.776 		"/>
	</g>
	<g>
		<rect x="14.608" y="22.504" transform="matrix(0.452 0.892 -0.892 0.452 33.3223 -8.0126)" width="17.148" height="1.219"/>
	</g>
	<g>
		<rect x="15.432" y="14.855" width="7.751" height="1.22"/>
	</g>
	<g>
		<path d="M38.276,39.224c-4.666,0-8.462-3.796-8.462-8.463c0-4.666,3.796-8.462,8.462-8.462c4.667,0,8.463,3.796,8.463,8.462
			C46.738,35.428,42.942,39.224,38.276,39.224z M38.276,23.519c-3.994,0-7.243,3.249-7.243,7.243s3.249,7.243,7.243,7.243
			s7.243-3.249,7.243-7.243S42.269,23.519,38.276,23.519z"/>
	</g>
	<g>
		<path d="M11.964,39.224c-4.667,0-8.463-3.796-8.463-8.463c0-4.666,3.796-8.462,8.463-8.462c4.666,0,8.462,3.796,8.462,8.462
			C20.426,35.428,16.63,39.224,11.964,39.224z M11.964,23.519c-3.994,0-7.243,3.249-7.243,7.243s3.249,7.243,7.243,7.243
			s7.243-3.249,7.243-7.243S15.958,23.519,11.964,23.519z"/>
	</g>
</g>
<g>
</g>
<g>
</g>
<g>
</g>
<g>
</g>
<g>
</g>
<g>
</g>
<g>
</g>
<g>
</g>
<g>
</g>
<g>
</g>
<g>
</g>
<g>
</g>
<g>
</g>
<g>
</g>
<g>
</g>
</svg>
