<?xml version="1.0" encoding="utf-8"?>
<!-- Generator: Adobe Illustrator 17.1.0, SVG Export Plug-In . SVG Version: 6.00 Build 0)  -->
<!DOCTYPE svg PUBLIC "-//W3C//DTD SVG 1.1//EN" "http://www.w3.org/Graphics/SVG/1.1/DTD/svg11.dtd">
<svg version="1.1" id="Layer_1" xmlns="http://www.w3.org/2000/svg" xmlns:xlink="http://www.w3.org/1999/xlink" x="0px" y="0px"
	 viewBox="0 0 50 50" enable-background="new 0 0 50 50" xml:space="preserve">
<g>
	<g>
		<path d="M40.811,34.219H9.189V12.531h31.623V34.219z M10.364,33.044h29.272V13.706H10.364V33.044z"/>
	</g>
	<g>
		<path d="M32.53,38.371H17.469l5.057-5.327h4.948L32.53,38.371z M20.205,37.195h9.59l-2.825-2.977h-3.938L20.205,37.195z"/>
	</g>
	<g>
		<rect x="9.776" y="29.423" width="30.448" height="1.175"/>
	</g>
	<g>
		<g>
			<polygon points="28.613,25.507 27.782,24.677 30.332,22.127 27.782,19.578 28.613,18.748 31.993,22.127 			"/>
		</g>
		<g>
			<polygon points="21.386,25.507 18.006,22.127 21.386,18.748 22.217,19.578 19.668,22.127 22.217,24.677 			"/>
		</g>
		<g>
			<rect x="24.412" y="17.82" transform="matrix(0.9608 0.2773 -0.2773 0.9608 7.1163 -6.0647)" width="1.175" height="8.615"/>
		</g>
	</g>
</g>
<g>
</g>
<g>
</g>
<g>
</g>
<g>
</g>
<g>
</g>
<g>
</g>
<g>
</g>
<g>
</g>
<g>
</g>
<g>
</g>
<g>
</g>
<g>
</g>
<g>
</g>
<g>
</g>
<g>
</g>
</svg>
